<svg width="92" height="78" viewBox="0 0 92 78" fill="none" xmlns="http://www.w3.org/2000/svg">
<path d="M82.6289 39.4009C78.7139 35.9099 75.0949 32.8199 72.4619 28.1859C71.3199 26.1759 70.2769 24.1599 69.1039 22.2289C69.1539 22.2239 69.2019 22.2139 69.2429 22.1949C72.3439 20.8159 75.7899 19.1129 76.2799 15.3829C76.6779 12.3529 75.6099 7.55988 73.4799 5.25788C71.9129 3.56388 69.8029 3.0099 67.8879 4.3509C66.3569 5.4229 65.1979 7.08491 63.7909 8.31791C61.8249 10.0419 59.2489 11.0619 56.8589 12.0349C56.7259 12.0889 56.7869 12.2579 56.9549 12.4669C53.8209 11.5469 50.4719 11.1399 47.2999 10.8409C46.8429 10.5339 46.3519 10.3019 46.0259 10.3689C43.9649 10.7839 41.9759 11.2349 40.0479 11.7799C37.4629 9.05888 33.3449 7.25988 31.2299 4.20188C31.1389 4.01488 31.0479 3.82789 30.9569 3.64289C30.9169 3.56189 30.8359 3.47189 30.7289 3.37989C30.4189 2.79589 30.1749 2.1699 30.0319 1.4809C29.8929 0.814902 28.0229 -0.374095 27.4189 0.114905C23.1099 3.5979 19.3299 8.3689 20.7229 14.1789C21.3349 16.7339 23.3369 18.6399 25.7339 19.4529C21.4339 23.2459 17.6629 27.7579 13.5339 31.7129C11.7759 33.3969 9.86187 35.2729 8.03987 37.2999C7.00387 38.1049 6.50989 38.9469 5.69389 40.0799C1.03589 46.0229 -2.06813 53.0159 1.64387 60.3009C6.21487 69.2749 15.6789 74.6599 25.3549 76.2839C32.3149 77.4529 39.6519 76.8829 46.6809 76.8809C54.6639 76.8799 66.1649 76.2909 70.3769 75.3509C78.3549 73.1759 86.1969 69.4089 90.2909 61.8519C94.6359 53.8289 88.4059 44.5519 82.6289 39.4009ZM66.1189 10.8519C67.5009 9.4769 68.7659 7.9659 70.0149 6.6149C70.0829 6.5409 70.0409 6.4129 69.9289 6.2609C70.9309 5.2419 71.6309 4.8679 72.3619 6.7259C73.3909 9.3419 74.1619 12.6989 73.3359 15.4419C72.6229 17.8029 69.9519 19.1499 67.7419 20.1429C67.2689 19.4729 66.7549 18.8249 66.2149 18.1909C66.2729 18.1959 66.3329 18.2189 66.3889 18.2159C68.8069 18.1139 70.8909 15.9229 71.3499 13.6149C71.5179 12.7679 68.8329 11.7049 68.7519 12.1149C68.3669 14.0509 66.6559 16.2729 64.5619 16.4829C64.0339 16.0149 63.4889 15.5739 62.9129 15.1839C63.8509 13.6369 64.9469 12.2139 66.1189 10.8519ZM23.4999 9.9199C24.3469 7.1699 26.3339 4.86089 28.4819 2.92689C28.5709 3.07189 28.6699 3.2079 28.7669 3.3469C30.6669 7.2719 32.1149 11.3819 29.4919 15.2169C28.8789 13.6689 28.7079 11.8059 29.3489 10.4479C29.6619 9.78688 27.0149 8.38888 26.7509 8.94788C25.6309 11.3179 26.7299 14.5419 28.2999 16.4519C28.4489 16.6329 28.6499 16.7929 28.8659 16.9409C28.3799 17.2829 27.8959 17.6359 27.4199 18.0199C27.1999 18.1969 26.9889 18.3879 26.7729 18.5689C26.4229 18.3509 26.0849 18.1899 25.8779 18.1789C22.3469 18.0019 22.8449 12.0419 23.4999 9.9199ZM85.1829 64.1099C80.7329 69.6779 73.4099 72.5199 66.6929 74.0349C61.7159 75.1569 43.8559 75.2249 32.3259 75.1899C24.9139 75.1669 17.8879 74.1499 11.6329 69.9109C5.80189 65.9599 2.02187 59.4729 2.87687 52.3779C3.47287 47.4339 6.47288 43.0539 10.0589 39.1389C15.7759 35.7099 22.5529 35.2269 28.6519 38.7679C30.1649 39.6449 30.6279 38.8399 29.1169 37.9619C24.2519 35.1369 19.0689 34.1069 14.0969 35.0619C15.8239 33.4199 17.5369 31.8699 19.0629 30.4009C22.7769 26.8269 26.1309 22.9179 30.0189 19.5209C34.9509 15.2129 40.9789 13.5689 47.2069 12.2739C47.3419 12.3339 47.4619 12.3739 47.5559 12.3819C53.4769 12.9049 59.8789 13.2039 64.3059 17.9079C66.7769 20.5329 68.2869 24.1609 69.9859 27.2969C72.2119 31.4069 75.2799 34.3709 78.6039 37.3159C72.9049 35.3959 66.3389 36.3039 61.0269 39.0349C60.4929 39.3089 62.7209 41.0489 63.4099 40.6949C68.3029 38.1799 75.7049 36.5399 80.8199 39.2679C80.8229 39.2689 80.8249 39.2699 80.8279 39.2709C81.2139 39.6099 81.5989 39.9459 81.9869 40.2919C88.9119 46.4679 91.1969 56.5869 85.1829 64.1099Z" fill="#E52E68"/>
<path d="M38.5 31.6606C37.664 31.3396 36.811 31.4836 36.208 31.9446C35.863 32.0036 35.551 32.1646 35.322 32.5066C35.023 32.9536 34.946 33.5276 35.003 34.1096C34.914 34.4376 34.892 34.7966 34.99 35.2046C35.419 36.9766 37.943 38.3656 39.658 38.0646C40.447 37.9266 40.953 37.3106 41.143 36.5996C41.466 36.1416 41.664 35.5956 41.694 35.0306C41.783 33.3616 39.806 32.1616 38.5 31.6606ZM39.215 34.3656C37.925 34.3656 37.925 32.3656 39.215 32.3656C40.505 32.3656 40.506 34.3656 39.215 34.3656Z" fill="#E52E68"/>
<path d="M56.0253 32.202C55.9103 32.263 55.8893 32.351 55.9133 32.447C55.1003 33.054 54.6083 34.096 54.6423 35.105C54.6973 36.778 57.2903 38.041 58.7383 37.856C59.8433 37.715 60.3523 36.758 60.3503 35.762C60.4073 35.504 60.4523 35.246 60.4763 35.002C60.6953 32.832 57.8623 31.243 56.0253 32.202ZM58.4653 34.531H58.3823C57.0923 34.531 57.0923 32.531 58.3823 32.531H58.4653C59.7563 32.531 59.7563 34.531 58.4653 34.531Z" fill="#E52E68"/>
<path d="M40.7876 26.842C40.3356 26.527 39.6136 26.076 39.0266 26.201C36.1456 26.816 33.2436 27.158 30.5266 28.368C30.0146 28.596 32.1836 30.351 32.9096 30.028C35.6246 28.818 38.5276 28.4771 41.4096 27.8611C41.9286 27.7511 40.8676 26.898 40.7876 26.842Z" fill="#E52E68"/>
<path d="M56.089 27.8418C56.541 27.5268 57.2631 27.0748 57.8501 27.2008C60.7311 27.8158 63.6331 28.1578 66.3501 29.3678C66.8621 29.5958 64.6931 31.3508 63.9671 31.0278C61.2521 29.8178 58.3491 29.4768 55.4671 28.8608C54.9471 28.7498 56.008 27.8968 56.089 27.8418Z" fill="#E52E68"/>
<path d="M54.629 53.55C52.647 53.109 50.689 52.987 48.736 53.036C48.835 51.025 49.165 49.038 49.341 47.032C50.734 46.601 51.854 44.965 52.353 43.7C53.721 40.236 48.567 39.024 46.176 39.38C45.155 39.532 43.988 39.905 43.418 40.722C43.004 41.054 42.723 41.503 42.73 42.081C42.746 43.378 43.843 44.212 44.744 45.116C45.074 45.52 45.394 45.905 45.642 46.255C45.876 46.585 46.215 46.851 46.581 47.066C46.369 48.902 46.092 50.728 46.066 52.584C46.063 52.766 46.219 52.971 46.456 53.168C46.414 53.172 46.372 53.177 46.331 53.18C46.033 53.112 45.801 53.119 45.722 53.241C43.509 53.451 41.292 53.774 39.044 54.016C38.192 54.108 40.035 55.536 40.863 55.702C41.092 56.45 41.311 57.202 41.489 57.967C41.669 58.738 41.601 59.761 42.041 60.45C43.06 62.048 45.523 62.208 47.134 62.64C47.224 62.664 47.625 62.746 47.679 62.575C47.726 62.427 47.759 62.274 47.798 62.124C48.034 62.22 48.274 62.292 48.509 62.302C49.214 62.329 52.263 62.825 52.452 61.697C52.825 59.47 53.249 57.484 54.304 55.451C54.39 55.287 54.269 55.066 54.044 54.841C54.74 54.918 55.437 55.028 56.135 55.184C57.543 55.493 55.228 53.683 54.629 53.55ZM45.127 60.906C44.886 60.868 44.64 60.833 44.398 60.788C44.374 60.63 44.349 60.472 44.322 60.315C44.049 58.686 43.562 57.138 43.072 55.565C43.062 55.534 43.036 55.51 43.023 55.481C43.904 55.368 44.783 55.252 45.662 55.141C45.657 57.084 45.674 59.05 45.127 60.906ZM49.89 59.672C49.83 60.29 49.91 60.43 49.271 60.558C48.869 60.64 48.483 60.66 48.1 60.66C48.364 58.749 48.25 56.771 48.313 54.851C49.326 54.761 50.337 54.705 51.351 54.702C50.614 56.268 50.056 57.948 49.89 59.672Z" fill="#E52E68"/>
</svg>
