<svg width="92" height="78" viewBox="0 0 92 78" fill="none" xmlns="http://www.w3.org/2000/svg">
<path d="M82.6289 39.3999C78.7139 35.9099 75.0949 32.8199 72.4619 28.1849C71.3199 26.1749 70.2769 24.1599 69.1039 22.2279C69.1539 22.2229 69.2019 22.2129 69.2429 22.1949C72.3439 20.8159 75.7899 19.1129 76.2799 15.3819C76.6779 12.3529 75.6099 7.5589 73.4799 5.2569C71.9129 3.5629 69.8029 3.00792 67.8879 4.34992C66.3569 5.42192 65.1979 7.0839 63.7909 8.3169C61.8249 10.0419 59.2489 11.0609 56.8589 12.0349C56.7259 12.0889 56.7869 12.2579 56.9549 12.4669C53.8209 11.5469 50.4719 11.1399 47.2999 10.8409C46.8429 10.5329 46.3519 10.3019 46.0259 10.3679C43.9649 10.7829 41.9759 11.2339 40.0479 11.7789C37.4629 9.05791 33.3449 7.25891 31.2299 4.20191C31.1389 4.01491 31.0479 3.82791 30.9569 3.64191C30.9169 3.56091 30.8359 3.47091 30.7289 3.37891C30.4189 2.79491 30.1749 2.1689 30.0319 1.4809C29.8929 0.814902 28.0229 -0.374095 27.4189 0.114905C23.1099 3.59691 19.3299 8.36893 20.7229 14.1789C21.3349 16.7339 23.3369 18.6399 25.7339 19.4519C21.4339 23.2449 17.6629 27.7569 13.5339 31.7119C11.7759 33.3969 9.86187 35.2729 8.03987 37.2999C7.00387 38.1049 6.50989 38.9469 5.69389 40.0799C1.03589 46.0229 -2.06813 53.0149 1.64387 60.2999C6.21487 69.2749 15.6789 74.6589 25.3549 76.2839C32.3149 77.4519 39.6519 76.8829 46.6809 76.8809C54.6639 76.8799 66.1649 76.2909 70.3769 75.3509C78.3549 73.1769 86.1969 69.4089 90.2909 61.8509C94.6359 53.8279 88.4059 44.5499 82.6289 39.3999ZM66.1189 10.8509C67.5009 9.47693 68.7659 7.9649 70.0149 6.6149C70.0829 6.5409 70.0409 6.41292 69.9289 6.25992C70.9309 5.24192 71.6309 4.86792 72.3619 6.72492C73.3909 9.34192 74.1619 12.6979 73.3359 15.4419C72.6229 17.8029 69.9519 19.1499 67.7419 20.1419C67.2689 19.4719 66.7549 18.8249 66.2149 18.1899C66.2729 18.1959 66.3329 18.2179 66.3889 18.2149C68.8069 18.1129 70.8909 15.9219 71.3499 13.6139C71.5179 12.7669 68.8329 11.7039 68.7519 12.1139C68.3669 14.0499 66.6559 16.2719 64.5619 16.4819C64.0339 16.0139 63.4889 15.5729 62.9129 15.1819C63.8509 13.6359 64.9469 12.2129 66.1189 10.8509ZM23.4999 9.91892C24.3469 7.16792 26.3339 4.85891 28.4819 2.92591C28.5709 3.07091 28.6699 3.20692 28.7669 3.34592C30.6669 7.27092 32.1149 11.3809 29.4919 15.2159C28.8789 13.6679 28.7079 11.8039 29.3489 10.4469C29.6619 9.78591 27.0149 8.38791 26.7509 8.94691C25.6309 11.3169 26.7299 14.5419 28.2999 16.4519C28.4489 16.6329 28.6499 16.7929 28.8659 16.9399C28.3799 17.2829 27.8959 17.6349 27.4199 18.0189C27.1999 18.1969 26.9889 18.3869 26.7729 18.5689C26.4229 18.3509 26.0849 18.1889 25.8779 18.1789C22.3469 18.0009 22.8449 12.0409 23.4999 9.91892ZM85.1829 64.1089C80.7329 69.6769 73.4099 72.5199 66.6929 74.0349C61.7159 75.1569 43.8559 75.2249 32.3259 75.1889C24.9139 75.1659 17.8879 74.1499 11.6329 69.9109C5.80189 65.9589 2.02187 59.4729 2.87687 52.3779C3.47287 47.4339 6.47288 43.0539 10.0589 39.1389C10.3919 38.9389 10.7329 38.7569 11.0739 38.5769C11.1969 38.5899 11.3079 38.5819 11.3989 38.5429C17.3509 35.9589 25.4519 32.8839 31.0839 37.9629C31.6959 38.5149 34.2819 39.2269 32.8499 37.9349C27.2899 32.9229 20.7189 32.9739 14.2439 34.9249C15.9209 33.3339 17.5819 31.8279 19.0639 30.4009C22.7779 26.8269 26.1319 22.9179 30.0199 19.5209C34.9519 15.2129 40.9799 13.5689 47.2079 12.2749C47.3429 12.3349 47.4629 12.3749 47.5569 12.3829C53.4779 12.9059 59.8799 13.2049 64.3069 17.9079C66.7779 20.5339 68.2879 24.1619 69.9869 27.2969C71.9249 30.8759 74.5039 33.5859 77.3329 36.1699C72.2499 34.2229 66.7419 36.8729 61.7859 39.1049C61.1739 39.3799 63.3889 41.1369 64.1509 40.7929C68.0299 39.0459 74.7969 35.0229 78.8699 38.1879C79.2709 38.5009 79.8179 38.6849 80.2109 38.7089C80.3089 38.8099 80.4099 38.8979 80.5069 39.0019C80.5739 39.0649 80.6319 39.1439 80.6969 39.2099C80.7379 39.2309 80.7809 39.2459 80.8209 39.2679C80.8239 39.2699 80.8259 39.2699 80.8289 39.2719C81.2149 39.6109 81.5999 39.9469 81.9879 40.2929C88.9119 46.4659 91.1969 56.5859 85.1829 64.1089Z" fill="#E52E68"/>
<path d="M38.5 31.6599C37.664 31.3389 36.811 31.4819 36.208 31.9439C35.863 32.0029 35.551 32.1639 35.322 32.5059C35.023 32.9529 34.946 33.5269 35.003 34.1089C34.914 34.4369 34.892 34.7959 34.99 35.2039C35.419 36.9759 37.943 38.3649 39.658 38.0639C40.447 37.9249 40.953 37.3099 41.143 36.5989C41.466 36.1399 41.664 35.5939 41.694 35.0299C41.783 33.3609 39.806 32.1609 38.5 31.6599ZM39.215 34.3649C37.925 34.3649 37.925 32.3649 39.215 32.3649C40.505 32.3649 40.506 34.3649 39.215 34.3649Z" fill="#E52E68"/>
<path d="M56.0253 32.1999C55.9103 32.2609 55.8893 32.3489 55.9133 32.4449C55.1003 33.0519 54.6083 34.0929 54.6423 35.1029C54.6973 36.7759 57.2903 38.0389 58.7383 37.8539C59.8433 37.7119 60.3523 36.7549 60.3503 35.7599C60.4073 35.5019 60.4523 35.2439 60.4763 34.9999C60.6953 32.8309 57.8623 31.2409 56.0253 32.1999ZM58.4653 34.5309H58.3823C57.0923 34.5309 57.0923 32.5309 58.3823 32.5309H58.4653C59.7563 32.5309 59.7563 34.5309 58.4653 34.5309Z" fill="#E52E68"/>
<path d="M65.1995 44.658C65.2875 44.028 64.3205 43.766 64.2325 44.406C64.2055 44.606 64.1665 44.801 64.1365 45C59.3935 48.387 54.5465 51.738 48.7785 52.493C48.9025 50.667 49.1814 48.857 49.3414 47.032C50.7344 46.601 51.8545 44.965 52.3535 43.7C53.7215 40.236 48.5675 39.024 46.1765 39.38C45.1555 39.532 43.9885 39.904 43.4185 40.722C43.0045 41.053 42.7235 41.502 42.7305 42.081C42.7465 43.378 43.8435 44.211 44.7445 45.116C45.0745 45.52 45.3945 45.905 45.6425 46.254C45.8765 46.585 46.2155 46.851 46.5815 47.066C46.3695 48.902 46.0925 50.727 46.0665 52.583C46.0665 52.605 46.0755 52.628 46.0795 52.65C46.0565 52.65 46.0324 52.652 46.0094 52.651C42.3214 52.579 38.7255 51.34 35.5725 49.489C32.1165 47.46 29.9985 44.305 27.9815 40.952C27.6595 40.416 26.8445 40.865 27.0935 41.395C27.0525 41.51 27.0485 41.642 27.1125 41.78C29.7905 47.614 31.3024 53.905 34.1604 59.665C36.4574 64.294 40.8515 70.2679 46.5445 70.5669C51.5225 70.8279 55.2165 67.214 57.9775 63.482C61.8905 58.191 64.0595 51.979 65.0555 45.534C65.1885 45.378 65.2035 45.1809 65.1415 45.0109C65.1595 44.8919 65.1835 44.776 65.1995 44.658ZM47.6505 53.621C48.8895 53.548 50.0954 53.35 51.2724 53.049C51.2774 53.056 51.2755 53.064 51.2805 53.07C51.2835 53.074 51.2855 53.075 51.2875 53.079C50.8505 54.368 50.5755 55.714 50.0545 56.971C49.4665 58.39 48.3625 58.923 46.9745 59.016C47.2835 57.228 47.2955 55.403 47.6505 53.621ZM44.2835 53.513C45.0825 53.617 45.8645 53.656 46.6365 53.654C46.3835 55.077 46.3345 56.5239 46.1495 57.9549C46.0765 57.9049 45.9914 57.867 45.8804 57.865C44.5184 57.842 43.6615 57.675 43.6915 56.208C43.7115 55.239 43.7425 54.321 43.5425 53.396C43.7885 53.436 44.0355 53.481 44.2835 53.513ZM45.7155 69.419C45.6375 69.406 45.5624 69.403 45.4834 69.388C44.6644 69.224 43.8915 68.941 43.1565 68.579C43.1705 68.549 43.1894 68.526 43.1994 68.49C43.3984 67.735 43.4975 66.872 43.8755 66.178C44.2075 65.57 45.1004 65.704 45.7164 65.812V69.419H45.7155ZM46.7155 69.533V65.362C46.7165 65.138 46.7365 64.9269 46.7715 64.7179C47.8185 64.7459 48.7075 64.574 49.0645 65.879C49.3285 66.842 49.3845 67.848 49.5665 68.826C49.5915 68.965 49.6625 69.054 49.7495 69.112C48.7885 69.425 47.7785 69.588 46.7155 69.533Z" fill="#E52E68"/>
<path d="M37.025 21.367C32.682 22.297 29.21 24.559 27.168 28.572C26.845 29.207 29.476 30.642 29.766 30.072C31.773 26.129 35.144 23.94 39.409 23.027C39.79 22.947 37.855 21.19 37.025 21.367Z" fill="#E52E68"/>
<path d="M55.8198 21.741C60.1628 22.671 63.6348 24.9331 65.6768 28.9461C65.9998 29.5811 63.3688 31.0161 63.0788 30.4461C61.0718 26.5031 57.7008 24.314 53.4358 23.401C53.0548 23.321 54.9898 21.564 55.8198 21.741Z" fill="#E52E68"/>
</svg>
