<svg width="93" height="79" viewBox="0 0 93 79" fill="none" xmlns="http://www.w3.org/2000/svg">
<path d="M82.3992 18.3129C82.4382 18.3029 82.4772 18.2909 82.5072 18.2699C86.1882 15.7579 97.3752 5.51092 90.8512 0.963923C88.6392 -0.577077 85.9242 0.0619494 83.5002 0.609949C77.1842 2.03395 70.8302 2.61895 64.6252 4.60995C64.5012 4.64895 64.5692 4.81193 64.7442 5.02093C64.6292 4.98493 64.5602 4.96893 64.5742 4.99093C57.9192 2.40893 50.6512 1.24593 43.7572 1.55593C43.3982 1.35393 36.4862 3.03694 32.9362 4.58694C32.9012 4.44294 31.2172 5.28695 29.6802 6.09295C29.1652 5.69695 28.5122 5.32895 28.1872 5.33795C21.8582 5.52095 14.5162 4.23394 8.67821 1.82794C6.78921 1.04994 3.31724 0.53893 1.64324 2.10293C-4.19476 7.55993 7.06521 17.0159 11.4112 20.2529C6.53421 26.7129 4.94923 34.2499 10.4912 42.0489C15.0362 48.4449 23.3722 51.4099 30.8282 52.1589C34.4362 52.5209 39.6822 51.1199 42.2432 54.8099C43.8002 57.0549 44.2562 60.0349 44.6042 62.6809C45.1822 67.0719 44.7552 71.6029 44.3352 75.9889C44.2682 76.6949 46.8982 77.9179 46.9652 77.2209C47.6682 69.8579 48.5332 61.1949 44.0852 54.7849C39.6432 48.3809 30.0902 51.0469 23.6582 49.6389C8.35522 46.2859 6.79922 30.2409 15.5842 19.9079C22.3852 11.9089 32.8182 6.10894 43.0132 3.45394C53.4052 2.37194 63.9342 4.41193 72.6782 10.3009C81.4032 16.1779 88.8322 27.7189 84.0262 38.1509C81.9542 42.6489 77.5372 46.7819 73.1882 48.9779C69.6602 50.7599 65.3892 50.7359 61.6882 52.0719C51.7662 55.6509 55.8012 69.8879 56.3352 77.4899C56.3912 78.2689 59.0062 79.3059 58.9652 78.7219C58.4832 71.8689 56.5702 65.0239 59.1152 58.3549C61.0812 53.2069 67.5632 52.7859 72.1302 51.7629C82.6312 49.4099 91.0012 37.3739 87.3452 26.9279C86.5752 24.7279 84.3002 21.0819 82.3992 18.3129ZM27.5072 7.25292C27.4762 7.15892 25.5442 8.38193 23.4602 9.75393C23.1052 9.49993 22.7492 9.29293 22.5642 9.24993C18.7572 8.37593 13.3022 5.04893 9.43923 7.34493C5.53223 9.66693 13.2952 14.3949 14.4842 15.5699C14.5862 15.6709 14.8362 15.8779 15.1342 16.0879C15.0702 16.1489 14.9992 16.2069 14.9372 16.2689C14.9222 16.1249 12.9762 18.1159 13.0862 18.2039C12.7162 18.6179 12.3612 19.0379 12.0192 19.4629C8.85322 16.9959 6.46421 14.281 4.21221 10.856C1.27821 6.38895 3.26923 2.05093 8.86223 3.06893C12.3652 3.70793 15.5852 5.34093 19.2062 5.88693C22.1592 6.33193 25.0192 6.86595 27.9592 7.01095C27.7852 7.10095 27.6282 7.18592 27.5072 7.25292ZM79.6112 14.5969C79.6042 14.6069 79.6002 14.6179 79.5932 14.6279C79.4282 14.4609 79.2542 14.3019 79.0852 14.1379C78.7612 13.8509 78.4382 13.5619 78.1132 13.2729C78.1192 13.2719 78.1262 13.2719 78.1322 13.2709C80.2952 12.4119 84.6212 9.69894 84.1312 6.93194C84.0082 6.23894 82.4572 5.40292 81.8122 5.46392C78.1902 5.81392 74.9692 7.39995 71.5002 8.35995C71.4752 8.36695 71.4592 8.38094 71.4502 8.39794C70.7092 7.92394 70.1602 7.57892 70.1582 7.58892C69.2382 7.08592 68.3032 6.60994 67.3472 6.16894C74.1092 4.04594 81.1072 3.21095 88.0352 1.81195C92.3482 0.939945 88.9452 6.72893 88.0762 8.30493C86.3262 11.4849 83.7482 14.0109 80.8302 16.1069C80.2392 15.3099 79.7902 14.7519 79.6112 14.5969Z" fill="#E52E68"/>
<path d="M68.0199 33.0642C66.0959 35.1902 63.6449 37.2552 60.7909 37.9292C60.6669 37.9092 60.5549 37.9102 60.4609 37.9432C60.3159 37.9942 60.1639 38.0352 60.0179 38.0832C59.9689 38.0892 59.9239 38.1042 59.8769 38.1102C59.8259 38.1162 59.8029 38.1362 59.7789 38.1562C58.3369 38.6042 56.8099 38.9172 55.2999 38.8722C54.7759 38.5932 54.2469 38.4482 54.0199 38.6902C54.0079 38.7032 53.9919 38.7112 53.9799 38.7242C53.4359 38.6252 52.8989 38.4872 52.3759 38.2672C49.8639 37.2112 49.1409 33.9472 48.9929 31.4492C50.4359 31.1022 51.7919 30.4112 52.8059 29.3862C55.2829 26.8842 53.8689 23.2962 51.3919 21.5222C50.7119 21.0362 50.0239 20.7022 49.3349 20.4962C48.9389 20.2532 48.5439 20.0752 48.3149 20.0892C45.2699 20.2722 41.2899 21.0362 39.8619 24.1012C38.3389 27.3722 41.4279 30.1212 44.1239 31.1912C44.7099 31.4242 45.3329 31.5572 45.9649 31.6352C45.8049 33.8472 45.1919 35.8962 43.6669 37.6842C41.9129 39.7432 38.0299 41.3432 35.0909 41.1072C34.6789 40.8692 34.2079 40.6802 33.7529 40.7362C30.6479 41.1142 27.3089 38.5052 25.0129 36.7522C24.0719 36.0332 22.2359 35.8792 23.8739 37.1302C26.8949 39.4382 31.1509 42.4602 35.2199 42.4482C37.6539 43.0792 40.0029 42.6912 42.2229 41.7472C45.8119 45.3352 53.1609 43.6562 56.4559 40.3442C58.3379 40.5542 60.3209 40.3582 62.2649 39.7712C65.5719 39.3612 68.4539 36.9582 70.6189 34.5662C70.9639 34.1822 68.5609 32.4672 68.0199 33.0642ZM49.6219 41.1722C48.7219 41.5032 44.7539 42.8532 44.0589 41.8852C43.9309 41.7072 43.5899 41.4892 43.1989 41.2922C43.8129 40.9812 44.4199 40.6462 45.0119 40.2712C46.7379 39.1722 47.6779 37.4702 48.1699 35.6002C49.3739 37.3852 51.0979 38.6922 53.0889 39.4962C52.0479 40.2432 50.7999 40.7392 49.6219 41.1722Z" fill="#E52E68"/>
<path d="M54.9023 33.4399C55.3166 33.4399 55.6523 33.1042 55.6523 32.6899C55.6523 32.2757 55.3166 31.9399 54.9023 31.9399C54.4881 31.9399 54.1523 32.2757 54.1523 32.6899C54.1523 33.1042 54.4881 33.4399 54.9023 33.4399Z" fill="#E52E68"/>
<path d="M53.1523 35.6899C53.5666 35.6899 53.9023 35.3542 53.9023 34.9399C53.9023 34.5257 53.5666 34.1899 53.1523 34.1899C52.7381 34.1899 52.4023 34.5257 52.4023 34.9399C52.4023 35.3542 52.7381 35.6899 53.1523 35.6899Z" fill="#E52E68"/>
<path d="M56.1523 36.606C56.5666 36.606 56.9023 36.2702 56.9023 35.856C56.9023 35.4417 56.5666 35.106 56.1523 35.106C55.7381 35.106 55.4023 35.4417 55.4023 35.856C55.4023 36.2702 55.7381 36.606 56.1523 36.606Z" fill="#E52E68"/>
<path d="M58.9023 34.356C59.3166 34.356 59.6523 34.0202 59.6523 33.606C59.6523 33.1917 59.3166 32.856 58.9023 32.856C58.4881 32.856 58.1523 33.1917 58.1523 33.606C58.1523 34.0202 58.4881 34.356 58.9023 34.356Z" fill="#E52E68"/>
<path d="M39.4844 33.106C39.8986 33.106 40.2344 32.7702 40.2344 32.356C40.2344 31.9417 39.8986 31.606 39.4844 31.606C39.0702 31.606 38.7344 31.9417 38.7344 32.356C38.7344 32.7702 39.0702 33.106 39.4844 33.106Z" fill="#E52E68"/>
<path d="M42.5703 34.7729C42.9845 34.7729 43.3203 34.4372 43.3203 34.0229C43.3203 33.6087 42.9845 33.2729 42.5703 33.2729C42.1561 33.2729 41.8203 33.6087 41.8203 34.0229C41.8203 34.4372 42.1561 34.7729 42.5703 34.7729Z" fill="#E52E68"/>
<path d="M40.4023 37.9399C40.8166 37.9399 41.1523 37.6042 41.1523 37.1899C41.1523 36.7757 40.8166 36.4399 40.4023 36.4399C39.9881 36.4399 39.6523 36.7757 39.6523 37.1899C39.6523 37.6042 39.9881 37.9399 40.4023 37.9399Z" fill="#E52E68"/>
<path d="M38.0703 35.9399C38.4845 35.9399 38.8203 35.6042 38.8203 35.1899C38.8203 34.7757 38.4845 34.4399 38.0703 34.4399C37.6561 34.4399 37.3203 34.7757 37.3203 35.1899C37.3203 35.6042 37.6561 35.9399 38.0703 35.9399Z" fill="#E52E68"/>
<path d="M37.4369 12.0891C32.1199 12.4121 27.7269 15.4371 24.1429 19.1911C23.8009 19.5481 26.1729 21.2851 26.7409 20.6911C30.1389 17.1301 34.3859 14.0981 39.4459 13.7921C40.3479 13.7361 38.1269 12.0481 37.4369 12.0891Z" fill="#E52E68"/>
<path d="M57.6786 12.0891C63.0246 12.4121 67.4406 15.4371 71.0436 19.1911C71.3876 19.5481 69.0026 21.2851 68.4326 20.6911C65.0146 17.1301 60.7466 14.0981 55.6596 13.7921C54.7506 13.7361 56.9846 12.0481 57.6786 12.0891Z" fill="#E52E68"/>
</svg>
