<svg width="98" height="86" viewBox="0 0 98 86" fill="none" xmlns="http://www.w3.org/2000/svg">
<path d="M24.203 44.7075C24.0981 44.6585 24.0003 44.6155 23.9139 44.5946C18.7738 43.2662 13.788 46.1878 15.0275 51.8212C15.5213 54.0741 17.4314 55.6164 19.4774 56.5479C22.0264 57.7054 24.1824 56.8228 26.2263 55.3455C27.187 56.354 28.4091 57.2376 29.9057 57.9463C34.7043 60.2162 39.7611 58.1652 41.6024 53.4114C45.5112 43.3292 30.5466 37.271 24.203 44.7075ZM24.205 46.1398C24.0754 46.5736 23.9818 47.0004 23.9077 47.4262C22.6302 47.1174 21.368 46.9904 20.108 47.0374C21.2703 46.2808 22.7372 45.9329 24.205 46.1398ZM24.097 53.1276C22.8596 54.0861 21.6355 55.0426 20.0061 55.2126C18.0116 55.4215 17.7606 52.3899 17.7946 51.0895C17.8069 50.6467 17.8768 50.2269 17.9931 49.8301C18.0517 49.8241 18.1083 49.8141 18.1597 49.7971C20.0545 49.1094 21.8793 48.7976 23.7473 48.9715C23.7113 50.4238 24.0044 51.8022 24.6216 53.0596C24.4005 53.0216 24.2133 53.0376 24.097 53.1276ZM38.8693 51.2304C38.2295 53.7512 36.3841 55.8313 33.8886 56.7228C30.4715 57.9453 27.4494 55.4384 26.645 52.3069C26.4598 51.5883 26.4341 50.8586 26.5009 50.13C26.6305 50.136 26.7458 50.118 26.8373 50.067C28.7989 48.9695 30.9735 49.0734 33.1521 49.3293C34.7013 49.5112 37.5732 49.5362 38.8004 50.5238C38.8508 50.5647 38.9166 50.6077 38.9876 50.6487C38.9495 50.8486 38.9156 51.0515 38.8693 51.2304ZM39.1604 49.4203C37.4539 48.4927 35.5859 48.0639 33.5585 47.7731C31.5001 47.4762 29.2875 47.0854 27.1932 47.3243C27.4329 46.7016 27.7075 46.0959 27.9945 45.5241C28.0027 45.5081 28.0017 45.4891 28.0069 45.4731C30.4242 43.4501 34.4719 42.1267 37.2389 43.8669C38.9568 44.9494 39.324 47.3622 39.1604 49.4203Z" fill="#E52E68"/>
<path d="M29.7983 50.066C29.6708 49.9331 29.5288 49.8082 29.3684 49.6992C28.1988 48.9026 26.6888 49.4513 26.2002 50.6867C25.8751 51.5124 26.2557 52.274 26.9151 52.7268C26.9274 52.7448 26.9315 52.7638 26.9428 52.7818C27.702 53.7693 28.8757 53.6993 29.7665 52.9067C30.217 52.5069 30.4155 52.0321 30.4289 51.5613C30.4618 51.3994 30.4752 51.2275 30.4608 51.0476C30.4269 50.6148 30.18 50.238 29.7983 50.066ZM28.782 51.7803C27.3378 51.7803 27.3378 49.6033 28.782 49.6033C30.2263 49.6033 30.2263 51.7803 28.782 51.7803Z" fill="#E52E68"/>
<path d="M20.8169 49.806C20.7037 49.6871 20.5772 49.5741 20.4332 49.4762C19.3881 48.7655 18.0386 49.2553 17.6024 50.3608C17.3103 51.0964 17.6518 51.7781 18.2412 52.1839C18.2515 52.1979 18.2556 52.2169 18.2649 52.2309C18.9438 53.1135 19.993 53.0505 20.7881 52.3419C21.1924 51.985 21.3682 51.5632 21.3806 51.1414C21.4084 50.9965 21.4207 50.8425 21.4084 50.6826C21.3785 50.2968 21.1584 49.957 20.8169 49.806ZM19.9086 51.3373C18.6177 51.3373 18.6177 49.3932 19.9086 49.3932C21.1995 49.3932 21.1995 51.3373 19.9086 51.3373Z" fill="#E52E68"/>
<path d="M94.7585 76.1618C91.3588 76.2457 88.7204 77.0674 88.2287 73.1942C87.9355 70.8793 88.8654 68.8702 88.4005 66.5493C88.0518 64.8122 86.1951 63.4048 84.3404 62.3403C84.1419 61.9945 83.6461 61.5147 83.1534 61.2648C82.1834 60.775 81.2813 60.3472 80.2218 60.0504C77.1945 59.2028 81.3893 57.8674 82.4961 57.2277C85.2014 55.6654 85.7517 53.5594 84.3106 51.0856C79.4678 42.7775 89.7593 41.78 95.6472 40.9424C96.1976 40.8644 93.9037 39.3161 93.3894 39.2612C88.5579 38.7524 83.9259 37.7869 79.0604 38.5475C75.885 39.0443 70.8571 41.739 71.0895 45.5092C71.2171 47.5922 72.0523 49.5073 72.3702 51.5704C73.3649 58.0343 66.8155 57.9954 62.0457 55.1567C63.1628 52.7668 65.861 51.7423 66.3095 48.8257C66.6088 46.8776 65.0319 46.069 65.7056 43.804C66.0513 42.6446 68.0643 41.4151 67.9501 40.1497C67.7742 38.1967 66.905 37.3111 65.1851 36.3455C61.589 34.3275 64.9763 32.6183 63.3809 30.3104C61.8822 28.1414 58.3591 27.4897 58.9063 24.0013C59.2417 21.8633 59.1419 20.7759 57.4405 19.3895C54.6252 17.0926 50.8511 16.7058 51.6555 11.7171C52.2531 8.00987 55.8482 4.86534 58.3221 2.08964C58.4476 2.01767 58.5762 1.94771 58.7006 1.87475C58.8055 1.81377 58.8086 1.70681 58.7469 1.57588C58.9043 1.08511 56.5518 -0.452162 56.055 0.129565C55.9429 0.261502 55.8225 0.398436 55.7001 0.536371C48.442 4.76338 42.4152 8.32572 37.3049 15.1455C34.506 18.8808 32.1906 22.9458 30.0572 27.0659C28.112 30.8231 27.1543 35.1201 24.3811 38.3716C14.7346 40.0898 9.57596 51.3455 9.90204 59.9275C7.9466 60.0734 6.02612 60.4152 4.18589 60.9879C3.71786 60.85 3.36092 60.824 3.40515 60.9859C4.91108 66.4174 7.60507 71.5879 11.5273 75.6021C11.5108 75.614 11.4923 75.6221 11.4779 75.6351C8.58536 78.8226 4.19208 79.1824 0.144385 79.928C-0.297929 80.01 0.409765 80.6637 0.48897 80.7286C5.66508 84.8357 14.7233 84.8967 20.2635 81.4943C20.6143 81.6352 20.9609 81.7831 21.3209 81.9101C30.5674 85.1586 40.8116 84.5708 49.1292 79.993C49.4357 80.5587 49.8224 81.0885 50.3357 81.5642C51.6184 82.7527 52.9896 83.7972 54.6683 84.4199C61.302 86.8838 67.5747 85.9762 73.5716 82.4618C74.2043 82.091 71.7664 80.6037 71.1204 80.8026C64.1431 82.9716 61.4358 76.8065 56.7719 74.0028C60.7785 69.6529 63.6669 64.4293 69.5178 62.1354C74.0746 60.3492 71.8919 65.191 71.0823 67.7578C70.3119 70.2036 71.1163 72.3926 72.3795 74.5126C76.9754 82.2319 90.7838 82.6807 97.1274 77.7591C97.6191 77.3812 95.1308 76.1518 94.7585 76.1618ZM31.2103 31.6997C32.9764 27.4417 35.4699 23.3816 37.9828 19.5105C40.4053 15.7772 43.1661 12.1739 46.6018 9.27028C47.9318 8.14581 49.3883 7.16127 50.9035 6.2447C48.7094 9.39522 47.4113 12.9016 50.0878 15.8891C51.4981 17.4644 52.8909 18.7178 54.9451 19.4325C58.0289 20.506 54.8885 24.1033 56.8841 26.3272C58.7222 28.3773 61.3946 28.8851 60.3629 32.3974C59.8218 34.2385 61.2197 35.422 62.7246 36.2666C66.9215 38.6205 62.3163 41.6271 62.8974 44.9945C63.2945 47.2884 63.8623 48.5688 62.1928 50.4589C61.2115 51.5694 60.2282 52.1671 59.5791 53.2506C58.1986 51.9092 57.0445 50.4589 55.8965 49.0256C56.0838 49.0845 56.271 49.1255 56.453 49.1255C57.17 49.1295 57.7944 48.9206 58.4527 48.6608C59.5143 48.2449 60.5357 48.071 61.6816 48.2569C62.2216 48.3449 62.4263 48.114 62.02 47.6892C61.5623 47.2074 60.8052 46.7386 60.1304 46.6287C59.1326 46.4668 58.1925 46.4358 57.1947 46.6127C56.2915 46.7726 55.4964 47.3414 54.5768 47.4113C53.7467 46.4198 52.8826 45.4552 51.8982 44.5707C53.4648 43.5841 54.9101 42.4337 56.522 41.5151C58.716 40.2647 61.2629 40.1348 63.7399 40.1298C64.6358 40.1278 62.3873 38.4266 61.6724 38.4286C59.4762 38.4336 57.4714 38.5775 55.3761 39.2622C53.2344 39.9618 51.4703 41.6 49.6085 42.8065C49.591 42.7955 49.5766 42.7825 49.5591 42.7715C48.1159 41.8669 46.5771 41.1013 44.9765 40.4556C49.5087 37.8638 51.46 30.9351 57.3953 30.6352C58.319 30.5883 56.0406 28.898 55.3298 28.934C48.7897 29.2639 47.1151 36.7284 41.9369 39.1172C41.8371 39.1632 41.834 39.2612 41.8988 39.3871C40.5256 38.9823 39.1226 38.6524 37.702 38.4075C43.9397 34.8762 43.486 24.8309 50.9879 22.1192C51.4806 21.9413 49.3225 20.1761 48.5366 20.46C40.2695 23.4486 41.5656 35.354 33.1935 37.6189C33.0968 37.6449 33.1266 37.7529 33.2305 37.8978C31.6371 37.8089 30.0428 37.7979 28.47 37.8978C29.6004 35.9707 30.3123 33.8667 31.2103 31.6997ZM9.98227 82.159C8.21816 82.2249 5.40381 82.177 3.46894 81.4323C7.16072 80.7866 10.9615 80.2299 13.6946 77.5981C14.8354 78.5357 16.0666 79.3743 17.3792 80.1129C15.1152 81.4263 12.6866 82.055 9.98227 82.159ZM67.5263 82.5898C63.7954 84.0971 60.0584 84.4719 55.6528 83.5953C51.5907 82.7867 51.7213 80.8386 51.4086 78.5977C51.4549 78.5667 50.6382 75.9019 50.5919 75.9389C49.6898 74.2967 48.5716 73.536 50.0796 73.3811C50.346 73.52 50.5877 73.611 50.7503 73.613C51.4775 73.623 54.1715 73.9958 54.7928 74.3277C55.0387 74.4586 55.7998 74.9953 55.807 74.9874C59.9175 77.1663 63.1258 81.2914 67.5263 82.5898ZM73.8298 73.2952C72.1336 69.5019 76.4127 65.7007 74.3215 61.9505C72.1089 57.9854 65.8249 60.6701 63.2822 62.4363C59.5091 65.058 56.7555 69.1931 53.8825 72.6954C52.7232 72.3226 51.531 72.1017 50.2936 71.9968C49.9654 71.8058 49.6538 71.6689 49.4573 71.6629C48.3001 71.6199 47.1429 71.579 45.9856 71.538C45.4909 71.52 45.7048 71.9228 45.9044 72.1427C47.3414 73.7219 47.6993 75.7 48.2229 77.5811C45.1905 79.4433 41.7466 80.7376 38.3655 81.5772C32.5012 83.0336 25.8181 82.6257 20.174 80.2459C19.6648 79.853 18.9736 79.5002 18.5426 79.4942C17.119 78.7656 15.7776 77.907 14.5577 76.9034C10.2261 73.3421 7.77482 67.9547 6.27198 62.7541C8.0505 62.1664 9.84442 61.8205 11.6425 61.6566C12.1846 61.8405 12.6413 61.8795 12.6259 61.6337C12.6249 61.6197 12.6259 61.6087 12.6248 61.5947C20.4754 61.1729 28.4021 64.1394 35.7661 66.5023C41.3598 68.2965 47.5358 65.3139 46.4845 58.9689C46.3518 58.1663 43.6959 57.2257 43.7802 57.7375C44.8325 64.0895 38.7368 66.3034 33.3169 64.5663C30.0849 63.5277 27.0535 62.1724 23.73 61.3628C20.1833 60.5002 16.3629 59.8755 12.5919 59.8455C12.7524 51.4954 17.6179 43.3872 25.5373 40.6225C25.9077 40.7544 26.2389 40.7834 26.4107 40.6105C26.5279 40.4926 26.6256 40.3676 26.7357 40.2477C28.0791 39.8849 29.4997 39.67 30.9943 39.629C39.4167 39.3961 47.9133 40.9823 53.4494 47.9001C55.2917 50.204 57.0198 52.373 59.1337 54.2861C59.109 54.3661 59.0771 54.435 59.0555 54.52C58.8847 55.1817 60.6694 56.0503 61.4142 56.1172C61.4769 56.1602 61.5325 56.2072 61.5952 56.2522C66.0307 59.3307 74.3318 61.3338 75.1207 53.9852C75.3357 51.9942 74.4017 49.9012 73.873 48.0231C72.9894 44.8915 75.9426 42.5536 78.3311 41.2742C81.3913 39.636 84.9206 39.631 88.4252 40.0158C83.3046 41.0033 78.326 43.0404 81.1373 49.1845C82.0373 51.1526 83.2141 51.6873 81.7699 53.9383C80.9933 55.1487 79.5295 55.9573 78.2221 56.4981C76.8242 57.0778 75.8449 57.3417 76.0002 58.9309C76.1288 60.2543 79.2672 61.2348 81.4386 61.8475C81.5754 61.9475 81.7174 62.0364 81.8594 62.1054C89.102 65.6428 83.1699 71.6069 87.126 76.3837C88.1042 77.5631 89.5731 77.9979 91.1511 78.1129C85.0831 80.5697 76.6709 79.6482 73.8298 73.2952Z" fill="#E52E68"/>
<path d="M79.654 42.0089C80.1796 41.6161 79.4493 40.9094 78.9308 41.2972C77.2912 42.5206 75.4026 43.6001 74.7659 45.6172C74.4964 46.4688 74.7793 47.4563 75.0179 48.2679C75.8305 51.0306 77.1215 52.8478 74.9449 55.5395C74.5406 56.0393 75.2596 56.7579 75.668 56.2522C77.1924 54.3641 77.5525 52.5629 76.9055 50.241C76.4138 48.4758 75.129 46.9595 76.0815 45.0794C76.745 43.7681 78.5081 42.8635 79.654 42.0089Z" fill="#E52E68"/>
<path d="M79.6597 43.5281C79.8953 42.9274 78.8986 42.6795 78.663 43.2762C78.0654 44.7965 77.1674 45.6691 77.1005 47.3633C77.0018 49.8701 79.5024 51.5543 77.943 54.1471C77.6097 54.7058 78.4994 55.2036 78.8348 54.6469C79.7461 53.1296 79.6361 51.8882 79.0292 50.2619C78.519 48.8936 77.9851 47.7791 78.2433 46.2778C78.4079 45.3303 79.2997 44.4407 79.6597 43.5281Z" fill="#E52E68"/>
<path d="M87.1333 77.4533C85.1388 76.4557 83.5989 75.2963 83.3253 73.0143C83.0836 71.0033 83.7841 68.9223 83.782 66.8982C83.7779 63.146 80.6683 62.1624 77.6194 61.036C77.0002 60.8061 76.7461 61.7756 77.3602 62.0025C80.0727 63.0061 82.4365 63.6058 82.7534 66.9042C82.9303 68.7493 82.311 70.6295 82.273 72.4796C82.2123 75.3432 84.1719 77.0964 86.619 78.3188C87.2063 78.6137 87.7237 77.7481 87.1333 77.4533Z" fill="#E52E68"/>
<path d="M84.4332 77.953C82.627 76.6956 80.2086 76.8206 79.4228 74.4077C78.8344 72.6015 80.0554 70.1887 80.3681 68.3735C80.8114 65.8027 79.4824 64.1295 77.2328 62.9601C76.6496 62.6552 76.1332 63.5208 76.7185 63.8247C81.3432 66.2315 78.2995 70.0117 78.3057 73.8529C78.3108 77.2903 81.729 77.2943 83.9189 78.8176C84.459 79.1934 84.9681 78.3248 84.4332 77.953Z" fill="#E52E68"/>
<path d="M77.1686 65.5198C76.7839 65.0001 75.8879 65.4928 76.2747 66.0136C77.3733 67.4949 75.9311 69.289 75.6205 70.8313C75.3726 72.0577 75.4034 73.3381 75.8396 74.5176C76.0618 75.1193 77.0575 74.8654 76.8322 74.2577C76.1482 72.4046 76.6532 70.6504 77.3548 68.8972C77.829 67.7118 77.9586 66.5853 77.1686 65.5198Z" fill="#E52E68"/>
<path d="M64.506 82.0759C60.3915 79.9009 57.3961 76.2466 53.191 74.2046C52.6006 73.9177 52.0832 74.7803 52.6767 75.0692C56.8777 77.1092 59.8772 80.7655 63.9917 82.9405C64.5739 83.2494 65.0903 82.3848 64.506 82.0759Z" fill="#E52E68"/>
<path d="M62.0627 82.451C60.5156 81.5884 58.9953 80.7038 57.5459 79.6903C55.8867 78.5308 54.6637 76.9106 52.9335 75.8291C52.3749 75.4793 51.8637 76.3469 52.4192 76.6937C53.9796 77.6702 55.0648 79.1186 56.5337 80.1921C58.1281 81.3575 59.8182 82.353 61.5483 83.3156C62.1244 83.6364 62.6387 82.7719 62.0627 82.451Z" fill="#E52E68"/>
<path d="M58.8417 82.3827C57.3975 82.3477 55.6962 81.9789 54.9154 80.6825C54.4011 79.8279 54.2335 78.8284 53.426 78.1607C52.924 77.7449 52.1885 78.4436 52.6925 78.8614C53.7572 79.742 53.7623 81.3152 54.8897 82.1938C55.9883 83.0484 57.4726 83.3493 58.8489 83.3822C59.5114 83.4002 59.5062 82.4007 58.8417 82.3827Z" fill="#E52E68"/>
<path d="M13.847 79.2012C12.1734 80.3807 10.2108 80.7475 8.18439 80.8844C7.52606 80.9294 7.52605 81.9309 8.19055 81.8839C10.3785 81.736 12.5468 81.3452 14.3572 80.0708C14.8901 79.695 14.384 78.8224 13.847 79.2012Z" fill="#E52E68"/>
</svg>
