<svg width="86" height="80" viewBox="0 0 86 80" fill="none" xmlns="http://www.w3.org/2000/svg">
<path d="M37.5705 21.0148C36.7355 19.8728 35.0925 19.3658 33.8275 18.9198C33.3255 18.7428 32.8105 18.5938 32.2915 18.4598C30.0135 17.5808 27.6395 17.0698 25.1025 17.3758C18.7065 18.1478 17.2565 27.6938 15.5905 32.4748C12.8845 40.2438 10.5145 47.9648 7.36652 55.5858C4.25352 63.1258 1.3185 70.7418 0.00250444 78.8278C-0.0334956 79.0478 0.323533 79.2548 0.756533 79.3918C1.17753 79.6068 1.78151 79.8238 1.99951 79.8268C4.62151 79.8718 7.41851 80.1518 9.72751 78.7028C12.0965 77.2148 11.7255 72.7938 11.7005 70.4728C11.6565 66.6308 12.1495 62.8398 13.1375 59.1288C14.5385 53.8578 21.1485 51.9498 26.0075 52.7288C26.4785 52.8028 26.6955 52.7698 26.7475 52.6838C27.2225 52.4538 27.4365 51.7188 26.8395 51.3978C26.1745 51.0408 25.6145 50.9128 24.8655 50.8438C23.2065 50.6978 21.7865 50.6248 20.1695 50.1238C18.5265 49.6158 16.8335 49.0958 15.1245 48.6948C15.1965 48.3258 15.2915 47.9648 15.3785 47.5998C17.1615 48.1548 18.9545 48.6578 20.7855 49.0398C22.9855 49.4988 25.0795 50.3348 27.3175 50.6308C28.2425 50.7538 28.6295 49.3348 27.6915 49.2098C25.6765 48.9418 23.7645 48.2608 21.8015 47.7598C19.7725 47.2428 17.7585 46.7648 15.7565 46.1688C15.8605 45.8148 15.9585 45.4598 16.0705 45.1098C17.8515 45.1248 19.5465 45.8858 21.2245 46.4128C23.4245 47.1048 25.6895 47.6548 27.9515 48.1008C28.8755 48.2818 29.2565 46.8638 28.3255 46.6788C26.0535 46.2318 23.8345 45.6088 21.6015 44.9928C19.9085 44.5278 18.2995 43.7898 16.5605 43.6578C16.7055 43.2468 16.8515 42.8368 17.0015 42.4278C17.7225 42.5138 18.4525 42.8648 19.0795 43.1078C20.0295 43.4758 21.0445 43.6788 22.0345 43.9158C23.0875 44.1668 24.1415 44.3738 25.1865 44.6658C26.3035 44.9768 27.8575 45.0858 28.7745 45.8418C29.5005 46.4398 30.5455 45.4068 29.8155 44.8048C28.1335 43.4178 25.1695 43.0548 23.0815 42.6558C21.6985 42.3908 20.3055 42.0178 18.9925 41.5098C18.5055 41.3208 18.0145 41.1478 17.5165 41.0438C17.6865 40.5888 17.8575 40.1328 18.0245 39.6768C19.4345 39.8968 20.7665 40.7258 22.0555 41.2798C24.3855 42.2798 26.9275 42.6778 29.2665 43.6668C30.1285 44.0318 30.8755 42.7658 30.0055 42.3968C27.5335 41.3518 24.8595 40.8968 22.3995 39.8398C21.1435 39.2998 19.8705 38.5648 18.5225 38.2728C18.5755 38.1158 18.6335 37.9598 18.6865 37.8018C19.3915 37.8928 20.0845 38.3408 20.6925 38.6278C21.4625 38.9948 22.3045 39.1848 23.1285 39.3888C25.5055 39.9748 27.9255 40.3238 30.1855 41.3078C31.0445 41.6828 31.7905 40.4158 30.9245 40.0378C28.5325 38.9958 26.0185 38.5928 23.5035 37.9678C22.1475 37.6308 20.6165 36.6598 19.1305 36.3938C19.1385 36.3698 19.1465 36.3468 19.1525 36.3238C19.2005 36.1598 19.2545 36.0028 19.3025 35.8408C21.1215 36.2218 22.9335 36.6038 24.7065 37.1908C26.7585 37.8698 28.9305 37.9958 30.8965 38.9418C31.7465 39.3508 32.4895 38.0828 31.6355 37.6718C29.9215 36.8478 28.0875 36.5058 26.2455 36.0818C24.0615 35.5808 21.9215 34.9508 19.7335 34.4498C19.8425 34.0998 19.9495 33.7418 20.0615 33.3948C21.9775 33.6058 23.8525 34.3158 25.7235 34.7358C27.8505 35.2148 29.9735 35.4358 31.8975 36.5428C32.7195 37.0158 33.4565 35.7458 32.6355 35.2728C30.6125 34.1078 28.3565 33.7758 26.0985 33.3158C24.2235 32.9338 22.4105 32.2638 20.5235 31.9898C20.5545 31.9008 20.5835 31.8098 20.6125 31.7208C20.7085 31.4978 20.8055 31.2758 20.9015 31.0528C22.0635 31.5138 23.3445 31.5748 24.6375 31.6348C27.7075 31.7768 30.7215 32.6988 33.5845 33.7778C34.4695 34.1118 34.8345 32.6888 33.9575 32.3578C31.4615 31.4178 28.9205 30.7158 26.2865 30.2878C24.7755 30.0418 22.9275 30.3558 21.4655 29.7458C21.6275 29.3728 21.7875 28.9978 21.9505 28.6238C25.9045 29.2398 30.5125 29.2158 33.9525 31.2108C34.7735 31.6868 35.5105 30.4158 34.6915 29.9418C31.1665 27.8968 26.5885 27.8588 22.5485 27.2418C22.6695 26.9578 22.7925 26.6748 22.9145 26.3908C24.9885 26.6208 26.9955 27.1528 29.0425 27.5728C30.9235 27.9598 32.8265 28.0418 34.5375 29.0068C35.3635 29.4728 36.1005 28.2038 35.2765 27.7368C33.4625 26.7118 31.4365 26.5098 29.4165 26.1528C27.4295 25.8008 25.5015 25.2768 23.5125 24.9948C23.6135 24.7588 23.7165 24.5238 23.8165 24.2868C27.8045 24.5898 31.6235 26.1568 35.5555 26.7618C36.4825 26.9048 36.8655 25.4868 35.9295 25.3418C32.0595 24.7468 28.3065 23.2608 24.3955 22.8578C24.5425 22.4928 24.6955 22.1298 24.8395 21.7648C25.2805 21.9328 25.7435 22.0358 26.2435 22.0898C27.5695 22.2328 28.6915 22.5478 29.9145 23.0678C31.8415 23.8878 34.0705 23.5588 35.9145 24.6058C36.7395 25.0748 37.4765 23.8038 36.6535 23.3358C34.8955 22.3368 32.8665 22.3918 30.9525 21.8878C29.9245 21.6178 28.9875 21.0938 27.9445 20.8408C27.0745 20.6308 26.1895 20.6858 25.3695 20.3858C25.4315 20.2248 25.4975 20.0668 25.5565 19.9058C25.5765 19.8488 25.5895 19.7958 25.5975 19.7428C25.7155 19.5638 25.8325 19.3818 25.9525 19.2038C27.9455 19.3708 29.8725 20.0508 31.8435 20.4148C33.5975 20.7368 34.9765 21.9528 36.6445 22.2998C36.8145 22.4058 37.0195 22.4258 37.2215 22.3778C37.4095 22.3668 37.5635 22.2738 37.6715 22.1338C37.7005 22.0988 37.7245 22.0638 37.7455 22.0238C37.7475 22.0168 37.7515 22.0088 37.7545 22.0028C37.8045 21.9058 37.8305 21.8028 37.8355 21.6928C37.8375 21.6688 37.8395 21.6478 37.8395 21.6238C37.8385 21.5808 37.8355 21.5408 37.8265 21.5008C37.8135 21.4238 37.7925 21.3488 37.7535 21.2818C37.7455 21.2668 37.7325 21.2538 37.7225 21.2378C37.7945 21.1938 37.7595 21.1228 37.5705 21.0148Z" fill="#E52E68"/>
<path d="M69.9356 62.6288C69.3006 57.7748 65.5786 54.6538 61.0236 54.0948C60.6586 53.7408 60.1716 53.5408 59.7446 53.7768C59.6766 53.8148 59.6046 53.8598 59.5336 53.9008C58.6606 49.4578 57.8926 45.1548 57.6236 40.5878C57.3966 36.7838 56.9346 32.9438 55.1986 29.4948C55.1936 29.4878 55.1886 29.4818 55.1856 29.4738C55.1836 29.3738 55.1586 29.2588 55.1056 29.1318C53.1956 24.2598 50.3236 19.7958 47.7036 15.2818C44.9576 10.5548 42.5686 5.52381 40.2866 0.554811C40.0096 -0.049189 39.2946 -0.150172 39.0686 0.203828C39.0666 0.203828 39.0626 0.203828 39.0626 0.203828C38.9966 0.186828 38.9396 0.186812 38.9006 0.218812C38.8196 0.283812 38.7066 0.436821 38.6036 0.452821C38.3416 0.494821 38.7406 1.22983 39.1366 1.59583C39.3176 1.93983 39.4906 2.28382 39.6686 2.62882C40.2356 3.88382 40.8256 5.13483 41.4396 6.37683C43.8556 12.6528 45.8455 19.0928 48.4855 25.2798C48.8915 26.2338 49.2876 27.1928 49.6776 28.1548C49.7116 28.7718 49.8266 29.2458 50.2426 29.9118C50.3946 30.1578 50.5346 30.4078 50.6716 30.6588C51.6486 33.1628 52.5656 35.6908 53.4056 38.2448C53.4116 38.3088 53.4076 38.3688 53.4306 38.4478C53.7646 39.6108 54.1416 40.7498 54.5476 41.8808C55.7216 45.8168 56.7126 49.8068 57.4436 53.8478C57.4126 53.9198 57.3906 54.0108 57.3896 54.1248C57.3846 54.3398 57.3806 54.5548 57.3766 54.7708C57.3746 54.9128 57.4546 55.0738 57.5576 55.2268C54.9006 57.3098 52.6826 60.3938 53.3416 63.8268C53.9866 67.1718 56.8686 70.1228 60.2326 70.8548C60.2076 70.9228 60.1836 70.9928 60.1806 71.0888C60.1426 72.3708 59.0396 75.3248 60.8746 75.9188C62.8086 76.5478 61.6886 71.9518 61.6796 71.1318C61.6796 71.1028 61.6656 71.0778 61.6616 71.0488C61.6596 71.0408 61.6616 71.0318 61.6596 71.0228C62.0616 71.0328 62.4666 71.0198 62.8706 70.9578C66.8826 70.3508 70.4996 66.9408 69.9356 62.6288ZM61.4296 68.7008C57.8596 68.9258 54.7676 65.6958 55.5036 62.1928C56.0386 59.6358 58.2376 57.6628 60.4246 56.3218C64.3046 56.4328 67.8106 58.5538 67.9096 62.8448C67.9926 66.2048 64.4116 68.5128 61.4296 68.7008Z" fill="#E52E68"/>
<path d="M74.0987 59.8008C69.9147 57.2638 68.5597 52.5988 69.8837 48.2038C69.7077 47.7248 69.7227 47.2008 70.1087 46.9068C70.1737 46.8568 70.2417 46.8099 70.3077 46.7609C66.5927 44.1699 62.9657 41.7338 58.8957 39.6438C55.5037 37.9028 52.1787 35.9289 49.7237 32.9509C49.7177 32.9439 49.7137 32.9378 49.7077 32.9308C49.6177 32.8878 49.5217 32.8188 49.4267 32.7208C45.7407 29.0078 42.8137 24.5778 39.7387 20.3608C36.5197 15.9408 32.8797 11.7268 29.2547 7.63484C28.8117 7.13684 29.0107 6.44284 29.4247 6.37584C29.4267 6.37484 29.4267 6.37184 29.4287 6.37084C29.4387 6.30684 29.4617 6.25384 29.5067 6.22884C29.5977 6.18284 29.7817 6.13983 29.8407 6.05083C29.9847 5.82783 30.4967 6.48985 30.6707 7.00185C30.9117 7.30485 31.1567 7.60383 31.4007 7.90483C32.3187 8.93183 33.2287 9.97185 34.1177 11.0369C38.8857 15.7799 43.9747 20.1978 48.5727 25.1078C49.2807 25.8648 50.0007 26.6128 50.7227 27.3578C51.2737 27.6368 51.6607 27.9358 52.1017 28.5828C52.2657 28.8208 52.4377 29.0498 52.6157 29.2768C54.5107 31.1778 56.4557 33.0369 58.4517 34.8389C58.5117 34.8689 58.5637 34.8918 58.6297 34.9448C59.5567 35.7178 60.4477 36.5228 61.3177 37.3488C64.4457 40.0118 67.6997 42.5268 71.1017 44.8278C71.1797 44.8268 71.2737 44.8448 71.3767 44.8888C71.5757 44.9728 71.7747 45.0548 71.9717 45.1388C72.1017 45.1938 72.2187 45.3308 72.3147 45.4888C75.2957 43.8968 79.0097 43.1118 81.8867 45.0988C85.4047 47.5318 86.9437 52.9508 84.5687 56.6948C82.3987 60.1218 77.8177 62.0548 74.0987 59.8008ZM83.0877 54.4668C84.7317 51.2898 83.0247 47.1568 79.5217 46.4178C76.9637 45.8778 74.2747 47.0949 72.1637 48.5539C70.7007 52.1509 71.2297 56.2128 75.1167 58.0348C78.1557 59.4638 81.7147 57.1178 83.0877 54.4668Z" fill="#E52E68"/>
<path d="M54.1777 35.373C55.0288 35.373 55.7187 34.6831 55.7187 33.832C55.7187 32.9809 55.0288 32.291 54.1777 32.291C53.3267 32.291 52.6367 32.9809 52.6367 33.832C52.6367 34.6831 53.3267 35.373 54.1777 35.373Z" fill="white"/>
</svg>
