<svg width="95" height="86" viewBox="0 0 95 86" fill="none" xmlns="http://www.w3.org/2000/svg">
<path d="M24.5281 45.7276C24.4261 45.6776 24.3311 45.6356 24.2471 45.6136C19.2501 44.2856 14.4031 47.2086 15.6081 52.8436C16.0881 55.0986 17.9451 56.6416 19.9341 57.5726C22.4121 58.7316 24.5081 57.8476 26.4951 56.3696C27.4291 57.3786 28.6171 58.2626 30.0721 58.9716C34.7371 61.2436 39.6531 59.1906 41.4431 54.4356C45.2431 44.3486 30.6951 38.2876 24.5281 45.7276ZM24.4251 54.1516C23.2221 55.1106 22.0321 56.0676 20.4481 56.2376C18.5091 56.4466 18.2651 53.4126 18.2981 52.1126C18.3101 51.6696 18.3781 51.2486 18.4911 50.8516C18.5281 50.8476 18.5621 50.8376 18.5971 50.8306C18.6001 50.8156 18.5961 50.8036 18.6011 50.7886C18.6201 50.7346 18.6371 50.6826 18.6551 50.6286C18.6611 50.5736 18.6681 50.5186 18.6931 50.4606C18.7211 50.4056 18.7491 50.3506 18.7771 50.2946C18.7781 50.2916 18.7811 50.2906 18.7821 50.2876C18.8701 50.1086 18.9711 49.9396 19.0831 49.7796C19.1061 49.7426 19.1301 49.7066 19.1521 49.6696C19.1531 49.6696 19.1531 49.6696 19.1531 49.6696C19.3151 49.4326 19.4931 49.2086 19.6881 48.9846C19.6911 48.9806 19.6961 48.9806 19.6991 48.9766C19.9131 48.7216 20.1511 48.4996 20.4131 48.3086C20.4241 48.2976 20.4271 48.2866 20.4381 48.2766C20.4721 48.2486 20.5081 48.2266 20.5421 48.2006C20.5411 48.1996 20.5411 48.1996 20.5401 48.1986C20.6021 48.1516 20.6631 48.1056 20.7241 48.0596C20.6651 48.0606 20.6071 48.0576 20.5471 48.0596C21.6771 47.3016 23.1031 46.9546 24.5301 47.1606C24.4041 47.5946 24.3131 48.0226 24.2411 48.4476C24.2091 48.4396 24.1771 48.4346 24.1451 48.4266C24.2191 48.9806 24.2781 49.7606 24.0961 50.3596C24.1141 51.6766 24.3851 52.9326 24.9341 54.0836C24.7201 54.0456 24.5381 54.0606 24.4251 54.1516ZM39.0691 50.4416C39.0471 50.4286 39.0231 50.4206 39.0011 50.4096V50.5056C39.0011 50.5416 38.9871 50.5686 38.9811 50.6016C38.9621 50.9576 38.9271 51.3096 38.8881 51.6646C38.8941 51.6676 38.8971 51.6706 38.9021 51.6746C38.8941 51.7186 38.8841 51.7596 38.8771 51.8036C38.8681 51.8736 38.8681 51.9436 38.8581 52.0146C38.8531 52.0486 38.8301 52.0596 38.8201 52.0886C38.8081 52.1436 38.7991 52.2036 38.7871 52.2546C38.1651 54.7776 36.3711 56.8576 33.9451 57.7496C30.6231 58.9726 27.6851 56.4656 26.9031 53.3316C26.7231 52.6136 26.6981 51.8826 26.7631 51.1546C26.8081 51.1566 26.8391 51.1356 26.8801 51.1326C26.8991 50.9656 26.9181 50.8076 26.9411 50.6506C26.9231 50.5806 26.9191 50.5026 26.9351 50.4156C27.0291 49.9306 27.1701 49.3196 27.4101 48.7756C27.3991 48.7046 27.4001 48.6276 27.4351 48.5406C27.4611 48.4746 27.4891 48.4066 27.5151 48.3396C27.4891 48.3426 27.4611 48.3436 27.4351 48.3466C27.6681 47.7236 27.9351 47.1176 28.2141 46.5456C28.2221 46.5296 28.2211 46.5116 28.2261 46.4946C30.5761 44.4716 34.5111 43.1466 37.2011 44.8886C38.8711 45.9686 39.2281 48.3836 39.0691 50.4416Z" fill="#E52E68"/>
<path d="M34.8394 49.9625C34.7154 49.8295 34.5774 49.7035 34.4214 49.5945C33.2844 48.7985 31.8164 49.3485 31.3414 50.5845C31.0254 51.4085 31.3954 52.1725 32.0364 52.6255C32.0484 52.6435 32.0524 52.6625 32.0634 52.6785C32.8014 53.6685 33.9424 53.5975 34.8084 52.8045C35.2464 52.4035 35.4394 51.9305 35.4524 51.4575C35.4844 51.2965 35.4974 51.1255 35.4834 50.9455C35.4504 50.5125 35.2104 50.1335 34.8394 49.9625ZM33.8514 51.6775C32.4474 51.6775 32.4474 49.5005 33.8514 49.5005C35.2554 49.5005 35.2554 51.6775 33.8514 51.6775Z" fill="#E52E68"/>
<path d="M23.5252 50.4528C23.4152 50.3338 23.2922 50.2228 23.1522 50.1248C22.1362 49.4138 20.8242 49.9038 20.4002 51.0078C20.1162 51.7458 20.4482 52.4278 21.0212 52.8318C21.0312 52.8478 21.0352 52.8648 21.0442 52.8808C21.7042 53.7638 22.7242 53.7008 23.4972 52.9918C23.8902 52.6338 24.0612 52.2108 24.0732 51.7888C24.1002 51.6438 24.1122 51.4918 24.1002 51.3318C24.0712 50.9448 23.8572 50.6048 23.5252 50.4528ZM22.6422 51.9848C21.3872 51.9848 21.3872 50.0399 22.6422 50.0399C23.8972 50.0399 23.8972 51.9848 22.6422 51.9848Z" fill="#E52E68"/>
<path d="M92.1203 76.1956C88.8153 76.2806 86.2504 77.1016 85.7724 73.2276C85.4874 70.9106 86.3913 68.9006 85.9393 66.5796C85.6003 64.8406 83.7954 63.4336 81.9924 62.3676C81.7994 62.0226 81.3174 61.5426 80.8384 61.2926C79.8954 60.8016 79.0184 60.3736 77.9884 60.0776C75.0454 59.2286 79.1234 57.8926 80.1994 57.2536C82.8294 55.6906 83.3644 53.5836 81.9634 51.1076C77.2554 42.7956 87.2604 41.7976 92.9844 40.9606C93.5194 40.8826 91.2894 39.3336 90.7894 39.2786C86.0924 38.7696 81.5894 37.8036 76.8594 38.5646C73.7724 39.0616 68.8844 41.7576 69.1104 45.5306C69.2344 47.6136 70.0464 49.5296 70.3554 51.5936C71.3224 58.0616 64.9553 58.0216 60.3183 55.1826C61.4043 52.7916 64.0274 51.7656 64.4634 48.8486C64.7544 46.8996 63.2214 46.0896 63.8764 43.8246C64.2124 42.6646 66.1694 41.4346 66.0584 40.1686C65.8874 38.2146 65.0423 37.3286 63.3703 36.3626C59.8743 34.3436 63.1673 32.6336 61.6163 30.3246C60.1593 28.1546 56.7343 27.5026 57.2663 24.0126C57.5923 21.8736 57.4954 20.7856 55.8414 19.3986C53.1044 17.1006 49.4354 16.7136 50.2174 11.7226C50.7984 8.01363 54.2933 4.86764 56.6983 2.09064C56.8203 2.01864 56.9454 1.94864 57.0664 1.87564C57.1684 1.81464 57.1713 1.70763 57.1113 1.57663C57.2643 1.08563 54.9774 -0.452376 54.4944 0.129624C54.3854 0.261624 54.2684 0.398622 54.1494 0.536622C47.0934 4.76562 41.2343 8.32962 36.2663 15.1526C33.5453 18.8896 31.2944 22.9566 29.2204 27.0786C27.3294 30.8376 26.3983 35.1366 23.7023 38.3896C14.3243 40.1086 9.30936 51.3696 9.62636 59.9556C7.72536 60.1016 5.85835 60.4436 4.06935 61.0166C3.61435 60.8776 3.26735 60.8526 3.31035 61.0136C4.77435 66.4476 7.39334 71.6216 11.2063 75.6366C11.1903 75.6496 11.1723 75.6566 11.1583 75.6706C8.34634 78.8596 4.07537 79.2186 0.140365 79.9656C-0.289635 80.0476 0.398357 80.7016 0.475357 80.7656C5.50736 84.8756 14.3134 84.9366 19.6994 81.5316C20.0404 81.6736 20.3773 81.8216 20.7273 81.9486C29.7163 85.1976 39.6754 84.6096 47.7614 80.0306C48.0594 80.5956 48.4353 81.1256 48.9343 81.6016C50.1813 82.7906 51.5143 83.8366 53.1463 84.4596C59.5953 86.9236 65.6934 86.0166 71.5234 82.5006C72.1384 82.1296 69.7684 80.6406 69.1404 80.8406C62.3574 83.0096 59.7254 76.8426 55.1914 74.0366C59.0864 69.6846 61.8944 64.4596 67.5824 62.1636C72.0124 60.3766 69.8903 65.2206 69.1033 67.7886C68.3543 70.2366 69.1364 72.4266 70.3644 74.5476C74.8324 82.2706 88.2564 82.7196 94.4234 77.7956C94.9014 77.4166 92.4823 76.1856 92.1203 76.1956ZM30.3414 31.7126C32.0584 27.4526 34.4824 23.3906 36.9254 19.5176C39.2804 15.7826 41.9644 12.1776 45.3044 9.27261C46.5974 8.14761 48.0133 7.16264 49.4863 6.24564C47.3533 9.39764 46.0913 12.9056 48.6933 15.8946C50.0643 17.4706 51.4184 18.7246 53.4154 19.4396C56.4134 20.5136 53.3604 24.1126 55.3004 26.3376C57.0874 28.3886 59.6854 28.8966 58.6824 32.4106C58.1564 34.2526 59.5153 35.4366 60.9783 36.2816C65.0583 38.6366 60.5813 41.6446 61.1463 45.0126C61.5323 47.3086 62.0843 48.5886 60.4613 50.4806C59.5073 51.5916 58.5514 52.1896 57.9204 53.2736C56.5784 51.9306 55.4563 50.4806 54.3403 49.0456C54.5223 49.1056 54.7044 49.1456 54.8814 49.1466C55.5784 49.1496 56.1854 48.9406 56.8254 48.6816C57.8574 48.2646 58.8503 48.0906 59.9643 48.2776C60.4893 48.3656 60.6884 48.1346 60.2934 47.7086C59.8484 47.2266 59.1123 46.7576 58.4563 46.6476C57.4863 46.4856 56.5723 46.4556 55.6023 46.6316C54.7243 46.7916 53.9514 47.3606 53.0574 47.4306C52.2504 46.4386 51.4104 45.4746 50.4534 44.5896C51.9764 43.6026 53.3813 42.4506 54.9483 41.5316C57.0813 40.2806 59.5573 40.1506 61.9653 40.1456C62.8363 40.1436 60.6504 38.4416 59.9554 38.4436C57.8204 38.4486 55.8714 38.5926 53.8344 39.2776C51.7524 39.9776 50.0373 41.6166 48.2273 42.8236C48.2103 42.8126 48.1964 42.7996 48.1794 42.7886C46.7764 41.8836 45.2803 41.1176 43.7243 40.4716C48.1304 37.8786 50.0273 30.9466 55.7973 30.6466C56.6953 30.5996 54.4804 28.9086 53.7894 28.9446C47.4314 29.2746 45.8034 36.7426 40.7694 39.1326C40.6724 39.1786 40.6693 39.2766 40.7323 39.4026C39.3973 38.9976 38.0334 38.6676 36.6524 38.4226C42.7164 34.8896 42.2753 24.8396 49.5683 22.1266C50.0473 21.9486 47.9493 20.1826 47.1853 20.4666C39.1483 23.4566 40.4084 35.3676 32.2694 37.6336C32.1754 37.6596 32.2043 37.7676 32.3053 37.9126C30.7563 37.8236 29.2064 37.8126 27.6774 37.9126C28.7764 35.9866 29.4684 33.8806 30.3414 31.7126ZM9.70436 82.1956C7.98936 82.2616 5.25336 82.2136 3.37236 81.4696C6.96136 80.8226 10.6564 80.2666 13.3134 77.6336C14.4224 78.5716 15.6193 79.4106 16.8953 80.1496C14.6943 81.4626 12.3334 82.0926 9.70436 82.1956ZM65.6463 82.6276C62.0193 84.1366 58.3863 84.5116 54.1033 83.6346C50.1543 82.8256 50.2813 80.8756 49.9773 78.6346C50.0223 78.6036 49.2284 75.9376 49.1834 75.9746C48.3064 74.3306 47.2193 73.5706 48.6853 73.4156C48.9443 73.5536 49.1794 73.6456 49.3374 73.6476C50.0444 73.6566 52.6633 74.0306 53.2673 74.3616C53.5063 74.4926 54.2463 75.0296 54.2533 75.0226C58.2493 77.2016 61.3683 81.3296 65.6463 82.6276ZM71.7744 73.3296C70.1254 69.5346 74.2854 65.7306 72.2524 61.9796C70.1014 58.0116 63.9923 60.6976 61.5203 62.4656C57.8523 65.0886 55.1754 69.2256 52.3824 72.7286C51.2554 72.3556 50.0964 72.1356 48.8934 72.0296C48.5744 71.8396 48.2714 71.7026 48.0804 71.6956C46.9554 71.6536 45.8304 71.6126 44.7054 71.5706C44.2244 71.5526 44.4324 71.9566 44.6264 72.1756C46.0234 73.7556 46.3714 75.7356 46.8804 77.6166C43.9324 79.4796 40.5843 80.7756 37.2973 81.6146C31.5963 83.0716 25.0994 82.6646 19.6124 80.2836C19.1174 79.8896 18.4454 79.5366 18.0264 79.5306C16.6424 78.8026 15.3384 77.9426 14.1524 76.9386C9.94136 73.3756 7.55837 67.9866 6.09737 62.7836C7.82637 62.1956 9.57034 61.8486 11.3183 61.6846C11.8453 61.8686 12.2894 61.9076 12.2744 61.6616C12.2734 61.6486 12.2744 61.6366 12.2734 61.6236C19.9054 61.2016 27.6113 64.1686 34.7703 66.5326C40.2083 68.3286 46.2124 65.3446 45.1904 58.9956C45.0614 58.1936 42.4794 57.2526 42.5614 57.7636C43.5844 64.1186 37.6584 66.3346 32.3894 64.5956C29.2474 63.5576 26.3004 62.2006 23.0694 61.3916C19.6214 60.5276 15.9073 59.9026 12.2413 59.8726C12.3973 51.5196 17.1274 43.4066 24.8264 40.6416C25.1864 40.7736 25.5084 40.8026 25.6754 40.6296C25.7894 40.5116 25.8843 40.3866 25.9913 40.2666C27.2973 39.9036 28.6784 39.6886 30.1314 39.6476C38.3194 39.4146 46.5793 41.0016 51.9613 47.9226C53.7523 50.2266 55.4324 52.3966 57.4874 54.3106C57.4634 54.3916 57.4324 54.4596 57.4114 54.5456C57.2454 55.2066 58.9804 56.0756 59.7044 56.1426C59.7654 56.1866 59.8194 56.2336 59.8804 56.2776C64.1924 59.3576 72.2623 61.3626 73.0293 54.0096C73.2383 52.0176 72.3304 49.9236 71.8164 48.0456C70.9574 44.9116 73.8283 42.5726 76.1503 41.2926C79.1253 39.6536 82.5564 39.6486 85.9634 40.0336C80.9854 41.0216 76.1453 43.0596 78.8783 49.2066C79.7533 51.1756 80.8974 51.7116 79.4934 53.9626C78.7384 55.1736 77.3154 55.9826 76.0444 56.5246C74.6854 57.1046 73.7334 57.3676 73.8844 58.9576C74.0094 60.2826 77.0603 61.2636 79.1713 61.8766C79.3043 61.9756 79.4424 62.0646 79.5804 62.1346C86.6214 65.6726 80.8544 71.6406 84.7004 76.4186C85.6514 77.5996 87.0794 78.0346 88.6134 78.1496C82.7144 80.6066 74.5364 79.6846 71.7744 73.3296Z" fill="#E52E68"/>
<path d="M77.4367 42.0278C77.9477 41.6348 77.2377 40.9278 76.7337 41.3158C75.1397 42.5398 73.3037 43.6199 72.6847 45.6379C72.4227 46.4889 72.6977 47.4779 72.9297 48.2889C73.7197 51.0529 74.9747 52.8719 72.8587 55.5649C72.4657 56.0649 73.1647 56.7829 73.5617 56.2769C75.0437 54.3889 75.3937 52.5869 74.7647 50.2629C74.2867 48.4979 73.0377 46.9809 73.9637 45.0989C74.6087 43.7879 76.3227 42.8818 77.4367 42.0278Z" fill="#E52E68"/>
<path d="M77.4439 43.5464C77.6729 42.9454 76.7039 42.6974 76.4749 43.2944C75.8939 44.8144 75.0209 45.6875 74.9559 47.3835C74.8599 49.8905 77.2909 51.5754 75.7749 54.1704C75.4509 54.7284 76.3159 55.2274 76.6419 54.6704C77.5279 53.1514 77.4209 51.9094 76.8309 50.2834C76.3349 48.9134 75.8159 47.7994 76.0669 46.2964C76.2269 45.3494 77.0939 44.4604 77.4439 43.5464Z" fill="#E52E68"/>
<path d="M84.7069 77.4886C82.7679 76.4916 81.2709 75.3316 81.0049 73.0476C80.7699 71.0356 81.4509 68.9546 81.4489 66.9296C81.4449 63.1746 78.4219 62.1916 75.4579 61.0636C74.8559 60.8346 74.6089 61.8036 75.2059 62.0316C77.8429 63.0356 80.1409 63.6356 80.4489 66.9346C80.6209 68.7816 80.0189 70.6616 79.9819 72.5136C79.9229 75.3776 81.8279 77.1316 84.2069 78.3556C84.7779 78.6486 85.2809 77.7836 84.7069 77.4886Z" fill="#E52E68"/>
<path d="M82.0824 77.9886C80.3264 76.7316 77.9754 76.8566 77.2114 74.4426C76.6394 72.6346 77.8264 70.2216 78.1304 68.4056C78.5614 65.8336 77.2694 64.1596 75.0824 62.9886C74.5154 62.6846 74.0134 63.5496 74.5824 63.8546C79.0784 66.2626 76.1194 70.0436 76.1254 73.8866C76.1304 77.3266 79.4534 77.3306 81.5824 78.8546C82.1074 79.2296 82.6024 78.3596 82.0824 77.9886Z" fill="#E52E68"/>
<path d="M75.0196 65.5487C74.6456 65.0287 73.7746 65.5217 74.1506 66.0437C75.2186 67.5257 73.8166 69.3197 73.5146 70.8627C73.2736 72.0907 73.3036 73.3717 73.7276 74.5507C73.9436 75.1537 74.9116 74.8997 74.6926 74.2917C74.0276 72.4377 74.5186 70.6817 75.2006 68.9287C75.6616 67.7437 75.7876 66.6167 75.0196 65.5487Z" fill="#E52E68"/>
<path d="M62.7084 82.1138C58.7084 79.9388 55.7964 76.2818 51.7084 74.2388C51.1344 73.9518 50.6314 74.8157 51.2084 75.1047C55.2924 77.1457 58.2084 80.8037 62.2084 82.9797C62.7744 83.2877 63.2764 82.4218 62.7084 82.1138Z" fill="#E52E68"/>
<path d="M60.3344 82.4888C58.8304 81.6268 57.3524 80.7418 55.9434 79.7278C54.3304 78.5668 53.1414 76.9468 51.4594 75.8638C50.9164 75.5138 50.4194 76.3828 50.9594 76.7298C52.4764 77.7058 53.5314 79.1558 54.9594 80.2298C56.5094 81.3958 58.1524 82.3908 59.8344 83.3548C60.3944 83.6748 60.8944 82.8088 60.3344 82.4888Z" fill="#E52E68"/>
<path d="M57.2049 82.4208C55.8009 82.3858 54.1469 82.0158 53.3879 80.7198C52.8879 79.8648 52.7249 78.8648 51.9399 78.1958C51.4519 77.7798 50.7369 78.4798 51.2269 78.8978C52.2619 79.7788 52.2669 81.3528 53.3629 82.2308C54.4309 83.0868 55.8739 83.3878 57.2119 83.4208C57.8559 83.4378 57.8509 82.4378 57.2049 82.4208Z" fill="#E52E68"/>
<path d="M13.4608 79.2365C11.8338 80.4175 9.92582 80.7835 7.95582 80.9215C7.31582 80.9665 7.31581 81.9675 7.96181 81.9215C10.0888 81.7735 12.1968 81.3815 13.9568 80.1065C14.4748 79.7305 13.9828 78.8585 13.4608 79.2365Z" fill="#E52E68"/>
<path d="M10.2746 46.3475C9.9836 45.4215 8.94161 44.6795 8.10361 44.3005C7.26061 43.9195 6.25262 44.0465 5.39762 44.3005C5.34062 44.3175 5.32962 44.3665 5.33662 44.4315C4.47662 44.7925 3.9596 45.5205 4.3436 46.5645C4.7986 47.8015 6.26761 48.9055 7.55561 49.0815C9.07861 49.2895 10.7816 47.9595 10.2746 46.3475ZM8.68461 46.4195C8.32361 47.2925 7.2276 47.8405 6.3136 47.7155C6.1936 47.6995 5.98562 47.5745 5.94962 47.5865C5.83562 47.4095 5.78762 47.1815 5.77762 46.9825C5.73662 46.1255 6.63161 45.7395 7.33161 45.6055C7.39661 45.5925 7.42262 45.5565 7.43262 45.5135C7.74862 45.4545 8.06862 45.4175 8.38962 45.4405C8.50562 45.4515 8.62161 45.4705 8.73661 45.4965C8.74661 45.5005 8.75061 45.5015 8.75861 45.5045C8.87761 45.7925 8.79661 46.1465 8.68461 46.4195Z" fill="#E52E68"/>
<path d="M8.98266 35.6408C8.57766 34.6658 7.60666 33.7909 6.55066 33.5959C6.22966 33.2699 5.82364 32.9838 5.58364 33.0508C3.59064 33.6078 2.49967 35.5148 3.57367 37.3948C4.42267 38.8808 6.58865 40.1208 8.21765 39.2278C9.41565 38.5708 9.43766 36.7358 8.98266 35.6408ZM6.95065 37.7428C6.61565 38.0738 6.14765 38.1628 5.69665 38.1878C4.90465 38.2338 4.72766 37.7278 4.68566 37.0408C4.62366 36.0488 5.28267 35.2518 6.09967 34.7788C6.35067 34.9708 6.60666 35.0998 6.76666 35.0428C6.95366 34.9758 7.12767 34.9278 7.32367 34.8958C7.39167 34.8838 7.44466 34.8849 7.49166 34.8889C7.58766 35.1259 7.64566 35.3858 7.67166 35.6308C7.75166 36.4068 7.50665 37.1918 6.95065 37.7428Z" fill="#E52E68"/>
<path d="M14.2442 27.4564C13.3522 25.7014 11.3862 24.4104 9.39624 24.6764C9.31924 24.6864 9.33224 24.7804 9.40024 24.9124C8.13324 25.4074 7.17926 27.2084 7.29926 28.4904C7.53126 30.9704 10.8853 32.7534 13.0703 31.8914C14.8793 31.1784 15.0202 28.9804 14.2442 27.4564ZM12.3123 30.1254C11.8993 30.5254 11.3353 30.6834 10.7863 30.7744C9.50325 30.9874 8.80924 30.1554 8.87024 28.9414C8.90724 28.1954 10.5162 25.5274 11.4852 26.1374C11.6222 26.2244 12.1042 26.4094 12.0512 26.1214C12.4992 26.2924 12.8133 26.6614 13.0233 27.3224C13.3383 28.3134 13.0473 29.4124 12.3123 30.1254Z" fill="#E52E68"/>
<path d="M5.62116 53.6736C5.38516 53.5706 5.25619 53.6306 5.25819 53.7746C5.23319 53.7626 5.20918 53.7466 5.18418 53.7366C4.43518 53.4296 3.74119 53.6626 3.49519 54.4666C3.19519 55.4426 3.86216 56.3536 4.65516 56.8736C5.13016 57.1866 5.60418 57.4117 6.18318 57.3367C6.71418 57.2687 7.22317 56.9097 7.52217 56.4787C8.42417 55.1757 6.60416 54.0986 5.62116 53.6736ZM5.74418 55.4936C5.54518 55.7016 5.28716 55.8266 5.01716 55.9136C5.09316 55.3666 5.45517 54.7656 5.98417 54.9816C6.02517 54.9986 6.05418 54.9976 6.08918 55.0056C6.00718 55.1906 5.87118 55.3606 5.74418 55.4936Z" fill="#E52E68"/>
<path d="M3.89961 14.8005C3.86361 14.8145 3.85662 14.8475 3.84462 14.8785C3.63962 14.9255 3.42961 14.9965 3.20961 15.1205C2.01261 15.7985 1.41062 17.2715 1.52562 18.5885C1.71062 20.6995 4.44061 22.7465 6.47361 21.8015C9.80761 20.2495 7.51661 13.4125 3.89961 14.8005ZM5.69362 19.9385C5.41262 20.2875 5.0276 20.5015 4.6016 20.6185C3.7026 20.8645 3.25661 20.5725 3.11061 19.7015C2.98361 18.9515 3.2156 18.1985 3.6006 17.5635C3.8266 17.1925 4.15759 16.8835 4.47859 16.5985C4.57359 16.5145 4.9716 16.3035 5.2426 16.1665C5.2516 16.1635 5.26361 16.1685 5.27061 16.1665C5.36461 16.1305 5.45861 16.1095 5.55061 16.0825C5.79661 16.3145 6.13761 16.4905 6.37861 16.5425C6.41561 16.7265 6.44159 16.9105 6.46159 17.0685C6.58259 18.0785 6.33262 19.1455 5.69362 19.9385Z" fill="#E52E68"/>
</svg>
