<svg width="82" height="89" viewBox="0 0 82 89" fill="none" xmlns="http://www.w3.org/2000/svg">
<path d="M80.3602 36.189C79.0512 32.451 77.1063 29.118 74.6903 26.191C79.5253 19.289 77.5033 11.187 76.6463 3.48197C76.5623 2.72797 74.9593 2.04799 74.3273 2.01499C67.1053 1.64099 61.9112 9.53699 57.5332 13.95C57.4712 14.012 57.5013 14.12 57.5903 14.251C50.9353 11.669 43.6673 10.506 36.7733 10.816C36.4143 10.614 36.0592 10.482 35.8082 10.537C32.9152 11.166 29.5022 12.298 25.9512 13.848C24.5172 7.924 15.5803 3.19398 11.0653 0.463983C10.7503 0.272983 9.88926 -0.224009 9.53426 0.115991C6.79726 2.73699 6.49925 7.55398 5.96025 11.095C5.13125 16.544 4.67927 21.422 5.68626 26.917C5.71926 27.099 5.87925 27.286 6.10225 27.462C-0.0387497 34.349 -2.63175 42.672 3.50725 51.311C8.05325 57.707 16.3883 60.672 23.8443 61.421C27.4523 61.783 32.6983 60.382 35.2583 64.072C36.8173 66.317 37.2723 69.297 37.6203 71.943C38.1983 76.334 37.7712 80.865 37.3512 85.251C37.2852 85.957 39.9143 87.18 39.9803 86.483C40.6843 79.12 41.5482 70.457 37.1012 64.047C32.6592 57.643 23.1062 60.309 16.6752 58.901C1.37125 55.548 -0.183757 39.503 8.60124 29.17C15.4012 21.171 25.8343 15.371 36.0293 12.716C46.4213 11.634 56.9503 13.674 65.6933 19.563C74.4203 25.44 81.8482 36.981 77.0412 47.414C74.9692 51.911 70.5533 56.044 66.2033 58.24C62.6763 60.022 58.4043 59.998 54.7043 61.334C44.7833 64.914 48.8172 79.15 49.3512 86.752C49.4062 87.531 52.0213 88.568 51.9803 87.984C51.4993 81.131 49.5853 74.286 52.1313 67.617C54.0973 62.469 60.5793 62.048 65.1463 61.025C75.6483 58.671 84.0172 46.635 80.3602 36.189ZM20.5223 16.512C19.1893 12.453 17.3573 9.012 13.3983 6.796C13.1943 6.682 12.0763 6.04298 11.8673 6.44898C11.4573 7.24998 11.2713 8.06199 11.2033 8.88899C11.1793 8.90299 11.1633 8.92198 11.1593 8.94898C11.0143 9.96598 10.9422 10.976 10.9162 11.986C10.7642 13.131 10.8413 14.288 10.9833 15.457C10.9833 15.847 10.9843 16.237 10.9953 16.627C10.9213 17.136 10.9323 17.66 11.0183 18.208C11.0233 18.237 11.0382 18.27 11.0502 18.3C11.1082 19.602 11.1713 20.904 11.1433 22.208C11.1403 22.325 11.2103 22.454 11.3203 22.584C10.1403 23.527 9.00226 24.503 7.95226 25.526C7.47026 20.821 7.98426 16.36 8.71526 11.566C9.18826 8.46399 9.60827 4.44399 11.8073 1.99299C16.2683 4.66899 23.2893 8.99599 23.5193 13.916C23.5303 14.156 23.7932 14.427 24.1492 14.664C22.9422 15.233 21.7303 15.856 20.5223 16.512ZM70.2142 21.672C70.2412 21.652 70.2773 21.645 70.2983 21.615C72.4183 18.678 73.3193 14.05 72.8143 10.481C72.7323 9.905 70.8482 8.64898 70.3082 9.03498C67.3882 11.122 65.6502 14.228 63.2012 16.782C63.1832 16.801 63.1792 16.823 63.1752 16.848C62.2092 16.319 61.2253 15.818 60.2193 15.358C63.9653 11.55 68.4023 4.97998 74.2153 3.87898C75.0813 10.705 76.4052 17.733 72.6102 23.886C71.8472 23.114 71.0422 22.379 70.2142 21.672Z" fill="#E52E68"/>
<path d="M53.4783 47.2019C51.8433 47.7679 50.0653 48.1829 48.3173 48.1309C47.7943 47.8519 47.2643 47.7069 47.0373 47.9489C47.0243 47.9619 47.0093 47.9699 46.9973 47.9829C46.4543 47.8839 45.9153 47.7459 45.3933 47.5259C42.8793 46.4699 42.1573 43.2059 42.0083 40.7079C43.4533 40.3609 44.8083 39.6699 45.8223 38.6449C48.2983 36.1429 46.8843 32.5549 44.4063 30.7809C43.7273 30.2949 43.0393 29.9609 42.3493 29.7549C41.9543 29.5119 41.5583 29.3339 41.3293 29.3479C38.2843 29.5309 34.3053 30.2949 32.8773 33.3599C31.3553 36.6309 34.4433 39.3799 37.1393 40.4499C37.7253 40.6829 38.3473 40.8159 38.9803 40.8939C38.8203 43.1059 38.2073 45.1549 36.6833 46.9429C34.6713 49.3039 29.8573 51.0649 26.8793 50.1399C25.0463 49.5709 27.0563 51.3649 27.7893 51.5919C30.3823 52.3979 32.8823 52.0079 35.2373 51.0049C38.8273 54.5929 46.1753 52.9139 49.4713 49.6019C51.5383 49.8319 53.7333 49.5989 55.8583 48.8629C56.3253 48.7009 54.2533 46.9339 53.4783 47.2019ZM42.6393 50.4309C41.7393 50.7619 37.7703 52.1119 37.0753 51.1439C36.9473 50.9659 36.6063 50.7479 36.2153 50.5509C36.8293 50.2399 37.4363 49.9049 38.0273 49.5299C39.7543 48.4309 40.6943 46.7289 41.1863 44.8589C42.3903 46.6439 44.1133 47.9509 46.1053 48.7549C45.0643 49.5019 43.8173 49.9979 42.6393 50.4309Z" fill="#E52E68"/>
<path d="M56.6543 24.126C56.1833 22.241 54.0343 20.782 52.1623 20.682C51.8103 20.663 51.8203 20.847 51.9333 21.048C51.9253 21.05 51.9193 21.054 51.9123 21.056C51.2043 21.064 50.5163 21.279 49.9153 21.73C48.8953 22.493 48.8353 24.088 49.3973 25.143C50.3033 26.84 52.6103 27.858 54.4733 27.595C56.2083 27.351 57.0533 25.718 56.6543 24.126ZM54.6663 24.615C53.3773 24.615 53.3773 22.615 54.6663 22.615C55.9573 22.615 55.9573 24.615 54.6663 24.615Z" fill="#E52E68"/>
<path d="M32.1355 22.5356C31.1755 21.4546 29.5214 20.7376 28.0724 20.9316C27.9944 20.9426 27.9185 20.9706 27.8415 20.9866C27.7725 20.9896 27.7085 21.0026 27.6565 21.0296C26.7935 21.2406 25.9755 21.7226 25.4665 22.4526C24.9795 23.1496 25.0775 23.9046 25.4285 24.5716C25.4495 24.6286 25.4715 24.6846 25.4965 24.7406C25.4765 25.0796 25.5274 25.4156 25.6834 25.7226C26.4674 27.2716 28.5965 28.1896 30.2515 27.7026C31.0925 27.6526 31.8714 27.2856 32.4304 26.4716C33.2134 25.3316 33.0265 23.5386 32.1355 22.5356ZM30.9995 24.6146C29.7085 24.6146 29.7085 22.6146 30.9995 22.6146C32.2885 22.6146 32.2885 24.6146 30.9995 24.6146Z" fill="#E52E68"/>
<path d="M47.918 42.6987C48.3322 42.6987 48.668 42.3629 48.668 41.9487C48.668 41.5345 48.3322 41.1987 47.918 41.1987C47.5038 41.1987 47.168 41.5345 47.168 41.9487C47.168 42.3629 47.5038 42.6987 47.918 42.6987Z" fill="#E52E68"/>
<path d="M46.168 44.9487C46.5822 44.9487 46.918 44.6129 46.918 44.1987C46.918 43.7845 46.5822 43.4487 46.168 43.4487C45.7538 43.4487 45.418 43.7845 45.418 44.1987C45.418 44.6129 45.7538 44.9487 46.168 44.9487Z" fill="#E52E68"/>
<path d="M49.168 45.8647C49.5822 45.8647 49.918 45.529 49.918 45.1147C49.918 44.7005 49.5822 44.3647 49.168 44.3647C48.7538 44.3647 48.418 44.7005 48.418 45.1147C48.418 45.529 48.7538 45.8647 49.168 45.8647Z" fill="#E52E68"/>
<path d="M51.918 43.6147C52.3322 43.6147 52.668 43.279 52.668 42.8647C52.668 42.4505 52.3322 42.1147 51.918 42.1147C51.5038 42.1147 51.168 42.4505 51.168 42.8647C51.168 43.279 51.5038 43.6147 51.918 43.6147Z" fill="#E52E68"/>
<path d="M32.5 42.3647C32.9142 42.3647 33.25 42.029 33.25 41.6147C33.25 41.2005 32.9142 40.8647 32.5 40.8647C32.0858 40.8647 31.75 41.2005 31.75 41.6147C31.75 42.029 32.0858 42.3647 32.5 42.3647Z" fill="#E52E68"/>
<path d="M35.5859 44.0317C36.0002 44.0317 36.3359 43.696 36.3359 43.2817C36.3359 42.8675 36.0002 42.5317 35.5859 42.5317C35.1717 42.5317 34.8359 42.8675 34.8359 43.2817C34.8359 43.696 35.1717 44.0317 35.5859 44.0317Z" fill="#E52E68"/>
<path d="M33.418 47.1987C33.8322 47.1987 34.168 46.8629 34.168 46.4487C34.168 46.0345 33.8322 45.6987 33.418 45.6987C33.0038 45.6987 32.668 46.0345 32.668 46.4487C32.668 46.8629 33.0038 47.1987 33.418 47.1987Z" fill="#E52E68"/>
<path d="M31.0859 45.1987C31.5002 45.1987 31.8359 44.8629 31.8359 44.4487C31.8359 44.0345 31.5002 43.6987 31.0859 43.6987C30.6717 43.6987 30.3359 44.0345 30.3359 44.4487C30.3359 44.8629 30.6717 45.1987 31.0859 45.1987Z" fill="#E52E68"/>
</svg>
