<svg width="96" height="79" viewBox="0 0 96 79" fill="none" xmlns="http://www.w3.org/2000/svg">
<path d="M69.5371 6.1566C63.3911 3.9966 57.1331 8.20959 56.5121 13.9056C54.1961 11.0126 50.8461 9.60357 47.0301 9.19157C40.9441 8.53357 36.6431 12.9786 35.0091 18.4106C33.1791 24.4956 37.2621 29.5146 42.8591 31.4046C48.4171 33.2806 53.2051 30.9106 56.3341 26.3966C56.7031 26.6056 57.1071 26.7746 57.5341 26.8976C58.1351 27.1376 58.8651 27.3226 59.1801 27.2396C61.5281 26.6236 63.8221 26.3626 66.2361 26.3686C67.4041 26.3716 69.6681 26.4816 70.4351 25.3276C71.3161 24.0056 70.4061 22.9886 69.0511 22.2356C72.9251 20.7136 75.4741 17.5316 75.1171 13.1256C74.8641 10.0026 72.4451 7.1776 69.5371 6.1566ZM55.0151 21.6876C54.4701 22.6966 54.3841 23.6026 54.6131 24.3756C54.3811 24.3966 54.1961 24.4696 54.1071 24.6166C51.7021 28.6626 47.4531 32.7316 42.2161 29.9586C37.9341 27.6896 37.0011 23.4916 37.9211 19.1256C39.6581 10.8736 50.1261 6.71459 54.8171 15.1776C55.0201 15.5466 55.8181 15.7606 56.5221 15.8296C56.6451 16.8926 56.9601 17.9836 57.5131 19.0796C57.6061 19.2636 57.8501 19.4106 58.1591 19.5226C56.8841 19.7006 55.7631 20.3096 55.0151 21.6876ZM67.3081 24.7556C66.4611 25.4786 64.6331 25.2326 63.6221 25.1936C61.7331 25.1246 59.8191 25.4396 57.9641 25.8766C57.9091 25.8116 57.8571 25.7496 57.7731 25.6596C57.5021 25.2116 57.4981 24.6406 57.4981 24.1366C57.4961 23.1716 57.922 22.1896 58.57 21.4926C60.183 19.7556 64.5321 21.4146 66.5291 22.2516C67.6331 22.7136 68.4031 23.8206 67.3081 24.7556ZM66.5371 21.1966C65.8221 20.9676 65.1851 20.7996 64.7971 20.6896C63.5021 20.3226 61.928 19.7946 60.389 19.5726C60.388 19.5586 60.3921 19.5446 60.3831 19.5286C59.1371 17.0626 58.9881 14.6336 59.9751 12.0626C61.1511 8.99757 66.0511 4.95658 69.4381 7.43058C74.9091 11.4276 71.8081 19.0136 66.5371 21.1966Z" fill="#E52E68"/>
<path d="M51.7139 14.4147C51.4989 13.5917 50.5309 12.8667 49.7259 12.5257C49.5369 12.4457 49.3449 12.3717 49.1519 12.3177C48.1859 11.9307 47.1499 11.8437 46.3629 12.3647C46.1309 12.5167 45.9739 12.7157 45.8469 12.9297C44.9599 13.5727 44.8199 14.9597 45.3979 15.9927C46.2649 17.5417 48.8159 18.8037 50.5169 18.0517C50.5679 18.0297 50.6099 17.9926 50.6599 17.9676C50.7089 17.9516 50.7599 17.9427 50.8079 17.9217C51.1239 17.7927 51.3289 17.5717 51.4619 17.3107C52.0989 16.5037 52.2169 15.3477 51.7139 14.4147ZM49.5479 15.2257C49.2879 15.0777 49.0999 14.8607 49.0269 14.5657C48.7459 13.4437 50.2569 12.9127 50.7999 13.7117C51.4689 14.4487 50.5649 15.8067 49.5479 15.2257Z" fill="#E52E68"/>
<path d="M69.1165 10.2C68.8645 8.727 66.8875 7.66199 65.5525 7.52199C64.4505 7.40699 63.4275 7.996 63.2305 9.126C62.9845 10.546 64.2325 11.597 65.4025 12.132C66.1585 12.479 66.9905 12.64 67.6875 12.39C68.6945 12.154 69.2955 11.239 69.1165 10.2ZM66.7805 10.362C65.4895 10.362 65.4895 8.36199 66.7805 8.36199C68.0695 8.36199 68.0695 10.362 66.7805 10.362Z" fill="#E52E68"/>
<path d="M92.6829 39.1107C94.1449 37.8087 96.586 35.6947 94.382 33.8267C91.338 31.2447 86.3689 31.4247 81.6099 32.2717C80.0279 28.3417 77.8429 24.5007 76.6179 21.4777C76.2949 20.6827 73.8659 19.9427 73.9889 20.2457C75.6699 24.3897 77.7329 28.4997 79.2649 32.7377C76.6969 33.2997 74.2999 33.9597 72.4449 34.3657C72.0599 34.4497 74 36.2077 74.828 36.0257C78.09 35.3117 81.36 34.7127 84.668 34.2507C86.398 34.0077 95.283 33.0117 90.887 36.9577C89.491 38.2117 88.327 38.9387 88.323 40.9127C88.317 43.3487 94.38 45.4097 90.624 47.8357C89.181 48.7677 86.6879 47.6287 84.9709 48.5647C83.8099 49.1977 83.7999 52.7327 83.4719 53.7187C82.1929 57.5827 78.7859 56.8537 76.2299 54.9407C76.3129 54.8447 76.4019 54.7557 76.4839 54.6607C76.0979 54.5147 75.7429 54.3757 75.3859 54.2327C75.0989 53.9667 74.8249 53.6947 74.5799 53.4117C72.2119 50.6757 69.3839 48.2667 66.6609 45.8937C66.0889 45.3947 63.502 44.5727 64.948 45.8317C67.771 48.2917 70.2609 51.3457 73.0019 53.9677C64.2939 63.9137 51.323 65.4537 38.815 62.8097C32.571 61.4897 27.907 57.6837 24.776 52.7217C24.743 52.8117 24.707 52.8997 24.672 52.9887C24.266 52.3257 23.901 51.6527 23.56 50.9737C23.762 50.8817 23.958 50.7827 24.162 50.6937C24.512 50.5397 23.602 49.6647 22.763 49.2337C20.697 44.2977 20.083 38.9937 19.81 33.4417C19.867 33.4547 19.9229 33.4627 19.9799 33.4757C20.0639 31.6167 20.293 29.7887 20.671 28.0367C22.911 17.6657 30.546 10.3587 39.194 4.9517C41.61 3.8477 43.995 2.80771 46.567 2.09571C51.981 0.597714 57.489 3.18569 62.258 5.45069C64.127 6.33869 63.072 4.7767 62.016 4.2747C58.061 2.3967 54.195 0.770706 49.84 0.137706C46.088 -0.408294 42.582 0.748704 39.205 2.2107C38.963 2.1357 38.75 2.11771 38.613 2.19871C38.027 2.54271 37.451 2.89772 36.879 3.25572C36.68 3.34872 36.479 3.44072 36.279 3.53172C36.215 3.56172 36.191 3.6157 36.203 3.6847C26.25 10.0827 18.693 18.6897 17.326 31.0577C17.306 31.2337 17.305 31.4117 17.289 31.5877C17.203 31.6127 17.152 31.6617 17.156 31.7457C17.171 32.0797 17.1889 32.4117 17.2079 32.7447C17.1989 32.9147 17.178 33.0817 17.172 33.2517C17.193 33.2507 17.2129 33.2517 17.2349 33.2507C17.3069 34.4777 17.4029 35.6897 17.5279 36.8917C17.4419 36.8757 17.353 36.8567 17.28 36.8657C12.622 37.4597 8.73296 35.8937 4.30096 35.0347C3.11396 34.8047 -0.408034 34.7087 0.0389656 36.8877C0.364966 38.4787 1.72694 39.3967 3.01394 40.1407C4.85194 41.2027 8.49197 40.7407 5.28097 42.9057C-0.75103 46.9707 4.67896 48.4427 9.34396 48.6577C7.39296 51.2367 4.90197 55.0927 7.27197 57.1017C8.75597 58.3607 10.446 58.3817 12.241 57.9097C13.856 57.4837 15.3379 56.0387 16.6389 55.0307C18.3049 53.7397 20.0959 52.6717 21.9629 51.7327C22.4009 52.4707 22.8749 53.2007 23.3979 53.9197C23.5449 54.1217 23.971 54.3777 24.432 54.5917C26.998 57.7457 30.1569 60.3737 33.8459 62.1007C36.7269 63.4497 39.9029 64.4527 43.1999 65.0807C42.1039 67.2847 42.468 70.4117 42.487 72.7857C42.21 72.6747 41.956 72.6287 41.78 72.6997C38.358 74.0787 34.5729 73.4647 31.1139 74.6997C30.6419 74.8677 32.725 76.6347 33.495 76.3597C34.706 75.9277 35.956 75.7267 37.216 75.5837C36.669 75.8807 36.1279 76.1857 35.6139 76.5327C35.0469 76.9167 37.398 78.5967 37.995 78.1927C38.82 77.6337 39.702 77.1747 40.573 76.6987C41.2 77.3537 42.776 78.0157 42.936 77.6127C43.284 76.7417 43.604 75.8727 43.77 74.9467C43.793 74.8097 43.741 74.6707 43.645 74.5307C43.817 74.4757 43.991 74.4277 44.162 74.3597C44.225 74.3347 44.245 74.2827 44.229 74.2137C44.717 74.3727 45.12 74.3937 45.119 74.1467C45.11 71.7117 44.667 68.4647 45.936 66.2807C46.057 66.0737 45.8049 65.7527 45.4199 65.4497C46.5899 65.6087 47.772 65.7177 48.955 65.7797C49.65 67.8097 48.483 70.2717 48.982 72.3677C48.805 72.3467 48.685 72.3677 48.671 72.4477C48.491 73.3957 48.034 74.2297 47.671 75.1137C47.38 75.8187 50.0479 77.1497 50.2689 76.6137C50.4999 76.0507 50.763 75.5067 50.974 74.9417C51.823 75.3557 52.597 75.9617 53.404 76.4327C53.623 76.5607 54.706 77.1767 54.935 76.7807C55.165 76.3817 54.087 75.7557 53.869 75.6277C52.978 75.1077 52.1289 74.5547 51.2389 74.0617C51.2479 74.0237 51.2609 73.9877 51.2689 73.9487C51.2739 73.9217 51.263 73.8927 51.261 73.8657C54.804 75.7437 58.622 75.1677 62.474 75.7167C63.158 75.8137 62.478 75.0257 62.326 74.8967C61.8 74.4497 61.152 74.1127 60.466 74.0147C57.699 73.6197 54.0449 74.3617 51.5359 72.9627C51.5229 72.9547 51.514 72.9527 51.5 72.9447C51.256 70.6697 52.357 68.2707 51.209 66.1427C51.158 66.0477 51.049 65.9417 50.909 65.8337C58.113 65.8757 65.293 64.0547 70.836 59.9487C72.382 58.8027 73.884 57.4557 75.292 55.9697C75.413 56.0657 75.529 56.1707 75.651 56.2637C77.295 57.5147 79.674 59.0517 81.884 58.5847C85.867 57.7437 86.316 54.3687 86.988 50.9097C87.578 47.8657 94.124 51.5687 94.285 47.9797C94.453 44.2247 88.6769 42.6777 92.6829 39.1107ZM15.155 52.6837C14.117 53.3907 13.015 54.3227 12.033 55.0397C11.355 55.5277 10.6309 55.9307 9.85894 56.2467C9.43294 56.2427 9.10096 56.2537 8.83596 56.2767C8.77796 53.8327 12.096 49.9757 13.27 48.4447C13.737 47.8367 11.231 46.7967 10.78 46.8647C9.73496 47.0227 8.68595 47.1057 7.63195 47.1617C6.92695 47.1987 6.22395 47.1807 5.51895 47.1517C3.63995 47.0767 4.94696 47.2537 5.31896 46.5897C5.80196 45.7337 10.8909 43.3087 9.45794 41.8727C8.72894 41.1427 8.03695 40.7357 7.09695 40.2947C5.73095 39.6527 -0.734042 37.1907 4.96896 36.6107C7.32596 36.3707 10.512 37.8497 12.826 38.3647C14.465 38.7287 16.099 38.7957 17.742 38.6997C18.25 42.4607 19.1439 46.0757 20.7769 49.4977C18.8199 50.4177 16.952 51.4607 15.155 52.6837Z" fill="#E52E68"/>
</svg>
