<svg width="0" height="0" class="hidden">
  <symbol fill="none" xmlns="http://www.w3.org/2000/svg" viewBox="0 0 23 23" id="user">
    <g clip-path="url(#clip0)" fill="#02A950">
      <path d="M10.992 11.297c1.456 0 2.717-.522 3.747-1.552 1.03-1.03 1.552-2.29 1.552-3.747 0-1.455-.522-2.716-1.552-3.746C13.709 1.222 12.448.7 10.992.7s-2.716.522-3.746 1.552c-1.03 1.03-1.553 2.29-1.553 3.746s.523 2.717 1.553 3.747c1.03 1.03 2.29 1.552 3.746 1.552zm9.271 6.319a13.1 13.1 0 00-.178-1.39c-.09-.497-.204-.968-.342-1.398a6.906 6.906 0 00-.574-1.303 4.919 4.919 0 00-.867-1.13 3.818 3.818 0 00-1.244-.781 4.3 4.3 0 00-1.59-.288c-.224 0-.441.092-.86.366-.259.168-.56.363-.898.578-.288.184-.678.356-1.16.511a4.61 4.61 0 01-1.42.23 4.59 4.59 0 01-1.42-.23c-.482-.155-.872-.327-1.16-.51-.334-.214-.636-.409-.898-.58-.419-.273-.636-.365-.86-.365-.573 0-1.107.097-1.59.288a3.818 3.818 0 00-1.244.782 4.919 4.919 0 00-.866 1.129c-.24.42-.433.859-.575 1.304-.137.43-.252.9-.342 1.397a13.24 13.24 0 00-.178 1.39c-.03.422-.044.859-.044 1.3 0 1.148.365 2.078 1.085 2.764.711.676 1.652 1.02 2.796 1.02h10.593c1.144 0 2.085-.344 2.796-1.02.72-.686 1.085-1.615 1.085-2.764 0-.444-.015-.88-.045-1.3z"></path>
    </g>
    <defs>
      <clipPath id="clip0">
        <path fill="#fff" transform="translate(.148 .7)" d="M0 0h22v22H0z"></path>
      </clipPath>
    </defs>
  </symbol>
  <symbol fill="none" xmlns="http://www.w3.org/2000/svg" viewBox="0 0 23 22" id="name">
    <path d="M7.548 8a3.5 3.5 0 117 0 3.5 3.5 0 01-7 0z" fill="#02A950"></path>
    <path fill-rule="evenodd" clip-rule="evenodd" d="M.048 11c0-6.075 4.925-11 11-11s11 4.925 11 11a10.967 10.967 0 01-3.363 7.917A10.963 10.963 0 0111.048 22c-2.935 0-5.602-1.15-7.574-3.023a1.006 1.006 0 01-.211-.206A10.965 10.965 0 01.048 11zm20 0c0 1.861-.565 3.59-1.533 5.025a6 6 0 00-5.467-3.525h-4a6 6 0 00-5.468 3.525A9 9 0 1120.047 11zm-9 9a8.966 8.966 0 01-5.933-2.233A4.002 4.002 0 019.048 14.5h4a4.002 4.002 0 013.933 3.267A8.966 8.966 0 0111.048 20z" fill="#02A950"></path>
  </symbol>
  <symbol fill="none" xmlns="http://www.w3.org/2000/svg" viewBox="0 0 23 17" id="email">
    <path fill-rule="evenodd" clip-rule="evenodd" d="M.52.15A.995.995 0 011.049 0h20a.995.995 0 01.913.592.998.998 0 01.087.408v.015-.004V16a1 1 0 01-1 1h-20a1 1 0 01-1-1V1A1 1 0 01.52.15zm0 0zM2.049 2h2l7 5.25 7-5.25h2v1l-8.4 6.3a1 1 0 01-1.2 0L2.048 3V2z" fill="#02A950"></path>
  </symbol>
  <symbol fill="none" xmlns="http://www.w3.org/2000/svg" viewBox="0 0 23 21" id="city">
    <path fill-rule="evenodd" clip-rule="evenodd" d="M6.048 2a2 2 0 012-2h10a2 2 0 012 2v17h1a1 1 0 010 2h-20a1 1 0 110-2h1v-6a2 2 0 012-2h2V2zm4 2h2v2h-2V4zm-5 11a1 1 0 100 2h.5a1 1 0 100-2h-.5zm11-11h-2v2h2V4zm-6 3.5h2v2h-2v-2zm6 0h-2v2h2v-2zm-2 3.5h2v2h-2v-2zm2 3.5h-2v2h2v-2z" fill="#02A950"></path>
  </symbol>
  <symbol fill="none" xmlns="http://www.w3.org/2000/svg" viewBox="0 0 20 19" id="tel">
    <g clip-path="url(#clip0)">
      <path d="M18.53 13.944l-2.65-2.651c-.948-.947-2.558-.569-2.936.663-.284.852-1.231 1.325-2.084 1.136-1.894-.474-4.45-2.936-4.924-4.924-.284-.853.284-1.8 1.136-2.084 1.232-.379 1.61-1.988.663-2.935L5.084.497c-.758-.663-1.894-.663-2.557 0l-1.8 1.8C-1.07 4.19.918 9.208 5.369 13.66c4.45 4.45 9.47 6.534 11.364 4.64l1.799-1.8c.663-.757.663-1.893 0-2.556z" fill="#02A950"></path>
    </g>
    <defs>
      <clipPath id="clip0">
        <path fill="#fff" transform="translate(.048)" d="M0 0h19v19H0z"></path>
      </clipPath>
    </defs>
  </symbol>
  <symbol fill="none" xmlns="http://www.w3.org/2000/svg" viewBox="0 0 20 23" id="pass">
    <path fill-rule="evenodd" clip-rule="evenodd" d="M15.527 4.802c-.62-3.02-3.446-5.08-6.536-4.771C5.901.34 3.545 2.92 3.548 6.003v3.02h-1.5a2 2 0 00-2 2v9a2 2 0 002 2h15a2 2 0 002-2v-9a2 2 0 00-2-2h-11.5v-3.02l.005-.205c.098-1.96 1.634-3.577 3.637-3.777 2.074-.208 3.965 1.171 4.378 3.183a1 1 0 101.96-.402zM9.547 13a1 1 0 01.994.883l.007.117v3a1 1 0 01-1.993.117L8.548 17v-3a1 1 0 011-1z" fill="#02A950"></path>
  </symbol>
  <symbol fill="none" xmlns="http://www.w3.org/2000/svg" viewBox="0 0 23 22" id="geo">
    <path fill-rule="evenodd" clip-rule="evenodd" d="M11.048 0c-4.119 0-7.5 3.263-7.5 7.34 0 2.868 1.87 5.405 3.532 7.118a22.95 22.95 0 003.333 2.82l.062.042.018.012.005.003.002.002a1 1 0 001.095 0l-.547-.837c.547.837.548.836.548.836h.002l.005-.004.018-.012.04-.027.021-.014.223-.155a22.946 22.946 0 003.111-2.666c1.661-1.713 3.532-4.25 3.532-7.117 0-4.078-3.381-7.341-7.5-7.341zm0 16.5l-.548.837.548-.837zm0-12.5a3.5 3.5 0 100 7 3.5 3.5 0 000-7z" fill="#02A950"></path>
    <path d="M4.264 16.337a1 1 0 00-.575-1.916c-.956.287-1.804.649-2.434 1.096C.651 15.945.048 16.6.048 17.5s.603 1.555 1.207 1.983c.63.447 1.478.81 2.434 1.096 1.927.578 4.528.921 7.359.921 2.83 0 5.432-.343 7.358-.92.957-.288 1.804-.65 2.434-1.097.605-.428 1.208-1.084 1.208-1.983s-.603-1.555-1.207-1.983c-.63-.447-1.478-.81-2.435-1.096a1 1 0 10-.574 1.916c.852.255 1.47.54 1.851.81.263.187.339.309.359.353-.02.044-.096.166-.359.352-.381.27-.999.556-1.851.811-1.693.508-4.092.837-6.784.837s-5.091-.329-6.784-.837c-.853-.255-1.47-.54-1.852-.81-.262-.187-.338-.309-.358-.353.02-.044.096-.166.358-.352.382-.27 1-.556 1.852-.811z" fill="#02A950"></path>
  </symbol>
</svg>