<svg width="64" height="125" viewBox="0 0 64 125" fill="none" xmlns="http://www.w3.org/2000/svg">
<path d="M45.885 48.8205C46.4 48.7755 45.852 48.1715 45.661 48.0095C45.178 47.5995 44.458 47.1455 43.801 47.1275C41.988 47.0775 40.27 47.7715 39.455 49.4755C38.699 51.0545 39.259 53.1485 40.529 54.2795C41.761 55.3775 43.474 56.1705 45.142 55.8055C46.745 55.4555 47.343 53.7255 47.367 52.2765C47.386 51.0745 46.778 49.7495 45.885 48.8205ZM44.689 50.3315C44.805 51.0915 44.698 51.7865 44.461 52.4965C44.286 52.3035 43.834 51.9785 43.348 51.7025C43.416 50.9015 43.903 50.1275 44.549 49.6405C44.607 49.8695 44.653 50.1005 44.689 50.3315Z" fill="#E52E68"/>
<path d="M21.9043 51.2636C22.1753 51.0606 21.2843 50.3446 21.2063 50.2906C20.7593 49.9786 20.0263 49.5166 19.4463 49.6486C18.0503 49.9666 16.5133 50.2336 15.3423 51.1146C13.9623 52.1506 13.8614 53.8446 14.7724 55.2606C16.4984 57.9396 21.5213 58.8396 23.1033 55.5616C23.8943 53.9236 23.1963 52.3026 21.9043 51.2636ZM20.4573 54.1246C20.0583 53.5626 19.5093 53.1046 18.8913 52.7516C18.8823 52.7456 18.8733 52.7396 18.8653 52.7336C18.7753 52.6836 18.6823 52.6406 18.5923 52.5946C18.7663 52.4236 18.9623 52.2736 19.1623 52.1426C19.4553 51.9506 19.8083 51.8456 20.1413 51.7466C20.3563 51.6826 20.5033 51.6786 20.6033 51.6876C20.9723 52.4266 20.8293 53.3606 20.4573 54.1246Z" fill="#E52E68"/>
<path d="M32.7858 62.4294C32.3188 60.1614 30.2608 58.6024 30.5858 56.0804C30.7668 54.6844 30.7988 53.5804 30.6258 52.5754C30.7998 50.3544 31.1468 48.7434 28.8748 47.1234C27.9608 46.4714 26.9388 45.8404 25.8688 45.2514C26.0918 44.4264 26.0888 43.7134 24.5168 43.0584C24.1208 42.8934 23.6898 42.7493 23.2388 42.6193C22.0068 41.8653 20.5088 41.3524 19.4148 42.0394C17.8688 42.0054 16.3488 42.2294 15.0808 42.7684C13.0318 43.1794 11.1158 44.5363 9.50685 46.8953C9.35885 47.1143 9.68684 47.4834 10.1528 47.8154C8.07784 51.3854 6.74783 55.7434 7.31483 59.6824C7.26683 59.7204 7.23383 59.7734 7.24083 59.8624C7.28783 60.4594 7.23483 61.0573 7.33683 61.6503C7.42583 62.1673 7.72585 62.5743 8.10185 62.9123C8.11085 62.9283 8.12184 62.9424 8.13084 62.9574C7.82184 62.8864 7.61184 62.8903 7.65684 63.0293C9.45384 68.6333 14.4768 73.3163 19.7598 73.2363C20.1358 73.4093 20.4818 73.5134 20.6628 73.4754C21.2758 73.3474 21.8348 73.1944 22.3538 73.0104C22.8988 73.3754 23.5248 73.6404 23.8288 73.4754C25.5078 72.5664 26.4148 71.3913 27.6038 69.8953C28.3878 68.9103 29.2898 68.2873 30.0768 67.5073C30.1588 67.4883 30.2278 67.4553 30.2698 67.3953C30.3588 67.2613 30.4668 67.1133 30.5788 66.9603C30.6608 66.8603 30.7368 66.7523 30.8148 66.6463C31.7488 65.4183 33.0658 63.7834 32.7858 62.4294ZM24.9248 60.6713C24.2748 63.2633 22.8638 65.6423 20.5628 67.2063C20.2498 67.4193 19.9478 67.5963 19.6498 67.7583C19.1248 67.2893 18.3658 66.7704 17.9678 66.7954C11.2988 67.2164 9.87582 59.0964 10.7708 54.0624C10.7808 54.0124 10.7748 53.9584 10.7608 53.9034C11.4448 51.5714 12.5738 49.3444 14.0018 47.3764C20.6458 44.4304 24.9418 50.0093 25.3288 56.2583C25.3078 57.7413 25.1848 59.1833 24.9248 60.6713Z" fill="#E52E68"/>
<path d="M54.2641 85.2824C54.1681 84.4894 51.5701 83.5064 51.6351 84.0504C52.1861 88.6274 51.6671 93.0714 49.1301 96.9884C47.3761 99.6934 44.3561 101.364 41.1461 102.045C40.4351 101.693 39.6542 101.518 39.6562 101.862C39.6582 102.004 39.6601 102.148 39.6621 102.29C38.0371 102.478 36.4061 102.422 34.9041 102.115C32.8511 100.706 33.2341 98.2004 33.2851 96.0114C33.2881 95.8984 33.2231 95.7744 33.1211 95.6504C33.0551 94.0054 32.8871 92.3274 32.8731 90.6944C33.6231 90.6444 34.3771 90.5844 35.1301 90.5524C37.8271 90.4434 40.7332 89.1274 42.0182 86.6814C44.7162 81.5484 35.8621 79.1844 32.6531 78.9084C31.6821 78.8244 30.7271 78.9434 29.8251 79.2124C26.6751 79.6494 23.7781 80.9204 23.1771 84.5064C22.7731 86.9204 24.8521 89.0374 26.8551 89.9774C27.9741 90.5014 29.1251 90.6974 30.2911 90.7494C30.4881 94.2334 31.1331 98.2084 29.3471 101.149C29.1431 101.485 28.8931 101.807 28.6091 102.117C28.5751 102.125 28.5401 102.133 28.5121 102.148C23.7781 104.836 18.5841 104.007 15.7441 98.9374C13.5491 95.0174 12.3721 89.8894 13.1881 85.4784C13.3461 84.6244 10.6641 83.5794 10.5901 83.9784C8.91714 93.0144 15.3231 105.416 24.6021 105.546C25.1651 111.677 24.2231 119.586 32.2441 120.914C35.9081 121.52 38.5481 119.75 40.4901 116.713C42.9021 112.943 42.4001 108.219 42.3011 103.93C44.9561 103.576 47.5201 102.597 49.5331 100.82C54.0181 96.8614 54.9491 90.9764 54.2641 85.2824ZM34.7271 118.56C26.5391 123.982 27.5971 109.45 27.1191 105.761C27.1001 105.62 27.0021 105.475 26.8571 105.332C27.8591 105.135 28.8861 104.803 29.9351 104.299C30.0111 104.351 30.0891 104.4 30.1651 104.451C30.3941 104.26 30.5971 104.059 30.7921 103.858C30.8251 103.839 30.8571 103.826 30.8901 103.807C30.9451 103.777 30.9641 103.73 30.9681 103.675C31.6061 102.975 32.0711 102.221 32.3981 101.422C33.2481 102.406 34.4581 103.195 36.1441 103.834C36.3431 103.91 36.5571 103.968 36.7611 104.038C36.7801 103.965 36.8201 103.89 36.8591 103.813C37.7811 103.978 38.7341 104.056 39.6901 104.074C39.7821 109.478 39.7341 115.245 34.7271 118.56Z" fill="#E52E68"/>
<path d="M34.7838 105.263C34.6028 104.694 33.8458 104.292 33.3478 104.059C33.2578 104.017 31.9938 103.525 32.1548 104.031C32.7618 105.942 32.3538 107.905 32.3218 109.864C32.3088 110.61 34.9398 111.744 34.9508 111.096C34.9828 109.137 35.3918 107.174 34.7838 105.263Z" fill="#E52E68"/>
<path d="M6.43974 43.7287C3.48074 51.8547 3.79674 61.2777 3.99074 69.6967C4.40874 87.8757 4.33875 106.255 5.35475 124.479H8.00673C7.28873 107.885 7.56475 91.2347 6.79875 74.6557C6.35575 65.0547 5.94375 54.9087 8.96275 45.6627C9.18375 45.6997 9.31675 45.6837 9.28475 45.5957C9.23375 45.4497 9.18573 45.3037 9.13573 45.1577C9.30673 44.6567 9.48075 44.1567 9.67375 43.6617C12.4998 36.3827 18.0817 30.4697 24.2717 25.7537C24.6037 25.5637 24.9418 25.3867 25.2858 25.2227C25.3258 25.2047 25.3657 25.1847 25.4057 25.1677C25.4707 25.1677 25.5318 25.1627 25.5788 25.1447C25.6048 25.1347 25.6268 25.1247 25.6518 25.1157C24.9558 27.2617 24.4457 29.3437 26.7237 30.9517C28.8697 32.4667 29.6207 33.4207 29.2507 36.2867C29.0817 37.5967 29.8027 38.7697 30.8177 39.5227C34.9067 42.5507 38.5827 40.1457 43.2437 40.4847C46.3787 40.7137 47.8387 36.1097 46.4657 33.6427C46.7617 33.7587 47.0487 33.8537 47.2397 33.8767C49.5377 36.8487 51.7377 39.9477 53.7447 43.0587C54.3787 44.0407 54.9167 45.0507 55.3997 46.0777C55.3787 46.1287 55.3598 46.1807 55.3378 46.2307C55.2388 46.4647 55.4758 46.7707 55.8378 47.0537C56.8488 49.4367 57.5027 51.9227 57.9477 54.4657C57.7187 54.4277 57.5477 54.4487 57.5047 54.5647C56.4147 57.4917 54.7837 59.1927 52.6667 61.4237C51.0517 63.1257 51.5177 65.6667 53.2347 67.0717C53.9517 67.6577 54.5357 68.1597 54.8517 68.7737C54.9267 69.0927 55.0087 69.4077 55.0997 69.7117C55.1147 70.0597 55.0627 70.4477 54.9177 70.9007C54.7047 71.5717 55.1257 72.1067 55.5527 72.5677C56.2207 73.2897 56.9067 73.4597 57.6207 73.5407C58.0377 73.7747 58.4697 73.9267 58.7577 73.8267C58.9127 73.9277 59.0917 74.0267 59.2757 74.1217C59.9807 84.7657 60.0707 95.4667 60.4457 106.127C60.6627 112.25 60.9947 118.364 61.2567 124.481H63.8967C63.5697 116.249 63.1067 108.016 62.7967 99.7877C62.2707 85.7987 61.7217 71.8217 60.9947 57.8497C60.8037 54.1557 59.7117 50.6377 58.1117 47.2837C62.2597 37.1317 62.2657 25.7637 58.5827 15.4317C57.1997 11.5497 56.0338 7.41271 54.3548 3.65771C53.6228 2.01871 51.8007 0.535715 50.0467 0.115715C42.3867 -1.72029 40.2627 18.8207 39.6877 24.2237C37.7117 22.9557 35.6317 22.1837 33.3857 21.8947C32.9497 21.5717 32.4537 21.2867 32.2147 21.2497C30.0237 20.9217 25.8267 20.1607 24.2537 22.2307C24.2107 22.2877 24.2017 22.3497 24.2087 22.4127C23.8817 22.6427 23.5467 22.8637 23.2247 23.0997C20.6607 14.4647 12.3887 7.2797 5.95473 1.6057C5.93173 0.886705 3.55075 -0.277295 3.33675 0.230705C0.284747 7.47271 -0.692257 12.9647 0.482743 20.8787C1.64974 28.7367 3.84974 36.2467 6.43974 43.7287ZM42.2697 25.8957C42.3267 25.6187 42.3808 25.3397 42.4368 25.0627C42.4558 24.9707 42.4347 24.8757 42.3927 24.7807C43.1717 17.6347 44.3887 8.32971 48.9747 2.79771C51.5877 -0.356294 52.8278 5.21571 53.3678 7.18671C54.4778 11.2367 56.3957 14.9867 57.4357 19.0737C59.5087 27.2207 59.0378 35.9357 56.2598 43.8207C55.9928 43.3717 55.7137 42.9267 55.4337 42.4837C55.4397 42.4647 55.4517 42.4507 55.4527 42.4287C55.5807 40.6527 55.6807 38.8767 55.7347 37.0987C56.3677 35.4527 56.0187 32.5077 55.9827 31.6307C55.7367 25.6117 54.1667 19.9557 53.2107 14.0547C52.8247 11.6767 52.3787 9.53972 50.1937 8.27972C47.8947 6.95172 46.9457 8.72071 46.4437 10.8537C45.1567 16.3187 44.8808 22.0337 43.6868 27.5457C43.1428 26.9907 42.5967 26.4697 42.0437 25.9927C42.1697 25.9947 42.2557 25.9687 42.2697 25.8957ZM5.52773 2.67771C11.9687 8.37671 19.7157 15.5827 21.1557 24.1977C21.1747 24.3057 21.2397 24.4177 21.3357 24.5267C20.6027 25.1017 19.8827 25.6897 19.1797 26.2957C19.0037 25.9227 18.7657 25.5447 18.5037 25.1657C17.4667 23.3517 15.9397 21.6667 14.8317 20.0037C14.0207 18.7857 13.3457 17.5367 12.4217 16.3917C11.2627 14.9537 9.47075 13.4027 8.78475 11.6807C8.71275 11.4967 8.52474 11.3177 8.28374 11.1517C8.28374 11.1337 8.28475 11.1157 8.28475 11.0967C8.28275 10.3417 5.65375 9.22971 5.65575 9.86471C5.67575 14.4777 4.95874 18.9537 5.82274 23.5317C6.71274 28.2507 8.59674 32.4897 8.82274 37.3647C8.82974 37.5207 8.99074 37.7297 9.22374 37.9417C8.67674 38.8637 8.15973 39.8117 7.67873 40.7897C5.90573 35.2317 4.43474 29.6477 3.39574 23.8447C2.75674 20.2727 2.40773 16.7427 2.45473 13.1137C2.50373 9.30872 4.06273 6.05371 5.52773 2.67771Z" fill="#E52E68"/>
</svg>
