<svg style="display: none;">
  <symbol viewBox="0 0 22 22" xmlns="http://www.w3.org/2000/svg" id="star">
    <path d="M8.06 1.588c.319-.879 1.561-.879 1.88 0l1.493 4.11a1 1 0 00.906.659l4.371.15c.934.032 1.318 1.213.581 1.787l-3.448 2.691a1 1 0 00-.346 1.065l1.208 4.203c.258.898-.746 1.628-1.52 1.105L9.56 14.91a1 1 0 00-1.12 0l-3.624 2.448c-.774.523-1.78-.207-1.521-1.105l1.208-4.203a1 1 0 00-.346-1.065L.71 8.295c-.737-.575-.353-1.756.58-1.788l4.372-.15a1 1 0 00.906-.658L8.06 1.588z"></path>
  </symbol>
</svg>
