<svg width="50" height="52" viewBox="0 0 50 52" fill="none" xmlns="http://www.w3.org/2000/svg">
<g clip-path="url(#clip0)">
<path d="M0.000789642 23.6001C0.20079 18.3001 1.60079 13.7001 5.10079 9.70008C8.80079 5.70008 13.7008 2.90008 18.8008 1.30008C21.3008 0.500082 23.9008 8.16211e-05 26.5008 0.100082C27.6008 0.100082 28.8008 0.200082 29.9008 0.500082C31.0008 0.800082 32.1008 1.50008 33.1008 2.20008C33.6008 2.50008 33.4008 6.10008 32.9008 6.00008C31.1008 5.70008 29.3008 5.70008 27.5008 5.70008C25.4008 5.70008 23.3008 6.00008 21.3008 6.40008C17.0008 7.30008 12.9008 9.20008 9.30079 11.7001C6.10079 14.0001 3.00079 17.1001 1.70079 20.9001C1.10079 22.6001 1.10079 24.3001 1.30079 26.2001C1.60079 28.6001 2.30079 31.0001 3.40079 33.1001C5.50079 37.5001 9.10079 41.2001 13.4008 43.4001C17.0008 45.2001 21.2008 45.8001 25.2008 45.8001C33.2008 45.8001 42.3008 43.3001 46.8008 36.2001C49.8008 31.5001 48.9008 26.1001 46.8008 21.3001C44.4008 15.6001 40.1008 10.4001 34.8008 7.10008C34.2008 6.70008 34.8008 4.40008 34.9008 4.40008C45.4008 10.5001 51.5008 22.6001 49.4008 34.6001C48.5008 39.4001 46.2008 43.4001 42.2008 46.3001C38.5008 49.0001 34.0008 50.5001 29.4008 51.1001C25.1008 51.7001 20.5008 51.6001 16.4008 50.4001C11.4008 48.9001 7.00079 45.4001 4.20079 41.0001C1.00079 35.7001 -0.199211 29.6001 0.000789642 23.6001Z" fill="#E63068"/>
<path d="M23.2004 26.9002C25.1004 29.4002 26.8004 32.1002 27.7004 35.1002C27.9004 35.7002 27.9004 36.3002 27.8004 36.9002C27.8004 37.0002 27.7004 38.0002 27.4004 37.7002C26.5004 36.8002 25.9004 35.7002 25.2004 34.7002C24.4004 33.5002 23.6004 32.4002 22.7004 31.2002C21.8004 30.0002 20.9004 28.9002 20.0004 27.8002C19.1004 26.7002 18.0004 25.5002 17.2004 24.3002C16.8004 23.7002 16.9004 22.6002 16.9004 21.9002C16.9004 21.4002 16.9004 20.3002 17.4004 20.0002C20.0004 18.7002 21.9004 16.5002 24.3004 15.0002C25.2004 14.4002 26.4004 13.5002 27.6004 13.6002C28.4004 13.7002 29.1004 14.5002 28.7004 15.4002C28.2004 16.3002 27.2004 16.7002 26.3004 17.1002C25.2004 17.7002 24.1004 18.4002 23.2004 19.2002C22.0004 20.2002 20.8004 21.3002 19.6004 22.3002C19.9004 22.7002 20.2004 23.0002 20.4004 23.3002C21.3004 24.6002 22.3004 25.7002 23.2004 26.9002Z" fill="#E63068"/>
</g>
<defs>
<clipPath id="clip0">
<rect width="49.8" height="51.4" fill="white" transform="matrix(-1 0 0 1 49.8008 0)"/>
</clipPath>
</defs>
</svg>
