<svg width="50" height="52" viewBox="0 0 50 52" fill="none" xmlns="http://www.w3.org/2000/svg">
<g clip-path="url(#clip0)">
<path d="M49.8 23.6001C49.6 18.3001 48.2 13.7001 44.7 9.70008C41 5.70008 36.1 2.90008 31 1.30008C28.5 0.500082 25.9 8.16211e-05 23.3 0.100082C22.2 0.100082 21 0.200082 19.9 0.500082C18.8 0.800082 17.7 1.50008 16.7 2.20008C16.2 2.50008 16.4 6.10008 16.9 6.00008C18.7 5.70008 20.5 5.70008 22.3 5.70008C24.4 5.70008 26.5 6.00008 28.5 6.40008C32.8 7.30008 36.9 9.20008 40.5 11.7001C43.7 14.0001 46.8 17.1001 48.1 20.9001C48.7 22.6001 48.7 24.3001 48.5 26.2001C48.2 28.6001 47.5 31.0001 46.4 33.1001C44.3 37.5001 40.7 41.2001 36.4 43.4001C32.8 45.2001 28.6 45.8001 24.6 45.8001C16.6 45.8001 7.49999 43.3001 2.99999 36.2001C-9.05991e-06 31.5001 0.899991 26.1001 2.99999 21.3001C5.39999 15.6001 9.69999 10.4001 15 7.10008C15.6 6.70008 15 4.40008 14.9 4.40008C4.39999 10.5001 -1.70001 22.6001 0.399991 34.6001C1.29999 39.4001 3.59999 43.4001 7.59999 46.3001C11.3 49.0001 15.8 50.5001 20.4 51.1001C24.7 51.7001 29.3 51.6001 33.4 50.4001C38.4 48.9001 42.8 45.4001 45.6 41.0001C48.8 35.7001 50 29.6001 49.8 23.6001Z" fill="#E63068"/>
<path d="M26.6004 26.9002C24.7004 29.4002 23.0004 32.1002 22.1004 35.1002C21.9004 35.7002 21.9004 36.3002 22.0004 36.9002C22.0004 37.0002 22.1004 38.0002 22.4004 37.7002C23.3004 36.8002 23.9004 35.7002 24.6004 34.7002C25.4004 33.5002 26.2004 32.4002 27.1004 31.2002C28.0004 30.0002 28.9004 28.9002 29.8004 27.8002C30.7004 26.7002 31.8004 25.5002 32.6004 24.3002C33.0004 23.7002 32.9004 22.6002 32.9004 21.9002C32.9004 21.4002 32.9004 20.3002 32.4004 20.0002C29.8004 18.7002 27.9004 16.5002 25.5004 15.0002C24.6004 14.4002 23.4004 13.5002 22.2004 13.6002C21.4004 13.7002 20.7004 14.5002 21.1004 15.4002C21.6004 16.3002 22.6004 16.7002 23.5004 17.1002C24.6004 17.7002 25.7004 18.4002 26.6004 19.2002C27.8004 20.2002 29.0004 21.3002 30.2004 22.3002C29.9004 22.7002 29.6004 23.0002 29.4004 23.3002C28.5004 24.6002 27.5004 25.7002 26.6004 26.9002Z" fill="#E63068"/>
</g>
<defs>
<clipPath id="clip0">
<rect width="49.8" height="51.4" fill="white"/>
</clipPath>
</defs>
</svg>
