<svg width="22" height="22" viewBox="0 0 22 22" fill="none" xmlns="http://www.w3.org/2000/svg">
<path d="M7.62681 16.0879C6.13523 16.0879 4.92188 17.3012 4.92188 18.7928C4.92188 20.2844 6.13523 21.4978 7.62681 21.4978C9.11839 21.4978 10.3317 20.2844 10.3317 18.7928C10.3317 17.3012 9.11839 16.0879 7.62681 16.0879ZM7.62681 19.952C6.98769 19.952 6.46755 19.4319 6.46755 18.7928C6.46755 18.1537 6.98769 17.6335 7.62681 17.6335C8.26619 17.6335 8.78607 18.1537 8.78607 18.7928C8.78607 19.4319 8.26597 19.952 7.62681 19.952Z" fill="white"/>
<path d="M16.2831 16.0879C14.7915 16.0879 13.5781 17.3012 13.5781 18.7928C13.5781 20.2844 14.7915 21.4978 16.2831 21.4978C17.7746 21.4978 18.988 20.2844 18.988 18.7928C18.988 17.3012 17.7746 16.0879 16.2831 16.0879ZM16.2831 19.952C15.6439 19.952 15.1238 19.4319 15.1238 18.7928C15.1238 18.1537 15.6439 17.6335 16.2831 17.6335C16.9224 17.6335 17.4423 18.1537 17.4423 18.7928C17.4423 19.4319 16.9222 19.952 16.2831 19.952Z" fill="white"/>
<path d="M21.836 5.79724C21.6897 5.60993 21.465 5.50045 21.2272 5.50045H17.5176C17.0908 5.50045 16.7448 5.84644 16.7448 6.27329C16.7448 6.70014 17.0908 7.04613 17.5176 7.04613H20.2393L18.691 13.2804H6.1886L4.84685 7.04587H7.54801V5.50019H4.51419L3.76962 2.04046C3.69283 1.68442 3.3783 1.43018 3.01405 1.43018H0.772839C0.345986 1.43018 0 1.77616 0 2.20301C0 2.62987 0.345986 2.97585 0.772839 2.97585H2.38989L4.80887 14.2155C4.88565 14.5715 5.20018 14.8258 5.56443 14.8258H19.2952C19.6502 14.8258 19.9595 14.5836 20.045 14.2392L21.9771 6.45956C22.0346 6.22873 21.9823 5.98449 21.836 5.79724Z" fill="white"/>
<path d="M12.5198 0.502441C9.36633 0.502441 6.80078 3.06799 6.80078 6.22143C6.80078 9.37488 9.36633 11.9404 12.5198 11.9404C15.6732 11.9404 18.2388 9.37488 18.2388 6.22143C18.2388 3.06799 15.6732 0.502441 12.5198 0.502441ZM12.5198 10.3947C10.2185 10.3947 8.34646 8.52242 8.34646 6.22143C8.34646 3.92045 10.2185 2.04812 12.5198 2.04812C14.8208 2.04812 16.6931 3.92045 16.6931 6.22143C16.6931 8.52242 14.8211 10.3947 12.5198 10.3947Z" fill="white"/>
<path d="M12.5189 3.82568C12.0921 3.82568 11.7461 4.17167 11.7461 4.59852V7.84444C11.7461 8.27129 12.0921 8.61728 12.5189 8.61728C12.9458 8.61728 13.2918 8.27129 13.2918 7.84444V4.59852C13.2918 4.17163 12.9458 3.82568 12.5189 3.82568Z" fill="white"/>
<path d="M14.118 5.44824H10.8978C10.471 5.44824 10.125 5.79423 10.125 6.22108C10.125 6.64794 10.471 6.99392 10.8978 6.99392H14.118C14.5448 6.99392 14.8908 6.64794 14.8908 6.22108C14.8908 5.79423 14.5449 5.44824 14.118 5.44824Z" fill="white"/>
</svg>
