<svg width="15" height="15" viewBox="0 0 15 15" fill="none" xmlns="http://www.w3.org/2000/svg">
<g clip-path="url(#clip0)">
<path d="M10.9396 0L4.06036 0C1.82144 0 0 1.82144 0 4.06036L0 10.9397C0 13.1785 1.82144 15 4.06036 15L10.9397 15C13.1785 15 15 13.1785 15 10.9397L15 4.06036C15 1.82144 13.1785 0 10.9396 0V0ZM7.49999 11.6014C5.23841 11.6014 3.39855 9.76156 3.39855 7.49999C3.39855 5.23841 5.23841 3.39855 7.49999 3.39855C9.76156 3.39855 11.6014 5.23841 11.6014 7.49999C11.6014 9.76156 9.76156 11.6014 7.49999 11.6014V11.6014ZM11.6995 4.3658C11.0312 4.3658 10.4876 3.82221 10.4876 3.15387C10.4876 2.48554 11.0312 1.94183 11.6995 1.94183C12.3678 1.94183 12.9115 2.48554 12.9115 3.15387C12.9115 3.82221 12.3678 4.3658 11.6995 4.3658Z" fill="black"/>
<path d="M7.49942 4.27783C5.72284 4.27783 4.27734 5.72322 4.27734 7.49991C4.27734 9.27649 5.72284 10.722 7.49942 10.722C9.27611 10.722 10.7215 9.27649 10.7215 7.49991C10.7215 5.72322 9.27611 4.27783 7.49942 4.27783V4.27783Z" fill="black"/>
<path d="M11.6998 2.82129C11.5164 2.82129 11.3672 2.97052 11.3672 3.15385C11.3672 3.33719 11.5164 3.48642 11.6998 3.48642C11.8832 3.48642 12.0324 3.3373 12.0324 3.15385C12.0324 2.97041 11.8832 2.82129 11.6998 2.82129Z" fill="black"/>
</g>
<defs>
<clipPath id="clip0">
<rect width="15" height="15" fill="white"/>
</clipPath>
</defs>
</svg>
