<svg width="69" height="77" viewBox="0 0 69 77" fill="none" xmlns="http://www.w3.org/2000/svg">
<path d="M67.6175 39.0168C67.1405 33.2248 67.5565 27.3208 67.0845 21.5118C67.0145 20.6638 64.8005 19.3018 64.8315 19.6798C64.8405 19.8028 64.8445 19.9257 64.8535 20.0487C64.7905 20.0317 64.7265 20.0008 64.6695 20.0028C62.1245 20.0858 59.6065 20.3717 57.0825 20.6217C59.9765 19.1177 61.2695 15.9538 58.2935 13.5598C56.3665 12.0098 53.9885 11.8998 51.6185 12.3008C52.2515 9.67276 51.1235 6.63374 48.7595 5.25874C45.7985 3.53574 41.9675 6.15676 38.5035 9.71376C38.5075 9.63976 38.5125 9.56876 38.5155 9.49376C38.6345 6.55776 38.3005 3.18775 35.9575 1.13575C32.9165 -1.52825 29.4875 0.947755 27.6125 3.89876C27.2585 4.45776 27.0085 5.04875 26.8435 5.66475C24.4395 4.08175 21.6195 3.09877 19.2815 4.30577C16.4545 5.76477 17.3245 8.45175 18.9145 10.5838C16.2495 10.1058 13.6235 10.3968 11.5055 12.3388C9.13352 14.5128 13.3155 18.0527 14.9905 18.9017C16.4575 19.6467 17.9805 20.2028 19.5355 20.6268C13.1355 20.7678 6.73653 21.0307 0.334527 21.1687C0.213527 21.1707 0.25053 21.3458 0.36953 21.5878C0.0965303 21.4598 -0.0684801 21.4598 0.0275199 21.6968C2.25152 27.1888 1.34251 33.0688 1.78951 38.8308C1.69251 38.8308 1.59651 38.8348 1.50051 38.8348C1.07651 38.8368 2.56952 41.0267 3.41052 41.0227C3.43152 41.0227 3.45453 41.0217 3.47653 41.0217C3.82553 41.2177 4.09354 41.3078 4.08154 41.1788C4.07654 41.1228 4.07354 41.0678 4.06854 41.0128C4.77854 41.0068 5.48753 40.9898 6.19653 40.9768C5.41353 51.8738 7.30553 62.9658 7.16253 73.8778C6.99753 73.8598 6.83153 73.8548 6.66753 73.8348C6.35153 73.7978 7.72252 75.9228 8.57552 76.0228C16.9915 77.0048 25.8805 75.9977 34.3595 76.0307C44.3785 76.0697 54.3765 76.2468 64.3955 76.1908C64.5925 76.2728 64.7155 76.2768 64.7335 76.1908C64.8475 76.1898 64.9625 76.1907 65.0755 76.1897C65.2625 76.1887 65.0715 75.7648 64.7375 75.2928C64.5695 63.7698 64.8765 52.2198 64.5815 40.7018C65.6045 40.6688 66.6285 40.6328 67.6475 40.5638C67.6595 40.5648 67.6655 40.5617 67.6755 40.5617C67.9195 40.5447 68.1645 40.5407 68.4085 40.5227C68.7095 40.4987 68.2255 39.6498 67.6175 39.0168ZM49.9615 15.2868C51.8755 14.7758 53.8115 14.4177 55.7605 14.3017C59.0355 14.1077 57.6125 16.7267 55.8895 18.0097C54.1635 19.2937 51.6605 19.6918 49.5815 20.0208C47.1255 20.4098 44.6515 20.3608 42.1685 20.2178C45.1915 19.2688 48.0145 17.6208 49.9615 15.2868ZM35.0455 23.3868C33.1075 25.2128 31.3775 27.2318 29.6045 29.2128C29.6085 27.0098 29.5215 24.8547 28.8875 22.7197C30.6975 22.7187 32.5065 22.7278 34.3175 22.7668C36.8795 22.8228 39.4385 22.9108 42.0005 22.9948C42.0845 25.0528 41.9355 27.1098 42.0005 29.1808C42.0245 29.9928 42.0895 30.8057 42.1705 31.6207C41.7925 30.8137 40.2705 29.7008 40.0465 30.0548C39.1715 31.4368 38.1925 32.7468 37.2125 34.0548C36.7575 34.6608 39.0195 36.6067 39.3705 36.1387C40.3505 34.8307 41.3295 33.5207 42.2045 32.1387C42.2145 32.1237 42.2145 32.1067 42.2225 32.0907C42.4255 34.0107 42.7045 35.9348 42.8325 37.8468C42.8355 37.8998 42.8685 37.9588 42.8885 38.0158C40.1815 37.9058 37.4805 37.8237 34.7925 37.8327C33.1165 37.8377 31.4425 37.8677 29.7685 37.9067C29.7485 35.9647 29.6345 34.0247 29.6055 32.0827C30.0625 32.4467 30.5245 32.6678 30.7055 32.4718C32.8635 30.1288 34.8845 27.6598 37.2055 25.4718C37.6725 25.0298 35.5605 22.9008 35.0455 23.3868ZM37.3925 15.8338C39.8475 12.9868 42.5305 10.3287 45.5535 8.22975C50.4335 4.84375 49.7645 10.2277 47.6575 13.3117C47.3155 13.4177 46.9775 13.5237 46.6495 13.6257C43.1805 14.7067 39.8165 16.1397 36.5085 17.6637C36.8535 17.0757 37.1485 16.4678 37.3925 15.8338ZM35.9655 3.49876C36.8425 6.80476 36.5825 10.2018 35.3975 13.2218C35.0295 13.6728 34.6715 14.1218 34.3265 14.5638C33.8255 12.8978 32.5945 11.2687 30.9755 9.32774C30.5405 8.80474 29.9975 8.23076 29.3805 7.65776C30.6765 4.55076 34.9565 -0.304239 35.9655 3.49876ZM29.1805 8.20375C31.8575 10.4637 32.6935 14.2538 31.3445 17.3178C31.2625 17.2038 31.1785 17.0898 31.0875 16.9768C29.9905 14.4948 29.1005 11.9587 29.0065 9.17274C28.9975 8.90574 29.0615 8.57375 29.1805 8.20375ZM25.2645 6.39876C25.7525 6.48676 26.2085 6.62174 26.6465 6.77574C26.3835 9.25674 27.2785 12.0127 28.3795 14.5387C27.9515 14.2407 27.5615 13.9998 27.2625 13.8438C25.3135 12.8208 22.9875 11.6657 20.6165 10.9797C17.8755 7.62475 21.2285 5.67076 25.2645 6.39876ZM26.9815 16.1628C26.0355 15.4018 25.0825 14.6698 24.1135 13.9518C25.1055 14.3338 26.0955 14.7198 27.0755 15.1318C29.2035 17.5758 29.1725 17.9198 26.9815 16.1628ZM19.0645 18.8048C16.6765 18.3548 11.7365 16.1897 14.7035 13.4707C16.3855 11.9297 18.9905 12.3257 21.2285 12.9697C23.3615 14.7457 25.5765 16.5498 27.8635 18.0928C28.4705 18.5028 29.1815 19.0247 29.9315 19.3847C26.2755 19.6267 22.6915 19.4888 19.0645 18.8048ZM3.93551 38.7998C3.73851 33.5788 4.23552 28.3257 2.29052 23.3547C10.5485 23.1767 18.7975 22.7867 27.0545 22.7247C27.4295 24.7807 27.3785 26.8638 27.3395 28.9898C27.2845 31.9848 27.6055 34.9668 27.4985 37.9638C19.6435 38.1978 11.7955 38.6748 3.93551 38.7998ZM9.42251 74.0748C9.37451 63.1448 7.52153 52.0538 8.58453 41.1788C8.59253 41.1038 8.56151 41.0178 8.53051 40.9328C15.3955 40.7558 22.2535 40.3587 29.1175 40.1517C29.8745 51.2127 29.4695 62.2958 30.1655 73.3468C30.1745 73.5088 30.2795 73.6917 30.4185 73.8757C23.4495 73.9927 16.3285 74.5628 9.42251 74.0748ZM34.3965 73.8648C33.7165 73.8528 33.0335 73.8588 32.3495 73.8608C31.9885 67.3138 31.9765 60.7568 31.8505 54.2008C32.4265 54.7668 33.1775 55.2258 33.3695 54.9718C35.9875 51.4998 38.3535 47.8508 40.8695 44.3048C41.3165 43.6748 39.0385 41.7597 38.7115 42.2207C36.3905 45.4927 34.1885 48.8477 31.8055 52.0747C31.7585 50.0867 31.6995 48.0978 31.6085 46.1108C32.1875 46.7848 33.1335 47.4328 33.3705 47.1378C34.5565 45.6578 36.1365 44.5028 37.0375 42.8038C37.4325 42.0608 35.0955 40.3157 34.8795 40.7197C34.0605 42.2647 32.6815 43.3628 31.5465 44.6618C31.4665 43.1668 31.3725 41.6728 31.2515 40.1788C31.2505 40.1538 31.2295 40.1238 31.2245 40.0978C33.0485 40.0538 34.8755 40.0228 36.7015 40.0198C38.4545 40.0168 40.2145 40.0558 41.9765 40.1108C42.6665 42.2838 42.8495 44.8288 42.8895 47.3858C42.3615 46.6148 41.0155 45.6748 40.8325 46.1798C39.2845 50.4298 36.0065 53.7647 33.2125 57.2197C32.7505 57.7917 34.9845 59.7818 35.3705 59.3038C38.1415 55.8768 41.2595 52.5967 42.9015 48.4497C42.9075 50.9877 42.8175 53.4917 42.9735 55.6087C43.3055 60.1377 43.1375 64.7118 43.2655 69.2438C42.6685 68.5058 41.4565 67.7268 41.3315 68.1808C41.1635 68.7898 40.8145 69.2737 40.3785 69.7207C39.9085 70.2037 42.0635 72.2918 42.5365 71.8048C42.8675 71.4648 43.1245 71.0998 43.3205 70.6938C43.3625 71.6358 43.4165 72.5767 43.4995 73.5137C43.5105 73.6527 43.5945 73.8068 43.7015 73.9628C40.6015 73.9358 37.5025 73.9148 34.3965 73.8648ZM45.6485 73.9837C45.1525 67.2827 45.2785 60.3508 45.0075 53.6368C44.8375 49.4098 45.2775 44.1827 43.5995 40.1607C49.8495 40.3917 56.1375 40.8167 62.3675 40.7467C62.5925 51.8227 62.3205 62.9258 62.4955 74.0028C56.8745 74.0368 51.2625 74.0227 45.6485 73.9837ZM44.9525 38.1058C44.7635 35.7368 44.5255 33.3738 44.2505 31.0118C43.9435 28.3708 44.4245 25.7148 44.1055 23.0578C46.4135 23.1288 48.7205 23.1918 51.0315 23.2138C55.7355 23.2588 60.3225 22.5378 64.9845 22.2658C65.2125 27.6398 64.9085 33.0677 65.4715 38.3887C58.6905 38.8217 51.8105 38.4148 44.9525 38.1058Z" fill="#E52E68"/>
<path d="M38.0426 26.5535C35.6516 29.2745 33.1886 31.9305 30.8756 34.7205C30.4126 35.2805 32.6366 37.2835 33.0336 36.8045C35.3466 34.0155 37.8096 31.3595 40.2006 28.6375C40.6686 28.1055 38.4676 26.0705 38.0426 26.5535Z" fill="#E52E68"/>
<path d="M40.5422 54.5539C38.8372 58.4859 36.0012 61.7529 33.5422 65.2199C33.0952 65.8509 35.3742 67.7649 35.7002 67.3039C38.1592 63.8369 40.9962 60.5699 42.7002 56.6379C43.0492 55.8329 40.6982 54.1959 40.5422 54.5539Z" fill="#E52E68"/>
<path d="M40.3786 61.3869C38.8526 64.5519 37.0426 67.5579 35.2116 70.5539C34.7886 71.2459 37.1046 73.0729 37.3696 72.6379C39.2006 69.6419 41.0106 66.6369 42.5366 63.4709C42.9096 62.6969 40.5626 61.0029 40.3786 61.3869Z" fill="#E52E68"/>
</svg>
