<svg width="89" height="84" viewBox="0 0 89 84" fill="none" xmlns="http://www.w3.org/2000/svg">
<path d="M37.5705 24.7589C36.7355 23.6169 35.0925 23.1099 33.8275 22.6639C33.3255 22.4869 32.8105 22.3379 32.2915 22.2039C30.0135 21.3249 27.6395 20.8139 25.1025 21.1199C18.7065 21.8919 17.2565 31.4379 15.5905 36.2189C12.8845 43.9879 10.5145 51.7089 7.36649 59.3299C4.25349 66.8699 1.3185 74.4859 0.00250463 82.5719C-0.0334954 82.7919 0.323502 82.9989 0.756502 83.1359C1.1775 83.3509 1.78148 83.5679 1.99948 83.5709C4.62148 83.6159 7.41851 83.8959 9.72751 82.4469C12.0965 80.9589 11.7255 76.5379 11.7005 74.2169C11.6565 70.3749 12.1495 66.5839 13.1375 62.8729C14.5385 57.6019 21.1485 55.6939 26.0075 56.4729C26.4785 56.5469 26.6955 56.5139 26.7475 56.4279C27.2225 56.1979 27.4365 55.4629 26.8395 55.1419C26.1745 54.7849 25.6145 54.6569 24.8655 54.5879C23.2065 54.4419 21.7865 54.3689 20.1695 53.8679C18.5265 53.3599 16.8335 52.8399 15.1245 52.4389C15.1965 52.0699 15.2915 51.7089 15.3785 51.3439C17.1615 51.8989 18.9545 52.4019 20.7855 52.7839C22.9855 53.2429 25.0795 54.0789 27.3175 54.3749C28.2425 54.4979 28.6295 53.0789 27.6915 52.9539C25.6765 52.6859 23.7645 52.0049 21.8015 51.5039C19.7725 50.9869 17.7585 50.5089 15.7565 49.9129C15.8605 49.5589 15.9585 49.2039 16.0705 48.8539C17.8515 48.8689 19.5465 49.6299 21.2245 50.1569C23.4245 50.8489 25.6895 51.3989 27.9515 51.8449C28.8755 52.0259 29.2565 50.6079 28.3255 50.4229C26.0535 49.9759 23.8345 49.3529 21.6015 48.7369C19.9085 48.2719 18.2995 47.5339 16.5605 47.4019C16.7055 46.9909 16.8515 46.5809 17.0015 46.1719C17.7225 46.2579 18.4525 46.6089 19.0795 46.8519C20.0295 47.2199 21.0445 47.4229 22.0345 47.6599C23.0875 47.9109 24.1415 48.1179 25.1855 48.4099C26.3035 48.7209 27.8575 48.8299 28.7745 49.5859C29.5005 50.1839 30.5455 49.1509 29.8155 48.5489C28.1335 47.1619 25.1695 46.7989 23.0815 46.3999C21.6985 46.1349 20.3055 45.7619 18.9925 45.2539C18.5055 45.0649 18.0145 44.8919 17.5165 44.7879C17.6865 44.3329 17.8575 43.8769 18.0245 43.4209C19.4345 43.6419 20.7665 44.4709 22.0555 45.0249C24.3855 46.0249 26.9275 46.4229 29.2665 47.4119C30.1285 47.7769 30.8755 46.5109 30.0055 46.1419C27.5335 45.0969 24.8595 44.6419 22.3995 43.5849C21.1445 43.0449 19.8705 42.3099 18.5225 42.0179C18.5755 41.8609 18.6335 41.7049 18.6865 41.5469C19.3915 41.6379 20.0845 42.0859 20.6925 42.3729C21.4625 42.7399 22.3045 42.9299 23.1285 43.1339C25.5055 43.7209 27.9255 44.0689 30.1855 45.0529C31.0445 45.4279 31.7905 44.1609 30.9245 43.7829C28.5325 42.7419 26.0185 42.3379 23.5035 41.7129C22.1475 41.3759 20.6165 40.4049 19.1305 40.1389C19.1385 40.1149 19.1465 40.0919 19.1525 40.0689C19.2005 39.9049 19.2545 39.7479 19.3025 39.5859C21.1215 39.9669 22.9335 40.3489 24.7065 40.9359C26.7585 41.6149 28.9305 41.7409 30.8965 42.6869C31.7465 43.0949 32.4895 41.8279 31.6355 41.4169C29.9215 40.5929 28.0875 40.2509 26.2455 39.8269C24.0615 39.3259 21.9215 38.6959 19.7335 38.1949C19.8425 37.8449 19.9495 37.4869 20.0615 37.1399C21.9775 37.3509 23.8525 38.0609 25.7235 38.4809C27.8515 38.9599 29.9735 39.1809 31.8975 40.2879C32.7195 40.7609 33.4565 39.4909 32.6355 39.0179C30.6125 37.8529 28.3565 37.5209 26.0985 37.0609C24.2235 36.6789 22.4105 36.0089 20.5235 35.7349C20.5545 35.6459 20.5835 35.5549 20.6125 35.4659C20.7085 35.2429 20.8055 35.0209 20.9015 34.7979C22.0635 35.2589 23.3445 35.3199 24.6375 35.3799C27.7075 35.5219 30.7215 36.4439 33.5845 37.5229C34.4695 37.8569 34.8345 36.4339 33.9575 36.1029C31.4615 35.1629 28.9205 34.4609 26.2865 34.0329C24.7755 33.7869 22.9275 34.1009 21.4655 33.4909C21.6275 33.1179 21.7875 32.7429 21.9505 32.3689C25.9045 32.9849 30.5125 32.9609 33.9525 34.9559C34.7735 35.4319 35.5105 34.1609 34.6915 33.6869C31.1665 31.6419 26.5885 31.6039 22.5485 30.9869C22.6695 30.7029 22.7925 30.4199 22.9145 30.1359C24.9885 30.3659 26.9955 30.8979 29.0425 31.3179C30.9235 31.7049 32.8265 31.7869 34.5375 32.7519C35.3635 33.2179 36.1005 31.9489 35.2765 31.4819C33.4625 30.4569 31.4365 30.2549 29.4165 29.8979C27.4295 29.5459 25.5015 29.0219 23.5125 28.7399C23.6135 28.5039 23.7165 28.2689 23.8165 28.0319C27.8045 28.3349 31.6235 29.9019 35.5555 30.5069C36.4825 30.6499 36.8655 29.2319 35.9295 29.0869C32.0595 28.4919 28.3065 27.0059 24.3955 26.6029C24.5425 26.2379 24.6955 25.8749 24.8395 25.5099C25.2805 25.6779 25.7435 25.7809 26.2435 25.8349C27.5695 25.9779 28.6915 26.2929 29.9145 26.8129C31.8415 27.6329 34.0705 27.3039 35.9145 28.3509C36.7395 28.8199 37.4765 27.5489 36.6535 27.0809C34.8955 26.0819 32.8665 26.1369 30.9525 25.6329C29.9245 25.3629 28.9875 24.8389 27.9445 24.5859C27.0745 24.3759 26.1895 24.4309 25.3695 24.1309C25.4315 23.9699 25.4975 23.8119 25.5565 23.6509C25.5765 23.5939 25.5895 23.5409 25.5975 23.4879C25.7155 23.3089 25.8325 23.1269 25.9525 22.9489C27.9455 23.1159 29.8725 23.7959 31.8435 24.1599C33.5975 24.4819 34.9765 25.6979 36.6445 26.0449C36.8145 26.1509 37.0195 26.1709 37.2215 26.1229C37.4095 26.1119 37.5635 26.0189 37.6715 25.8789C37.7005 25.8439 37.7235 25.8089 37.7455 25.7689C37.7475 25.7619 37.7515 25.7539 37.7545 25.7479C37.8045 25.6509 37.8305 25.5479 37.8355 25.4379C37.8375 25.4139 37.8395 25.3929 37.8395 25.3689C37.8385 25.3259 37.8355 25.2859 37.8265 25.2459C37.8135 25.1689 37.7925 25.0939 37.7535 25.0269C37.7455 25.0119 37.7325 24.9989 37.7225 24.9829C37.7945 24.9379 37.7595 24.8669 37.5705 24.7589Z" fill="#E52E68"/>
<path d="M67.1813 67.1908C67.4533 62.3048 64.3733 58.5488 60.0003 57.1568C59.7073 56.7398 59.2663 56.4548 58.8033 56.6068C58.7293 56.6318 58.6503 56.6638 58.5733 56.6898C58.5363 52.1618 58.5793 47.7918 59.1583 43.2528C59.6383 39.4718 59.8933 35.6128 58.8263 31.9018C58.8233 31.8948 58.8193 31.8868 58.8173 31.8788C58.8353 31.7798 58.8313 31.6628 58.8023 31.5278C57.8243 26.3868 55.8293 21.4678 54.0893 16.5488C52.2643 11.3948 50.8483 6.00875 49.5243 0.703752C49.3643 0.0587521 48.6793 -0.172225 48.3913 0.133775C48.3893 0.133775 48.3873 0.132768 48.3853 0.132768C48.3233 0.103768 48.2693 0.0937536 48.2243 0.117754C48.1323 0.165754 47.9933 0.295765 47.8873 0.291765C47.6223 0.284765 47.8793 1.08076 48.2013 1.51476C48.3143 1.88576 48.4223 2.25677 48.5323 2.62877C48.8593 3.96677 49.2063 5.30476 49.5793 6.63976C50.7933 13.2548 51.5583 19.9518 53.0083 26.5198C53.2313 27.5318 53.4423 28.5478 53.6493 29.5658C53.5683 30.1778 53.5943 30.6658 53.8793 31.3978C53.9833 31.6678 54.0743 31.9388 54.1623 32.2108C54.6583 34.8518 55.0923 37.5058 55.4463 40.1718C55.4393 40.2368 55.4253 40.2938 55.4333 40.3758C55.5463 41.5808 55.7063 42.7708 55.8963 43.9558C56.3223 48.0408 56.5583 52.1458 56.5303 56.2528C56.4853 56.3178 56.4473 56.4028 56.4263 56.5158C56.3813 56.7268 56.3383 56.9368 56.2933 57.1488C56.2663 57.2878 56.3143 57.4598 56.3883 57.6298C53.3913 59.1858 50.6413 61.8068 50.6553 65.3018C50.6693 68.7068 52.9553 72.1408 56.1263 73.4828C56.0893 73.5458 56.0543 73.6098 56.0323 73.7038C55.7583 74.9578 54.1283 77.6558 55.8213 78.5788C57.6043 79.5548 57.3543 74.8328 57.4983 74.0238C57.5033 73.9948 57.4933 73.9668 57.4963 73.9398C57.4953 73.9298 57.4983 73.9218 57.4993 73.9128C57.8943 73.9968 58.2923 74.0588 58.7003 74.0718C62.7523 74.2168 66.9383 71.5348 67.1813 67.1908ZM57.7003 71.5858C54.1493 71.1468 51.7083 67.4008 53.0803 64.0958C54.0783 61.6818 56.6053 60.1488 59.0013 59.2348C62.7943 60.0628 65.8473 62.7958 65.1513 67.0318C64.6103 70.3458 60.6623 71.9548 57.7003 71.5858Z" fill="#E52E68"/>
<path d="M77.0987 61.545C72.9147 59.008 71.5597 54.343 72.8837 49.948C72.7077 49.469 72.7227 48.945 73.1087 48.651C73.1737 48.601 73.2417 48.554 73.3077 48.505C69.5927 45.914 65.9657 43.478 61.8957 41.388C58.5037 39.647 55.1787 37.673 52.7237 34.695C52.7177 34.688 52.7137 34.682 52.7077 34.675C52.6177 34.632 52.5217 34.563 52.4267 34.465C48.7407 30.752 45.8137 26.322 42.7387 22.105C39.5197 17.685 35.8797 13.471 32.2547 9.37898C31.8117 8.88098 32.0107 8.18698 32.4247 8.11998C32.4267 8.11898 32.4267 8.11598 32.4287 8.11498C32.4387 8.05098 32.4617 7.99798 32.5067 7.97298C32.5977 7.92698 32.7817 7.88397 32.8407 7.79497C32.9847 7.57197 33.4967 8.23399 33.6707 8.74599C33.9117 9.04899 34.1567 9.34797 34.4007 9.64897C35.3187 10.676 36.2287 11.716 37.1177 12.781C41.8857 17.524 46.9747 21.942 51.5727 26.852C52.2807 27.609 53.0007 28.357 53.7227 29.102C54.2737 29.381 54.6607 29.68 55.1027 30.327C55.2657 30.565 55.4377 30.794 55.6157 31.021C57.5107 32.922 59.4557 34.781 61.4517 36.583C61.5117 36.613 61.5637 36.636 61.6297 36.689C62.5567 37.462 63.4477 38.267 64.3177 39.093C67.4457 41.756 70.6997 44.271 74.1007 46.572C74.1797 46.571 74.2737 46.589 74.3767 46.633C74.5757 46.717 74.7747 46.799 74.9717 46.883C75.1027 46.938 75.2187 47.075 75.3147 47.233C78.2957 45.641 82.0097 44.856 84.8867 46.843C88.4047 49.276 89.9437 54.695 87.5687 58.439C85.3987 61.866 80.8177 63.799 77.0987 61.545ZM86.0877 56.211C87.7317 53.034 86.0247 48.901 82.5217 48.162C79.9637 47.622 77.2747 48.839 75.1637 50.298C73.7007 53.895 74.2297 57.957 78.1167 59.779C81.1557 61.208 84.7147 58.862 86.0877 56.211Z" fill="#E52E68"/>
<path d="M57.1777 37.1167C58.0288 37.1167 58.7187 36.4267 58.7187 35.5757C58.7187 34.7246 58.0288 34.0347 57.1777 34.0347C56.3267 34.0347 55.6367 34.7246 55.6367 35.5757C55.6367 36.4267 56.3267 37.1167 57.1777 37.1167Z" fill="white"/>
</svg>
