<svg width="82" height="84" viewBox="0 0 82 84" fill="none" xmlns="http://www.w3.org/2000/svg">
<path d="M66.5687 16.9861C64.9647 12.2291 60.4597 11.2812 56.1817 12.2972C55.9927 12.2702 55.7887 12.3151 55.5877 12.4541C55.5147 12.4751 55.4397 12.4921 55.3657 12.5141C54.9807 12.6291 54.7987 12.8921 54.7437 13.1861C51.3687 16.3691 50.2457 20.4401 52.6737 24.8141C54.8277 28.6951 60.0477 29.5181 63.6257 27.3081C67.0407 25.1991 67.7567 20.5071 66.5687 16.9861ZM62.9517 25.3131C60.5007 27.5271 56.7207 26.6311 54.7447 24.2941C54.3167 23.7881 54.0017 23.2651 53.7657 22.7351C54.2977 22.5301 54.8437 22.3031 55.3987 22.1151C55.4627 22.1381 55.5367 22.1501 55.6207 22.1411C56.4627 22.0551 57.2937 21.9151 58.1237 21.7661C60.3997 21.7651 62.5837 22.0161 64.8407 22.2811C64.4787 23.4381 63.8437 24.5081 62.9517 25.3131ZM65.0347 20.0831C63.5777 20.2261 62.1157 20.1951 60.6597 20.3331C60.3857 20.3591 60.1137 20.4031 59.8417 20.4421C58.9457 20.4511 58.0557 20.5501 57.1817 20.7371C55.9027 20.7731 54.6387 21.3321 53.4377 21.7921C52.7557 19.0391 54.2677 16.1851 56.5177 14.2681C60.0127 13.3541 63.0957 13.9571 64.6857 17.6611C65.0177 18.4331 65.1597 19.2652 65.1677 20.0992C65.1227 20.0902 65.0777 20.0781 65.0347 20.0831Z" fill="#E52E68"/>
<path d="M81.0665 16.986C79.5155 12.386 75.2535 11.354 71.1055 12.209C71.2055 12.391 71.3055 12.572 71.4065 12.752C71.7405 13.125 72.0225 13.55 72.3025 14C75.2565 13.552 77.7924 14.419 79.1844 17.661C79.5164 18.433 79.6585 19.265 79.6665 20.099C79.6215 20.09 79.5764 20.079 79.5334 20.083C78.2634 20.208 76.9905 20.206 75.7205 20.293C75.7535 20.335 75.7835 20.382 75.8045 20.439C75.8585 20.492 75.9065 20.554 75.9335 20.635C76.0825 21.08 76.2335 21.522 76.3905 21.963C77.3685 22.054 78.3465 22.164 79.3385 22.28C78.9955 23.377 78.3995 24.387 77.5795 25.176C77.6655 25.362 77.7255 25.569 77.7485 25.801C77.8325 25.883 77.8885 25.997 77.8885 26.142C77.8885 26.582 77.8785 27.017 77.8255 27.455C77.8255 27.459 77.8215 27.462 77.8215 27.466C77.9215 27.411 78.0255 27.367 78.1235 27.307C81.5385 25.199 82.2545 20.507 81.0665 16.986Z" fill="#E52E68"/>
<path d="M73.3968 25.8971C72.9038 25.1271 71.9638 25.3921 71.4848 26.0001C71.1858 26.1311 70.9708 26.3821 70.9808 26.7841C70.9908 27.2041 71.2678 27.5201 71.6218 27.6801C71.8858 27.8841 72.1998 27.8981 72.4908 27.7921C73.0938 27.7761 73.6418 27.3211 73.4668 26.7211C73.5618 26.4471 73.5648 26.1581 73.3968 25.8971Z" fill="#E52E68"/>
<path d="M78.2981 30.9512C78.6901 20.3702 73.2911 11.6212 64.2991 5.90023C60.1451 3.25623 54.4351 -0.0727878 49.3461 0.00121218C43.0841 0.0912122 41.2121 4.23421 40.7641 9.87121C40.7631 9.88421 40.7681 9.89822 40.7681 9.91222C39.2161 9.65922 28.8201 7.08722 28.8891 9.60622C28.9591 12.1482 26.8581 12.6802 24.8021 13.7582C22.2231 15.1122 19.5301 16.3122 17.5521 18.4922C17.1451 18.9412 18.3531 19.8632 19.1581 20.2742C15.3291 23.2172 11.9561 26.5292 9.42713 30.7422C9.06013 31.3542 11.0291 32.9082 11.6051 32.7312C11.6961 32.7032 11.7801 32.6652 11.8691 32.6352C9.68515 36.6382 8.09314 41.1192 7.89014 45.6212C7.86414 46.2122 9.67515 47.9122 10.2271 47.4212C10.4841 47.1922 10.7191 46.9492 10.9641 46.7132C10.9331 49.4772 11.0831 52.2192 11.5151 54.9962C11.5161 55.0022 11.5221 55.0102 11.5231 55.0162C8.58314 56.0442 5.65415 57.0862 2.73615 58.0642C2.51115 57.9602 2.31013 57.9302 2.17313 58.0302C2.01913 58.1412 1.89013 58.2712 1.75413 58.3952C1.71613 58.4082 1.67814 58.4212 1.64014 58.4342C1.55914 58.4602 1.51913 58.5222 1.51313 58.6062C-1.51287 61.7582 0.470131 68.1892 3.34513 70.7042C4.16513 71.4222 4.37313 71.2612 4.26313 70.8392C4.34813 70.8412 4.42214 70.8242 4.47614 70.7732C7.05014 68.2442 10.0851 66.3762 13.1601 64.5572C17.5881 74.1222 25.8431 83.1282 37.0781 83.5382C42.3911 83.7322 47.2051 82.3522 51.0731 78.6122C55.2001 74.6202 53.2031 69.9032 50.0881 66.2722C49.9761 66.2132 49.8731 66.1412 49.7811 66.0522C49.5391 65.9562 49.2961 65.8612 49.0431 65.7942C48.8091 65.7322 48.5791 65.6562 48.3731 65.5302C48.3451 65.5432 48.3121 65.5492 48.2851 65.5632C47.0361 65.0762 45.6581 65.0002 44.3661 65.3892C44.1781 65.4462 44.0491 65.5422 43.9441 65.6562C42.6871 65.9972 41.4481 67.2012 40.7691 68.5842C40.5621 69.9902 40.7261 71.1472 41.2121 72.3692C41.6271 72.9412 42.1202 73.4542 42.7452 73.7652C42.7812 73.7592 42.8171 73.7672 42.8521 73.7592C43.0491 72.6662 43.7371 71.5502 44.7641 71.3102C45.9771 70.8002 47.5131 71.8712 46.7971 73.8372C46.2461 75.3512 44.5711 75.5762 43.2091 75.5122C40.8071 75.3982 38.4541 74.1972 36.3961 73.0452C31.6741 70.4012 29.6971 65.2132 30.3511 60.1302C30.9471 59.9252 31.4551 59.5802 31.8241 59.0762C32.2221 58.7692 32.4241 58.2962 32.2711 57.5622C32.2101 57.2702 32.0801 56.9952 31.9141 56.7312C34.6201 56.0222 37.3811 55.4502 40.2831 55.0852C41.0941 54.9832 41.9371 54.8492 42.7951 54.7042C43.8371 55.4212 44.8971 55.8452 46.0061 56.0222C48.2031 56.6902 50.5901 56.1582 52.4671 54.4322C52.9751 54.1232 53.4762 53.7842 53.9862 53.4292C54.0122 53.4102 54.0241 53.3882 54.0441 53.3672C56.3801 53.4292 58.6301 53.8492 60.6491 54.9412C60.8781 55.0642 61.0032 55.0862 61.0552 55.0412C62.0722 55.4492 63.1891 55.3572 64.2141 54.3732C65.6601 52.9842 65.4571 50.1912 64.1981 48.7752C63.3701 47.8432 62.3761 47.0062 61.1061 46.8202C60.8981 46.7912 60.6931 46.7812 60.4881 46.7872C60.4611 46.7562 60.4381 46.7232 60.3971 46.6972C58.3501 45.3572 55.9801 44.1992 54.0441 42.6692C54.4011 42.6232 54.7681 42.5682 55.1471 42.5012C63.0941 41.0812 73.9391 39.3552 78.6001 31.7942C78.7281 31.5882 78.5751 31.2722 78.2981 30.9512ZM2.74213 68.2972C2.40313 67.1182 2.41014 65.5442 2.42014 64.6942C2.43514 63.1962 2.80315 61.5832 3.86915 60.5102C9.31615 58.7112 14.7651 56.7642 20.2601 55.0062C20.6551 55.7972 21.1641 56.4712 21.7611 57.0502C21.0171 57.3522 20.2761 57.6542 19.5371 57.9572C18.5221 58.5192 17.4331 58.9382 16.4371 59.5442C15.7301 59.9732 15.0051 60.3972 14.1991 60.5612C10.2511 62.9682 6.13713 65.1152 2.74213 68.2972ZM43.5471 77.5162C46.5841 77.6602 50.5532 74.5602 48.6932 71.2122C47.0642 68.2802 43.8121 68.7062 42.3001 70.9502C41.8741 70.0052 42.9041 68.6142 43.8901 67.9212C44.6071 67.2402 45.4042 66.8922 46.4562 66.9912C46.9612 67.0382 47.4431 67.1592 47.8821 67.3622C48.1451 67.4162 48.3891 67.5362 48.5791 67.6982C48.6251 67.6942 48.6721 67.6952 48.7141 67.6822C50.5361 69.7112 52.1581 71.8832 50.9151 75.2892C50.0611 77.6342 47.4991 79.1482 45.4141 80.1702C40.9861 82.3422 35.7661 81.7742 31.2571 80.2482C23.3911 77.5862 18.1552 70.8332 14.8782 63.5362C16.0222 62.8592 17.1611 62.1742 18.2731 61.4472C18.2741 61.4452 18.2742 61.4442 18.2752 61.4432C18.6552 61.2902 19.0321 61.1302 19.4081 60.9652C19.4181 60.9622 19.4291 60.9642 19.4381 60.9602C21.1081 60.2902 22.7541 59.6732 24.3971 59.0862C25.4341 59.7822 26.9241 60.2962 28.3491 60.3742C27.6111 69.0682 34.0681 77.0672 43.5471 77.5162ZM31.3612 53.9672C30.7802 54.0772 30.2041 54.2132 29.6301 54.3572C29.1181 53.8842 28.5991 53.4192 28.0861 52.9492C28.0181 52.8862 27.9641 52.8122 27.8991 52.7462C29.0051 52.4452 30.1101 52.1392 31.2221 51.8692C33.3871 51.3442 35.5702 51.0132 37.7622 50.7812C37.8452 50.8382 37.9301 50.8922 38.0101 50.9532C38.4511 51.6582 39.0271 52.2342 39.6701 52.7392C36.8951 53.1052 34.1152 53.4452 31.3612 53.9672ZM48.0001 51.5402C47.5921 51.4172 47.1902 51.2782 46.8052 51.1242C46.2052 50.8822 46.3191 50.5542 46.6651 50.2472C50.4511 50.1202 54.2421 50.0132 58.0081 49.5522C57.7851 50.4872 57.8971 51.4662 58.3961 52.4412C55.0991 51.0582 51.5401 51.1162 48.0001 51.5402ZM61.4641 49.2672C61.5011 49.2262 61.5171 49.1722 61.5231 49.1152C61.6771 49.0782 61.8271 49.0312 61.9871 49.0062C62.2761 48.9572 62.5832 48.9572 62.8742 48.9952C63.1502 50.0342 62.8211 51.2642 62.2171 52.1042C61.8501 52.6172 61.2202 52.9702 60.6282 53.1302C60.4622 53.1752 60.3361 53.1712 60.2471 53.1572C60.1991 52.9962 60.1651 52.8312 60.1401 52.6782C59.9081 51.2922 60.5801 50.2442 61.4641 49.2672ZM59.1081 47.0562C58.9891 47.0952 58.8701 47.1302 58.7521 47.1752C58.5901 47.0912 58.4351 47.0342 58.3071 47.0552C56.6061 47.3342 54.9022 47.5262 53.1972 47.6732C51.9602 46.9292 50.7091 46.2262 49.5741 45.3282C48.5701 44.5342 47.6831 43.5952 46.7741 42.6932C47.1041 42.5152 47.4221 42.3142 47.7181 42.0362C47.7941 41.9642 47.8491 41.8892 47.8951 41.8132C49.2481 42.5772 50.8012 42.8752 52.6712 42.7892C52.6962 42.8282 52.7171 42.8672 52.7561 42.9012C54.6131 44.5522 56.9771 45.7342 59.1081 47.0562ZM49.7091 47.4782C48.7251 47.2622 47.7101 46.9772 46.7211 46.9582C45.7991 46.9392 44.2331 47.3762 43.5231 46.6362C43.4651 46.5752 43.4061 46.5372 43.3451 46.5152C42.9631 46.0382 42.5471 45.5782 42.1191 45.1302C43.0961 44.4952 44.1221 43.8642 45.1941 43.4032C45.2291 43.3882 45.2631 43.3752 45.2981 43.3602C46.3711 45.0782 48.0261 46.3882 49.7091 47.4782ZM75.9172 29.7792C73.7052 29.5972 71.3731 30.2252 69.1601 30.0042C68.9801 29.9862 68.8421 30.0562 68.7441 30.1622C67.5311 30.1202 66.3261 30.0862 65.1471 30.1182C61.0631 30.2282 56.9392 30.5092 52.8652 30.7912C52.7912 30.7962 52.7291 30.8162 52.6751 30.8442C52.2601 30.8652 51.8461 30.8822 51.4311 30.9052C50.1941 30.9722 48.9571 31.0592 47.7211 31.1462C46.8501 31.2072 45.9041 31.6672 45.0341 31.3772C44.4301 31.1752 44.0061 32.0822 44.6181 32.2862C45.9171 32.7212 47.3681 32.1732 48.7011 32.0792C51.8721 31.8582 55.0461 31.7262 58.2221 31.6052C61.4891 31.4802 64.7602 31.4702 68.0292 31.4872C70.3312 31.4992 72.6861 31.6962 75.0001 31.5702C72.1721 34.7622 67.7681 36.7572 63.9081 38.1422C60.1251 39.4992 48.5632 43.1702 46.0942 38.3592C45.7792 37.7432 43.4482 36.3522 43.8092 37.0532C44.5892 38.5742 45.4161 39.7502 46.3331 40.6372C46.2831 40.6712 46.2321 40.7062 46.1861 40.7512C45.6261 41.2762 44.6682 41.4302 43.9902 41.7642C42.9432 42.2812 41.9251 42.8712 40.9461 43.5082C40.8551 43.5672 40.8012 43.6402 40.7402 43.7112C40.6302 43.5962 40.5181 43.4822 40.4111 43.3672C38.8861 41.7432 37.5552 39.9532 36.0162 38.3452C36.4522 38.2932 36.8851 38.2412 37.3071 38.1142C37.9271 37.9292 37.5851 36.9892 36.9711 37.1732C36.3831 37.3482 35.7581 37.3492 35.1581 37.4582C35.0291 37.4812 34.9362 37.5482 34.8652 37.6282C34.6072 37.7842 34.4681 38.1862 34.7551 38.4632C36.3841 40.0372 37.7151 41.8722 39.2271 43.5512C40.2821 44.7222 41.6222 45.9432 42.6412 47.2552C43.7542 47.6232 44.8601 47.9512 46.0691 47.7852C46.2371 47.7622 46.3781 47.8162 46.4841 47.9062C46.5991 47.9052 46.7081 47.8862 46.8271 47.8922C47.4051 47.9182 47.4892 48.6842 46.9602 48.8732C46.2072 49.1432 45.3951 49.5402 45.0881 50.3032C45.1461 50.3002 45.2031 50.2982 45.2611 50.2962C45.1761 50.5342 45.1501 50.7902 45.2151 51.0672C45.2321 51.1352 45.2602 51.1992 45.2922 51.2612C45.8212 51.6392 46.4331 52.0472 47.0791 52.3952C48.3061 52.9052 49.5241 52.9152 50.8271 53.0162C51.1191 53.0372 51.2831 53.2352 51.3071 53.4512C51.6231 53.4282 51.9401 53.3982 52.2541 53.3842C50.7691 54.3332 49.2581 55.0132 47.3371 54.6952C46.8071 54.6082 46.2831 54.4252 45.7681 54.1902C45.8031 54.1832 45.8391 54.1782 45.8751 54.1712C45.8681 54.1692 45.8621 54.1702 45.8551 54.1672C45.8021 54.1402 45.7482 54.1142 45.6932 54.0922C45.5712 54.0442 45.4841 53.9542 45.4251 53.8512C44.4651 53.4952 43.5681 52.9452 42.7841 52.3082C42.7691 52.3102 42.7552 52.3122 42.7402 52.3142C42.4622 52.1162 42.1881 51.9212 41.9271 51.7402C41.3781 51.3632 40.8661 50.9532 40.3531 50.5462C40.4011 50.5432 40.4491 50.5412 40.4971 50.5372C39.8791 50.2762 39.3702 49.8812 38.9342 49.4062C38.4382 49.0522 37.9681 48.6682 37.5821 48.1442C37.5621 48.1172 37.5611 48.0912 37.5491 48.0662C36.3281 46.8802 35.1602 45.6362 34.0162 44.3342C31.9482 41.9762 28.8841 38.8512 29.0281 35.4732C29.1931 31.5722 37.2932 34.5262 39.4302 34.8852C40.0652 34.9912 40.2362 34.0062 39.5982 33.8992C36.5412 33.3862 31.1532 30.8842 28.6152 33.7652C28.0102 34.4522 27.8271 35.2802 27.9031 36.1602C27.8631 36.2232 27.8342 36.2972 27.8312 36.3942C27.7652 38.8862 29.1162 40.9552 30.4952 42.9312C32.0172 45.1142 33.6611 47.2872 35.9271 48.7062C34.7541 48.8192 33.5831 48.9462 32.4141 49.1242C32.3851 49.0612 32.3411 49.0012 32.2731 48.9482C30.4931 47.5232 28.3991 47.3892 26.3271 47.7232C26.4131 45.4522 26.2651 43.2562 26.1751 40.9882C26.1011 39.1212 26.0471 37.3602 25.0561 35.7312C24.9561 35.5672 24.8171 35.5162 24.6781 35.5272C24.0341 34.5712 23.0471 33.9252 21.7201 34.0042C21.0711 34.0432 20.4741 34.3442 19.9291 34.7672C19.9231 34.7692 19.9191 34.7752 19.9141 34.7782C19.3241 35.2392 18.8041 35.8462 18.3621 36.4812C17.9451 36.9342 17.5371 37.3952 17.1751 37.9072C16.3011 39.1482 15.6621 40.7792 15.0321 42.1582C14.7681 42.7362 14.5591 43.3392 14.4031 43.9562C14.2831 44.0212 14.1881 44.1352 14.1641 44.3102C14.0591 45.0652 14.0392 45.8002 14.0552 46.5342C14.0252 47.5702 14.1161 48.6092 14.3301 49.6052C14.3691 49.7852 14.4771 49.8962 14.6061 49.9592C14.8351 50.2892 15.4471 50.2932 15.5061 49.7892C15.9661 45.8162 16.4021 41.6692 18.4541 38.2062C19.0301 37.4202 19.6421 36.6532 20.2731 35.8632C21.8841 34.5552 23.9582 35.3062 24.4602 37.6272C24.6532 38.5222 24.5741 39.5052 24.5621 40.4132C24.5241 43.0682 25.0012 45.5502 24.3652 48.1552C23.9782 48.2592 23.5951 48.3712 23.2201 48.4852C22.6001 48.6732 22.9431 49.6122 23.5561 49.4262C23.9151 49.3172 24.2862 49.2072 24.6632 49.1052C24.8002 49.1202 24.9432 49.0842 25.0592 48.9992C27.0802 48.4812 29.2561 48.2272 31.0831 49.3372C30.4911 49.4422 29.8992 49.5562 29.3092 49.6832C28.2972 49.9002 27.2881 50.1442 26.2821 50.4002C26.2251 50.3032 26.1701 50.2062 26.1121 50.1102C25.8641 49.6992 25.3521 49.9082 25.2391 50.2652C25.7431 51.2162 26.4331 52.0382 26.8841 53.0162C26.9051 53.0102 26.9251 53.0032 26.9461 52.9972C27.4231 53.5652 27.9461 54.1102 28.5111 54.6582C28.4861 54.6652 28.4601 54.6742 28.4361 54.6822C28.5201 54.7662 28.6002 54.8562 28.6762 54.9512C29.4652 55.4792 30.3781 56.1392 30.6701 56.9402C30.6991 56.9812 30.7351 57.0222 30.7591 57.0642C30.8291 57.1672 30.9041 57.2762 30.9621 57.3912C30.9651 57.3812 30.9671 57.3712 30.9701 57.3642C31.2911 57.9272 31.3391 58.4112 30.6481 58.5042H30.6461C30.6561 58.4642 30.6682 58.4242 30.6802 58.3842C30.6042 58.4432 30.5111 58.4882 30.3881 58.4882C30.3481 58.4882 30.3181 58.4732 30.2841 58.4672C30.2811 58.4672 30.2792 58.4692 30.2792 58.4692C29.7342 58.5792 29.2051 58.5152 28.6771 58.4222C28.6631 58.4222 28.6501 58.4262 28.6361 58.4242C28.6301 58.4512 28.6241 58.4782 28.6191 58.5042C28.3101 58.4792 28.0051 58.4492 27.7041 58.4182C27.6871 58.4142 27.6771 58.4042 27.6591 58.4002C27.3931 58.3532 27.1571 58.2772 26.9081 58.2132C26.9331 58.2042 26.9581 58.1962 26.9831 58.1892C26.8931 58.1732 26.8171 58.1412 26.7591 58.0892C25.4511 57.8622 24.2121 57.3662 23.4201 56.3882C23.4121 56.3912 23.4041 56.3942 23.3981 56.3962C22.7991 55.8532 22.2972 55.2182 21.8872 54.4942C21.9242 54.4822 21.9611 54.4732 21.9981 54.4612C21.7311 54.0272 21.4961 53.5592 21.3411 53.0622C21.1561 52.6802 21.0041 52.2862 20.9371 51.8972C20.9201 51.9032 20.9051 51.9072 20.8881 51.9112C20.8301 51.6762 20.7611 51.4502 20.7151 51.2032C20.1161 47.9792 21.3462 44.7252 22.1932 41.6662C22.3532 41.0882 21.5151 40.9152 21.2601 41.3912C21.0961 41.4022 20.9381 41.4872 20.8601 41.6892C20.5941 42.3732 20.3831 43.0662 20.2001 43.7652C19.2331 46.6962 18.7401 49.3542 19.3851 52.3932C17.4511 53.0022 15.5211 53.6332 13.6001 54.2952C13.2501 50.9262 13.2441 47.5822 13.5131 44.1662C13.5601 43.5752 11.7172 41.8812 11.1762 42.3672C11.1102 42.4272 11.0501 42.4922 10.9851 42.5522C12.0451 38.3272 14.1251 34.2402 16.4751 30.7962C16.8441 30.2542 15.1781 28.9042 14.4701 28.8172C17.0071 25.7422 20.0351 23.1652 23.3501 20.7962C23.8671 20.4272 22.1581 19.2462 21.5401 18.9072C22.8621 17.9232 24.3221 17.1972 25.8381 16.3722C26.7611 15.8702 31.1061 14.6302 31.3321 13.4672C31.7311 11.4172 30.8952 11.0532 33.5462 10.5702C36.4522 10.0412 39.9881 11.8202 42.9791 11.9812C43.0581 11.9852 43.0182 11.8572 42.9042 11.6652C43.0412 11.6812 43.1311 11.6452 43.1381 11.5412C43.3831 8.45622 43.8601 5.58023 46.1961 3.37823C49.8021 -0.0217738 56.4411 3.14322 60.0821 4.76522C65.2191 7.05322 69.4161 10.7062 72.6051 15.3032C75.7401 19.8192 76.2402 24.5122 75.9172 29.7792Z" fill="#E52E68"/>
<path d="M50.2808 4.4951C50.0528 4.4511 49.8378 4.48809 49.6348 4.55809C49.2198 4.55509 48.9977 4.84008 48.9347 5.18108C48.8787 5.29608 48.8238 5.41208 48.8048 5.54808C48.7288 6.12008 49.2128 6.62609 49.7678 6.67009C49.9258 6.68209 50.0728 6.65608 50.2048 6.60408C50.5598 6.60908 50.9058 6.43308 51.1148 6.03908C51.4508 5.40308 50.9348 4.6211 50.2808 4.4951Z" fill="#E52E68"/>
<path d="M49.183 8.28515C49.11 7.97215 48.934 7.71214 48.704 7.52614C48.645 7.40114 48.5381 7.29715 48.3691 7.25515C48.1281 7.19615 47.9011 7.20317 47.6921 7.25417C47.6591 7.25917 47.626 7.25917 47.592 7.26717C47.434 7.30617 47.297 7.39917 47.174 7.51217C46.921 7.71617 46.729 8.00717 46.633 8.35717C46.422 9.12517 47.012 9.86416 47.797 9.84316C48.653 9.82016 49.393 9.18215 49.183 8.28515Z" fill="#E52E68"/>
<path d="M52.5566 9.06116C52.6036 8.66716 52.4626 8.25017 52.0396 8.03717C51.9626 7.99817 51.8876 7.98817 51.8106 7.97217C51.4666 7.79117 51.0826 7.89015 50.7636 8.13815C50.7396 8.15215 50.7126 8.15917 50.6886 8.17517C50.3366 8.40017 50.1546 8.75816 50.1296 9.10516C50.1066 9.20316 50.0896 9.30217 50.0946 9.39517C50.1186 9.89717 50.6236 10.2332 51.0746 10.2902C51.4846 10.3412 51.8466 10.1552 52.0766 9.85016C52.0936 9.84116 52.1086 9.83116 52.1246 9.82016C52.4056 9.66116 52.5876 9.38516 52.5566 9.06116Z" fill="#E52E68"/>
<path d="M37.8921 79.8279C38.4121 79.9489 38.6091 79.219 38.2501 78.93C38.1131 78.821 37.978 78.709 37.846 78.594C37.825 78.576 37.8211 78.5729 37.8101 78.5629C37.8141 78.5429 37.8211 78.5259 37.8231 78.5059C37.8381 78.4879 37.8531 78.4719 37.8651 78.4529C37.8791 78.4279 37.9081 78.42 37.9181 78.391C38.0061 78.148 38.004 78.0049 37.949 77.7639C37.829 77.2429 37.1281 77.2529 36.9781 77.6319C36.9311 77.6589 36.888 77.695 36.851 77.736C36.548 77.832 36.3421 78.177 36.5031 78.447C36.3821 78.443 36.262 78.439 36.136 78.461C35.726 78.53 35.6261 78.9489 35.8191 79.2309C35.7581 79.2249 35.7001 79.213 35.6381 79.211C35.1941 79.191 34.8041 79.833 35.2801 80.107C35.3021 80.121 35.3271 80.1319 35.3491 80.1449C35.3311 80.3039 35.3961 80.47 35.5371 80.585C35.6021 80.701 35.7161 80.796 35.8911 80.827C36.2661 80.85 36.5491 81.038 36.8921 81.171C37.0911 81.246 37.2601 81.1909 37.3821 81.0789C37.5691 81.0779 37.696 80.9769 37.756 80.8279C37.76 80.8269 37.764 80.8269 37.768 80.8259C38.258 80.7199 38.347 79.952 37.851 79.853C37.863 79.845 37.8721 79.8339 37.8821 79.8259L37.8921 79.8279Z" fill="#E52E68"/>
<path d="M33.6073 75.65C33.7383 75.441 33.7603 75.246 33.6633 75.014C33.5063 74.64 33.0843 74.654 32.8533 74.863C32.7343 74.9 32.6443 74.989 32.6073 75.128C32.3923 75.184 32.2643 75.33 32.2403 75.518C32.1313 75.576 32.0423 75.667 31.9903 75.778C31.9133 75.757 31.8413 75.731 31.7613 75.712C31.4673 75.637 31.2833 75.844 31.2393 76.088C30.9443 76.075 30.7653 76.263 30.7303 76.49C30.6323 76.539 30.5623 76.627 30.5193 76.732C30.3493 76.812 30.2253 77.001 30.2113 77.196C30.0403 77.178 29.9093 77.264 29.8273 77.393C29.8043 77.385 29.7833 77.374 29.7603 77.368C29.4083 77.255 29.0373 77.556 29.0723 77.887C28.8043 78.053 28.7403 78.519 29.0283 78.734C29.5803 79.147 30.1343 79.519 30.7663 79.798C30.8723 79.844 30.9663 79.846 31.0513 79.829C31.1093 79.868 31.1673 79.905 31.2253 79.941C31.2423 79.956 31.2613 79.967 31.2783 79.983C31.2793 79.981 31.2813 79.979 31.2823 79.977C31.3183 79.998 31.3543 80.026 31.3913 80.047C31.7353 80.236 31.9883 79.973 32.0283 79.664C32.1563 79.619 32.2383 79.53 32.2773 79.419C32.4453 79.267 32.5243 79.025 32.3953 78.826C32.5863 78.791 32.7453 78.631 32.7993 78.441C33.2223 78.463 33.5103 77.918 33.1233 77.554C33.0823 77.517 33.0373 77.484 32.9953 77.447C33.0483 77.362 33.0743 77.267 33.0713 77.17C33.4503 77.149 33.7943 76.762 33.4693 76.399C33.4633 76.393 33.4593 76.387 33.4533 76.381C33.6893 76.224 33.7943 75.87 33.6073 75.65Z" fill="#E52E68"/>
<path d="M29.9148 70.7641C29.8288 70.5051 29.6168 70.4331 29.4138 70.4711C29.2808 70.3441 29.1068 70.3181 28.9468 70.3671C28.6908 70.0771 28.1618 70.2321 28.0898 70.6161C28.0498 70.6221 28.0128 70.6351 27.9748 70.6491C27.6568 70.4331 27.1508 70.7341 27.2068 71.1481C27.2178 71.2261 27.2418 71.2931 27.2588 71.3671C27.1728 71.2501 27.0848 71.1351 26.9728 71.0231C26.6778 70.7341 26.2778 70.8551 26.1368 71.1251C25.9888 71.2011 25.8798 71.3551 25.8538 71.5311C25.8518 71.5291 25.8498 71.5261 25.8478 71.5231C25.5938 71.1871 25.1878 71.3281 25.0318 71.6091C24.8478 71.6271 24.6818 71.7321 24.6128 71.8981C24.5738 71.9181 24.5398 71.9441 24.5068 71.9721C24.4768 71.9041 24.4478 71.8321 24.4158 71.7641C24.1848 71.2661 23.3478 71.4471 23.4578 72.0231C23.4788 72.1301 23.5098 72.2321 23.5378 72.3361C23.3378 72.3071 23.1438 72.4201 23.0448 72.6021C23.0228 72.5751 22.9968 72.5511 22.9738 72.5241C22.7218 72.2331 22.3448 72.3351 22.1688 72.5691C21.8148 72.5821 21.5898 73.0801 21.8098 73.3891C22.4938 74.3521 23.1628 75.3211 24.1568 75.9831C24.3308 76.1001 24.5088 76.0981 24.6518 76.0301C24.8038 76.1261 24.9658 76.2161 25.1448 76.2981C25.4468 76.4351 25.6688 76.2731 25.7548 76.0421C26.1198 76.2331 26.5458 75.8061 26.4258 75.4261C26.4838 75.3661 26.5248 75.2931 26.5498 75.2121C26.8008 75.2181 27.0548 75.0131 27.0768 74.7551C27.2608 74.6851 27.3898 74.5251 27.3248 74.2661C27.3088 74.2041 27.2828 74.1521 27.2638 74.0911C27.3328 74.0381 27.3908 73.9731 27.4178 73.8931C27.4878 73.6911 27.5268 73.4921 27.5488 73.2961C27.6258 73.2201 27.6858 73.1301 27.6968 73.0241C27.8018 73.0751 27.9018 73.1321 28.0178 73.1731C28.2518 73.2551 28.5328 73.1511 28.6438 72.9311C28.8898 72.8931 29.0978 72.6851 29.0738 72.3911C29.0658 72.3041 29.0458 72.2351 29.0348 72.1541C29.0368 72.1501 29.0408 72.1471 29.0428 72.1431C29.0468 72.1331 29.0478 72.1261 29.0518 72.1171C29.3498 72.2751 29.8008 72.1741 29.8238 71.7691C29.8298 71.6671 29.8288 71.5851 29.8278 71.5011C29.9818 71.2791 30.0118 71.0521 29.9148 70.7641Z" fill="#E52E68"/>
<path d="M27.6246 64.0543C27.5846 64.0213 27.5446 63.9873 27.5046 63.9523C27.3306 63.8043 27.0766 63.8453 26.9006 63.9773C26.7966 63.9873 26.6986 64.0313 26.6186 64.1003C26.5906 64.0973 26.5626 64.0963 26.5346 64.0983C26.3036 63.8973 25.9066 63.9583 25.7606 64.2273C25.5596 64.0653 25.2636 64.0733 25.0886 64.2343C25.0186 64.1723 24.9516 64.1103 24.8746 64.0533C24.6176 63.8673 24.2896 63.9773 24.1486 64.2143C24.0306 64.3073 23.9456 64.4493 23.9556 64.6473C23.9656 64.8453 23.9856 65.0263 24.0106 65.2023C23.9876 65.0983 23.9606 64.9993 23.9476 64.8893C23.8096 64.3203 23.0636 64.3653 22.9706 64.8753C22.9636 64.8363 22.9536 64.8043 22.9476 64.7643C22.8136 64.2083 22.0276 64.2433 21.9586 64.7303C21.7656 64.7283 21.5776 64.8263 21.4966 65.0013C21.4206 64.9833 21.3456 64.9643 21.2626 64.9603C21.0936 64.9503 20.9626 65.0153 20.8696 65.1123C20.8206 65.1243 20.7696 65.1353 20.7246 65.1593C20.4616 65.0053 20.0456 65.1383 19.9606 65.4353C19.9216 65.3813 19.8856 65.3263 19.8456 65.2723C19.5436 64.8713 19.0606 65.1293 18.9846 65.5203C18.8676 65.5663 18.7746 65.6533 18.7306 65.7763C18.5876 65.5423 18.2926 65.5363 18.0766 65.6763C17.8786 65.5643 17.6236 65.5803 17.4656 65.7333C17.0966 65.6413 16.6716 65.9893 16.8646 66.3973C17.2536 67.2173 17.5826 68.0263 18.1446 68.6803C18.5156 69.2503 18.9696 69.7783 19.4316 70.2623C19.7916 70.6393 20.3676 70.3623 20.3076 69.8833C20.4536 69.7893 20.5566 69.6233 20.5596 69.4343C20.6346 69.4233 20.7076 69.4033 20.7676 69.3583C21.0526 69.6253 21.5096 69.3433 21.5616 68.9793C21.8696 69.1713 22.3086 68.9993 22.3176 68.5783C22.5846 68.5673 22.8386 68.3243 22.8226 68.0143C22.8206 67.9863 22.8156 67.9603 22.8136 67.9323C22.9266 67.9063 23.0226 67.8423 23.0936 67.7513C23.1246 67.7963 23.1486 67.8433 23.1816 67.8883C23.4516 68.2613 24.0016 68.0503 24.0726 67.6423C24.0936 67.5253 24.0926 67.4103 24.1016 67.2923C24.3406 67.4963 24.7606 67.5093 24.8946 67.1713C25.0956 67.2403 25.3486 67.1713 25.4776 67.0043C25.5346 66.9313 25.5716 66.8563 25.6166 66.7803C25.6266 66.7843 25.6326 66.7923 25.6416 66.7963C25.9506 66.9213 26.2636 66.6933 26.3046 66.3863C26.4046 66.3373 26.4926 66.2673 26.5406 66.1413C26.5696 66.0653 26.5856 65.9953 26.6086 65.9233C26.7456 65.9113 26.8796 65.8673 26.9766 65.7543C27.0436 65.6753 27.0896 65.6113 27.1416 65.5443C27.2996 65.5233 27.4546 65.4473 27.5396 65.2663C27.6446 65.0663 27.7276 64.8583 27.7896 64.6413C27.8686 64.4173 27.8036 64.2053 27.6246 64.0543Z" fill="#E52E68"/>
<path d="M27.6596 32.978C27.7706 32.543 27.3306 32.139 26.8926 32.437C26.8086 32.485 26.7226 32.53 26.6376 32.577C26.5396 32.483 26.4086 32.432 26.2616 32.457C26.2066 32.378 26.1276 32.315 26.0356 32.274C26.0376 32.271 26.0386 32.269 26.0396 32.266C26.1166 32.086 26.0736 31.915 25.9726 31.787C26.0576 31.694 26.1436 31.599 26.2266 31.504C26.6206 31.052 25.9596 30.52 25.5176 30.812C25.4426 30.861 25.3726 30.915 25.2996 30.965C25.3516 30.756 25.2466 30.537 25.0806 30.413C25.0866 30.402 25.0946 30.391 25.1016 30.38C25.2786 30.07 25.0906 29.676 24.8106 29.585C24.7936 29.211 24.3486 28.875 24.0176 29.188C24.0116 29.193 24.0066 29.2 24.0006 29.205C23.8676 29.108 23.6876 29.077 23.5186 29.14C23.5476 29.096 23.5716 29.05 23.6016 29.006C23.8236 28.674 23.6096 28.325 23.3226 28.232C23.3746 28.157 23.4256 28.082 23.4766 28.006C23.7826 27.569 23.3276 27.13 22.9226 27.251C22.7446 27.101 22.4696 27.059 22.2486 27.229C22.1936 27.128 22.1096 27.044 22.0106 26.995C22.0966 26.907 22.1686 26.813 22.2576 26.726C22.6736 26.324 22.2216 25.645 21.7666 25.866C21.7186 25.782 21.6456 25.717 21.5576 25.672C21.6046 25.363 21.3366 25.065 21.0386 25.082C21.0346 24.97 20.9976 24.862 20.9356 24.773C20.9726 24.373 20.4846 23.986 20.1416 24.313C18.8756 25.519 17.8266 26.874 16.7976 28.284C16.5856 28.588 16.7616 28.907 17.0186 29.028C16.9876 29.071 16.9546 29.115 16.9226 29.159C16.6536 29.541 16.9916 29.949 17.3476 29.95C17.2266 30.308 17.5316 30.562 17.8426 30.554C17.8486 30.583 17.8546 30.612 17.8646 30.638C17.8626 30.641 17.8606 30.644 17.8586 30.648C17.6356 31.051 18.1496 31.426 18.5106 31.297C18.5926 31.46 18.7606 31.559 18.9426 31.564C18.9896 31.96 19.5906 32.057 19.8496 31.757C19.8636 31.741 19.8746 31.724 19.8886 31.708C20.0226 31.803 20.1986 31.838 20.3606 31.789C20.5016 32.076 20.9566 32.165 21.2246 31.882C21.2726 31.831 21.3146 31.776 21.3626 31.725C21.4476 31.986 21.7206 32.161 21.9956 32.053C22.0066 32.067 22.0156 32.08 22.0266 32.093C21.7966 32.609 22.3536 33.03 22.7866 32.68C22.9176 32.952 23.2376 33.121 23.5066 32.853L23.5176 32.842C23.6136 32.975 23.7766 33.066 23.9456 33.074C24.0266 33.38 24.4786 33.57 24.7576 33.352C24.7836 33.331 24.8116 33.311 24.8376 33.29C24.8716 33.327 24.9086 33.36 24.9516 33.386C24.8546 33.805 25.4126 34.086 25.7576 33.852L25.7686 33.847C25.8936 33.97 26.0726 34.026 26.2676 33.921C26.2706 33.919 26.2736 33.918 26.2766 33.916C26.3116 34.005 26.3626 34.085 26.4306 34.142C26.4056 34.185 26.3866 34.232 26.3606 34.275C26.0596 34.845 26.9916 35.21 27.2906 34.645C27.5096 34.293 27.6766 33.918 27.7906 33.52C27.8686 33.298 27.7966 33.103 27.6596 32.978Z" fill="#E52E68"/>
<path d="M34.8472 31.0234C34.5592 30.7074 34.2812 30.4184 33.9132 30.2814C33.8342 30.1044 33.6552 29.9714 33.4462 29.9644C33.4992 29.8954 33.5482 29.8224 33.6032 29.7544C33.7902 29.5244 33.7192 29.2784 33.5472 29.1244C33.5642 28.9054 33.4502 28.6884 33.2582 28.6084C33.2892 28.5734 33.3212 28.5394 33.3532 28.5044C33.6212 28.2004 33.3962 27.8564 33.0882 27.7534C33.1442 27.6994 33.2052 27.6554 33.2592 27.5994C33.6172 27.2334 33.3112 26.4644 32.7592 26.7444C32.6772 26.7864 32.6042 26.8384 32.5242 26.8814C32.5162 26.8664 32.5072 26.8514 32.4992 26.8374C32.7002 26.6424 32.9092 26.4604 33.1032 26.2554C33.4452 25.8964 32.9352 25.2794 32.5092 25.4954C32.4322 25.5354 32.3632 25.5844 32.2852 25.6254C32.2752 25.6084 32.2602 25.5944 32.2462 25.5784C32.3662 25.4314 32.4922 25.2934 32.6022 25.1314C32.8062 24.8304 32.5942 24.3604 32.2622 24.3214C32.4722 24.0114 32.2382 23.7084 31.9272 23.6364C31.9472 23.2884 31.6312 22.9204 31.2582 23.1204C31.2412 23.1294 31.2272 23.1404 31.2102 23.1494C31.2532 22.9064 31.0582 22.6994 30.8092 22.6394C30.8222 22.5054 30.7812 22.3814 30.7022 22.2834C30.7112 22.2744 30.7202 22.2654 30.7272 22.2564C31.0402 21.8894 30.6922 21.5044 30.3122 21.4934C30.2992 21.4414 30.2792 21.3914 30.2512 21.3454C30.4372 21.1124 30.3102 20.8214 30.0822 20.6774C30.1282 20.6174 30.1822 20.5674 30.2272 20.5074C30.5132 20.1214 30.1762 19.7314 29.7962 19.7374C29.8962 19.3794 29.5482 18.9294 29.1652 19.1114C29.0262 18.9714 28.8232 18.8984 28.6332 18.9974C28.5892 19.0194 28.5482 19.0494 28.5042 19.0724C28.4412 19.0154 28.3662 18.9774 28.2842 18.9604C28.4302 18.8084 28.5892 18.6694 28.7262 18.5074C29.1152 18.0514 28.4612 17.5234 28.0172 17.8154C27.9962 17.8294 27.9762 17.8454 27.9542 17.8594C27.8082 17.8064 27.6472 17.8134 27.5162 17.9404C27.0972 18.3454 26.6722 18.7434 26.2482 19.1404C25.1872 20.0174 24.2082 20.9844 23.2972 22.0364C23.2382 22.1044 23.2142 22.1774 23.2022 22.2524C23.1922 22.2644 23.1812 22.2744 23.1722 22.2864C22.8902 22.6274 23.1622 22.9854 23.4992 23.0414C23.5932 23.2064 23.7812 23.3194 23.9812 23.3124C23.9882 23.3144 23.9952 23.3174 24.0022 23.3194C24.0782 23.3824 24.1672 23.4284 24.2632 23.4464C24.4142 23.5814 24.6432 23.6304 24.8812 23.4784C24.9132 23.4584 24.9422 23.4334 24.9742 23.4134C24.9002 23.5854 24.9542 23.7664 25.0782 23.8984C24.7462 24.3324 25.2672 24.9704 25.7572 24.6034C25.8342 24.5454 25.9102 24.4864 25.9882 24.4274C26.1322 24.5854 26.3532 24.6504 26.5682 24.5134C26.5892 24.6374 26.6672 24.7494 26.7692 24.8324C26.5812 25.0834 26.7332 25.3864 26.9822 25.5154C26.9632 25.6834 27.0292 25.8454 27.1432 25.9574C26.8082 26.3894 27.4582 26.8644 27.8812 26.6034C28.0902 26.4754 28.2892 26.3334 28.4902 26.1944C28.5232 26.3344 28.6092 26.4544 28.7312 26.5224C28.6082 26.7654 28.7432 27.0064 28.9652 27.1194C28.5462 27.5154 29.1172 28.1714 29.6302 27.8534C29.7162 27.8004 29.7992 27.7434 29.8832 27.6894C29.9042 27.7204 29.9272 27.7524 29.9552 27.7784C29.8912 27.8324 29.8292 27.8864 29.7652 27.9404C29.3632 28.2774 29.6742 28.8204 30.0862 28.8194C30.1002 28.8654 30.1172 28.9094 30.1462 28.9504C29.9172 29.3204 30.3012 29.8484 30.7652 29.6714C30.8792 29.6274 30.9902 29.5774 31.1012 29.5294C30.9372 29.8984 31.3732 30.3344 31.7652 30.1714C31.7862 30.1624 31.8072 30.1534 31.8282 30.1454C31.8752 30.2044 31.9312 30.2524 31.9982 30.2864C31.8922 30.5734 32.0602 30.9224 32.3872 30.9554C32.6192 30.9794 32.7712 30.9894 32.9222 30.9894C33.0222 31.1374 33.1882 31.2364 33.3892 31.2044C33.2232 31.2304 33.9402 31.5174 34.0532 31.6414C34.4892 32.1134 35.2812 31.5014 34.8472 31.0234Z" fill="#E52E68"/>
<path d="M41.1283 30.8232C41.1713 30.7902 41.2143 30.7582 41.2583 30.7252C41.5793 30.4842 41.4623 29.8352 41.0113 29.8352C40.4563 29.8352 41.1003 29.3832 41.2583 29.2252C41.5553 28.9282 41.4443 28.5152 41.1033 28.3902C41.1243 28.3472 41.1393 28.3192 41.1663 28.2662C41.3443 27.9102 40.9783 27.5572 40.6353 27.5852C40.5223 27.5852 40.4083 27.5852 40.2953 27.5852C40.2933 27.4862 40.2703 27.4012 40.2233 27.3272C40.2623 27.2682 40.3033 27.2062 40.3533 27.1292C40.4503 26.9832 40.4573 26.7752 40.3903 26.6082C40.4523 26.5432 40.5153 26.4742 40.6033 26.3792C40.8433 26.1202 40.6663 25.7652 40.3943 25.6352C40.5153 25.5392 40.6403 25.4502 40.7593 25.3492C41.1063 25.0572 40.8993 24.3272 40.3853 24.4602C40.3123 24.4792 40.2423 24.5052 40.1703 24.5252C40.1873 24.4122 40.1683 24.3012 40.1203 24.2042C40.2093 24.1282 40.2993 24.0582 40.3843 23.9742C40.7133 23.6532 40.5463 23.0262 40.0303 23.0852C40.0543 23.0562 40.0793 23.0332 40.1033 23.0032C40.3143 22.7482 40.1833 22.4202 39.9383 22.2792C40.0923 22.0722 40.0773 21.7542 39.9173 21.5752C39.9793 21.5082 40.0433 21.4502 40.1033 21.3782C40.2923 21.1472 40.2023 20.8542 39.9993 20.6962C40.0843 20.6192 40.1763 20.5552 40.2593 20.4732C40.4543 20.2812 40.4713 20.0372 40.3773 19.8542C40.3793 19.8522 40.3823 19.8512 40.3843 19.8482C40.6513 19.6192 40.6103 19.3162 40.4253 19.1332C40.4963 18.9212 40.4033 18.6582 40.2143 18.5332C40.3473 18.4032 40.4793 18.2722 40.6033 18.1282C40.9253 17.7532 40.5373 17.3542 40.1493 17.3532C40.0093 17.2402 39.8173 17.1832 39.6343 17.2432C39.4743 17.2962 39.3223 17.3622 39.1663 17.4212C39.1973 17.2462 39.1433 17.0702 39.0223 16.9572C39.4283 16.5642 39.0413 15.9632 38.5083 16.1182C38.3713 16.1582 38.2413 16.2132 38.1073 16.2572C38.1463 16.2132 38.1893 16.1742 38.2273 16.1282C38.4703 15.8372 38.2873 15.5112 38.0063 15.3932C38.1183 15.0662 37.9503 14.6302 37.5483 14.7052C37.5403 14.6832 37.5313 14.6602 37.5213 14.6382C37.5993 14.5802 37.6813 14.5332 37.7583 14.4722C38.1303 14.1852 37.9253 13.7262 37.5693 13.6192C37.5793 13.3442 37.3543 13.0632 37.0423 13.0842C36.9893 12.8392 36.7943 12.6312 36.5103 12.7082C35.1883 13.0622 33.9393 13.5682 32.7643 14.2312C32.2133 14.4602 31.6673 14.7062 31.1343 14.9912C30.6723 15.2392 30.8103 15.8052 31.2053 15.9162C31.3033 16.0442 31.4553 16.1212 31.6433 16.0742C31.7543 16.0462 31.8663 16.0182 31.9773 15.9912C31.9073 16.0342 31.8343 16.0722 31.7643 16.1152C31.7623 16.1152 31.7603 16.1162 31.7603 16.1162L31.7593 16.1172C31.7213 16.1402 31.6823 16.1602 31.6443 16.1842C31.3003 16.4002 31.4403 16.8332 31.7273 17.0022C31.7603 17.3012 32.0333 17.5702 32.3933 17.4152C32.4873 17.6422 32.7223 17.7982 33.0193 17.6652C33.0923 17.6322 33.1653 17.5962 33.2373 17.5622C33.2253 17.8882 33.4933 18.2082 33.8763 18.0442C33.8003 18.0912 33.7203 18.1342 33.6453 18.1832C33.1623 18.4962 33.6363 19.2532 34.1453 19.0392C34.3733 18.9432 34.5953 18.8392 34.8203 18.7372C34.7203 18.8022 34.6203 18.8662 34.5203 18.9332C33.9763 19.2962 34.5973 20.0512 35.1353 19.7212C35.2903 19.6262 35.4443 19.5352 35.5983 19.4412C35.5993 19.4882 35.6033 19.5342 35.6163 19.5802C35.4173 19.7382 35.2113 19.8842 35.0203 20.0582C34.6583 20.3882 34.9183 21.0102 35.3713 20.9512C35.4883 21.0792 35.6733 21.1382 35.8953 21.0392C35.9253 21.0262 35.9553 21.0132 35.9853 20.9992C36.0073 21.3002 36.2673 21.5682 36.6223 21.4192C36.6263 21.4462 36.6333 21.4732 36.6413 21.5002C36.5553 21.5392 36.4723 21.5742 36.3863 21.6152C35.8043 21.8932 36.1653 22.7622 36.7713 22.5392C36.9523 22.4722 37.1253 22.3962 37.3013 22.3242C37.1863 22.5232 37.2173 22.7712 37.3583 22.9292C37.2433 22.9912 37.1343 23.0542 37.0113 23.1162C37.0123 23.1172 37.0123 23.1182 37.0133 23.1192C36.9743 23.1422 36.9363 23.1602 36.8963 23.1832C36.4103 23.4722 36.8953 24.2872 37.3963 24.0392C37.4283 24.0232 37.4573 24.0052 37.4893 23.9902C37.3783 24.2182 37.5103 24.5002 37.7393 24.6272C37.7083 24.6462 37.6773 24.6652 37.6463 24.6842C37.3073 24.8932 37.4563 25.3672 37.7453 25.5312C37.6533 25.7852 37.7943 26.0732 38.0413 26.1672C37.7513 26.5292 38.1883 27.0452 38.6463 26.9152C38.7093 26.8912 38.7763 26.8802 38.8393 26.8592C38.8463 26.9622 38.8813 27.0612 38.9383 27.1422C38.8403 27.2392 38.7443 27.3372 38.6463 27.4342C38.1513 27.7842 38.6353 28.4232 39.1353 28.2912C39.2083 28.4402 39.3453 28.5602 39.5183 28.5742C39.6003 28.5812 39.6593 28.5852 39.7253 28.5892C39.7093 28.6112 39.6943 28.6322 39.6773 28.6542C39.4863 28.8612 39.5823 29.1902 39.7873 29.3552C39.7213 29.4792 39.6873 29.6102 39.7413 29.7692C39.7713 29.9772 39.8033 30.1862 39.8323 30.3942C39.8363 30.4882 39.8883 30.5852 39.9613 30.6652C39.9533 30.7862 39.9823 30.9102 40.0593 31.0102C40.2553 31.2402 40.4223 31.4902 40.5593 31.7602C40.8873 32.3142 41.6713 31.6912 41.3483 31.1452C41.2843 31.0312 41.1983 30.9322 41.1283 30.8232Z" fill="#E52E68"/>
</svg>
