<svg width="82" height="76" viewBox="0 0 82 76" fill="none" xmlns="http://www.w3.org/2000/svg">
<path d="M70.5463 52.1343C70.1203 52.1493 69.6872 52.0443 69.2802 51.7743C69.0302 51.6073 68.7802 51.4413 68.5302 51.2743C68.4422 51.2143 68.3662 51.1503 68.2922 51.0853C68.2872 58.3153 68.2182 65.5503 68.3322 72.7733C62.7102 72.8073 57.0993 72.7933 51.4853 72.7533C50.9893 66.0523 51.1152 59.1203 50.8442 52.4063C50.7092 49.0543 50.9413 45.0823 50.2133 41.5713C49.5023 41.2983 48.8823 40.9463 48.2353 40.5593C48.5823 42.3153 48.6932 44.2313 48.7232 46.1553C48.1952 45.3843 46.8493 44.4443 46.6653 44.9493C45.1183 49.1993 41.8403 52.5343 39.0463 55.9893C38.5843 56.5613 40.8183 58.5513 41.2043 58.0733C43.9753 54.6463 47.0933 51.3663 48.7353 47.2193C48.7413 49.7573 48.6513 52.2613 48.8073 54.3783C49.1393 58.9073 48.9712 63.4813 49.0992 68.0133C48.5022 67.2753 47.2892 66.4963 47.1642 66.9503C46.9982 67.5593 46.6482 68.0433 46.2122 68.4903C45.7422 68.9733 47.8972 71.0613 48.3702 70.5743C48.7012 70.2343 48.9593 69.8693 49.1543 69.4633C49.1963 70.4053 49.2502 71.3463 49.3322 72.2833C49.3442 72.4223 49.4282 72.5763 49.5352 72.7323C46.4352 72.7063 43.3363 72.6853 40.2303 72.6343C39.5503 72.6223 38.8673 72.6283 38.1833 72.6303C37.8223 66.0833 37.8103 59.5263 37.6843 52.9703C38.2603 53.5363 39.0112 53.9953 39.2032 53.7413C41.8212 50.2693 44.1872 46.6203 46.7032 43.0743C47.1502 42.4443 44.8733 40.5293 44.5453 40.9903C42.2243 44.2623 40.0223 47.6173 37.6393 50.8443C37.5923 48.8563 37.5333 46.8673 37.4423 44.8803C38.0213 45.5543 38.9673 46.2023 39.2043 45.9073C40.3903 44.4273 41.9702 43.2723 42.8712 41.5733C43.2662 40.8303 40.9293 39.0853 40.7133 39.4893C39.8943 41.0343 38.5152 42.1323 37.3802 43.4313C37.3002 41.9363 37.2063 40.4423 37.0853 38.9483C37.0833 38.9233 37.0633 38.8933 37.0583 38.8673C38.8823 38.8233 40.7082 38.7923 42.5352 38.7893C43.6222 38.7883 44.7133 38.8053 45.8043 38.8293C45.7133 38.7823 45.6212 38.7373 45.5302 38.6903C45.3012 38.5693 45.1203 38.4183 44.9603 38.2543C43.7553 37.8973 42.5202 37.6473 41.2122 37.3583C40.6312 37.2303 40.2053 36.9603 39.9123 36.6123C38.4753 36.6223 37.0402 36.6423 35.6032 36.6753C35.6032 36.6663 35.6023 36.6573 35.6023 36.6483C34.7713 36.8373 33.8772 36.8833 33.0652 36.7423C26.0362 36.9563 19.0142 37.3463 11.9832 37.5123C11.9232 38.2413 11.8662 38.9693 11.7922 39.6983C11.7902 39.7173 11.7833 39.7313 11.7812 39.7513L12.0363 39.7463C11.2533 50.6433 13.1453 61.7353 13.0013 72.6473C12.8373 72.6293 12.6713 72.6243 12.5073 72.6043C12.1913 72.5673 13.5623 74.6923 14.4153 74.7923C22.8313 75.7743 31.7202 74.7673 40.1992 74.8003C50.2182 74.8393 60.2163 75.0163 70.2353 74.9603C70.4323 75.0423 70.5552 75.0463 70.5732 74.9603C70.6872 74.9593 70.8023 74.9603 70.9153 74.9593C71.1023 74.9583 70.9112 74.5343 70.5772 74.0623C70.4712 66.7593 70.5463 59.4443 70.5463 52.1343ZM15.2592 72.8443C15.2102 61.9143 13.3583 50.8233 14.4213 39.9483C14.4293 39.8733 14.3982 39.7873 14.3672 39.7023C21.2322 39.5253 28.0903 39.1283 34.9543 38.9213C35.7123 49.9823 35.3063 61.0653 36.0013 72.1163C36.0113 72.2783 36.1162 72.4613 36.2552 72.6453C29.2862 72.7623 22.1652 73.3323 15.2592 72.8443Z" fill="#E52E68"/>
<path d="M46.3821 53.3234C44.6771 57.2554 41.8411 60.5224 39.3821 63.9894C38.9351 64.6204 41.2141 66.5344 41.5401 66.0734C43.9991 62.6064 46.8351 59.3394 48.5401 55.4074C48.8891 54.6024 46.5381 52.9654 46.3821 53.3234Z" fill="#E52E68"/>
<path d="M46.2143 60.1564C44.6883 63.3214 42.8783 66.3274 41.0473 69.3234C40.6253 70.0154 42.9403 71.8425 43.2053 71.4075C45.0363 68.4115 46.8464 65.4064 48.3724 62.2404C48.7454 61.4664 46.3983 59.7724 46.2143 60.1564Z" fill="#E52E68"/>
<path d="M14.8758 22.3761C14.4988 22.1821 14.8078 24.8141 15.5548 25.1991C15.5748 25.2091 15.5948 25.2181 15.6148 25.2281C15.8338 25.5641 16.0308 25.7681 16.0798 25.6471C16.1008 25.5961 16.1228 25.5461 16.1438 25.4951C16.7768 25.8181 17.4138 26.1311 18.0468 26.4481C18.0438 26.4551 18.0388 26.461 18.0338 26.468C18.7948 26.764 19.3878 27.1231 19.8328 27.5381C19.9168 27.5921 19.9968 27.6461 20.0788 27.7001C20.1078 27.6401 20.1238 27.566 20.1348 27.489C26.0738 30.399 32.1028 33.1281 38.0618 36.0011C38.3538 36.0391 38.6508 36.1351 38.9418 36.3181C40.5728 37.3421 42.7948 37.9701 44.3838 39.1431C44.7648 39.3371 45.1498 39.523 45.5268 39.718C47.0818 40.528 48.6248 41.3761 50.1618 42.2401C50.1538 42.2711 50.1428 42.3031 50.1388 42.3361C50.7128 42.4991 51.1958 42.7171 51.9068 43.0881C52.1768 43.2291 52.3928 43.408 52.5708 43.61C57.6668 46.539 62.7268 49.595 67.9428 52.244C67.9088 52.313 67.8718 52.3821 67.8368 52.4501C68.4988 52.5821 69.1708 52.8781 69.8538 53.3801C69.8778 53.3291 69.9048 53.2801 69.9298 53.2301C70.8528 53.6751 71.7768 54.1161 72.7118 54.5271C72.7218 54.5341 72.7278 54.5341 72.7358 54.5391C72.9618 54.6381 73.1798 54.7481 73.4048 54.8451C73.6798 54.9611 73.6428 53.9851 73.3968 53.1411C75.6568 47.7871 78.7568 42.7451 81.0278 37.3791C81.3578 36.5941 80.0258 34.3611 79.8778 34.7111C79.8308 34.8241 79.7758 34.9361 79.7298 35.0491C79.6818 35.0051 79.6378 34.9471 79.5868 34.9231C77.2938 33.8191 74.9288 32.9071 72.5758 31.9611C75.8368 31.9671 78.4478 29.76 76.9188 26.261C75.9268 23.996 73.8698 22.7981 71.5828 22.0551C73.3598 20.0191 73.7668 16.803 72.3098 14.489C70.4818 11.592 65.8718 12.1421 61.1578 13.6911C61.1948 13.6271 61.2318 13.5661 61.2678 13.5011C62.7328 10.9541 63.9968 7.81306 62.8698 4.90906C61.4078 1.14006 57.2228 1.74806 54.1948 3.49506C53.6218 3.82706 53.1288 4.23605 52.6968 4.70505C51.2968 2.18805 49.2538 0.0120603 46.6228 6.03465e-05C43.4408 -0.0149397 42.9688 2.76906 43.3918 5.39606C41.2488 3.73806 38.7878 2.78106 36.0108 3.52106C32.9018 4.35106 34.9708 9.42406 36.0628 10.9531C37.0178 12.2921 38.1118 13.4911 39.2918 14.5861C33.5528 11.7491 27.7598 9.02107 22.0218 6.17807C21.9118 6.12507 21.8648 6.29705 21.8588 6.56705C21.6748 6.32605 21.5298 6.25107 21.5048 6.50607C20.9328 12.4021 17.4068 17.1941 15.1338 22.5081C15.0468 22.4621 14.9598 22.4201 14.8758 22.3761ZM44.8468 36.8961C43.3598 36.1251 41.8608 35.376 40.3588 34.636C41.2418 32.906 42.0378 31.1341 42.9098 29.3981C43.1468 29.9311 43.4548 30.342 43.7068 30.252C46.7028 29.174 49.6378 27.9211 52.7068 27.0551C53.3278 26.8811 52.4408 24.017 51.7588 24.209C49.1968 24.931 46.7288 25.9191 44.2378 26.8551C45.2608 24.9031 46.1828 22.9541 46.6088 20.7681C48.2128 21.6031 49.8138 22.4491 51.3998 23.3221C53.6448 24.5581 55.8748 25.821 58.1038 27.08C57.2258 28.944 56.1398 30.698 55.2418 32.563C54.8878 33.293 54.5678 34.0451 54.2628 34.8051C54.3028 33.9161 53.4668 32.223 53.1058 32.433C51.6908 33.253 50.2158 33.9611 48.7428 34.6671C48.0578 34.9931 49.1628 37.7661 49.6908 37.5131C51.1668 36.8081 52.6388 36.0991 54.0548 35.2801C54.0698 35.2711 54.0768 35.2551 54.0918 35.2451C53.3828 37.0411 52.7398 38.8761 51.9668 40.6291C51.9458 40.6781 51.9488 40.7461 51.9398 40.8061C49.5888 39.4541 47.2328 38.1321 44.8468 36.8961ZM78.8158 37.0741C76.5288 41.9431 73.7468 46.6141 71.7858 51.5921C65.5728 48.8351 59.6628 45.2901 53.7268 41.8421C54.6558 39.6541 55.5398 37.4491 56.3868 35.2291C57.3378 32.7471 58.9938 30.6141 59.9418 28.1121C61.9538 29.2431 63.9698 30.3681 66.0078 31.4571C70.1578 33.6731 74.5578 35.1561 78.8158 37.0741ZM68.7288 23.933C70.6628 24.366 72.5428 24.9451 74.3248 25.7451C77.3188 27.0891 74.8448 28.7511 72.7228 29.0911C70.5998 29.4301 68.1958 28.6241 66.1998 27.9531C63.8438 27.1611 61.6738 25.9741 59.5388 24.6971C62.6588 25.2551 65.9228 25.1 68.7288 23.933ZM57.3348 18.6001C60.8278 17.2121 64.4368 16.0981 68.0878 15.6371C73.9818 14.8941 70.8978 19.3571 67.6008 21.1161C67.2488 21.0531 66.8998 20.9901 66.5618 20.9281C62.9868 20.2811 59.3408 19.9931 55.7028 19.8141C56.2818 19.4511 56.8248 19.0491 57.3348 18.6001ZM61.7798 7.00607C61.0258 10.3421 59.2228 13.2331 56.7748 15.3611C56.2398 15.5901 55.7148 15.8231 55.2038 16.0551C55.5308 14.3461 55.1938 12.3311 54.6568 9.86206C54.5128 9.19506 54.2998 8.43807 54.0158 7.64307C56.6038 5.48907 62.6448 3.16607 61.7798 7.00607ZM53.5868 8.03506C54.9128 11.2771 53.9008 15.0241 51.2878 17.1151C51.2668 16.9761 51.2448 16.8361 51.2168 16.6941C51.3938 13.9861 51.7778 11.3261 52.9858 8.81207C53.1008 8.57207 53.3118 8.30806 53.5868 8.03506ZM50.9518 4.62305C51.3438 4.92705 51.6838 5.25705 52.0008 5.59705C50.6198 7.67405 50.1378 10.5331 49.9448 13.2821C49.7028 12.8191 49.4688 12.4261 49.2758 12.1481C48.0218 10.3391 46.4948 8.23905 44.7108 6.53305C43.8348 2.28905 47.7118 2.11005 50.9518 4.62305ZM47.9538 14.0731C47.4678 12.9601 46.9618 11.8701 46.4358 10.7851C47.1378 11.5821 47.8368 12.3831 48.5138 13.2021C49.2698 16.3541 49.0828 16.6431 47.9538 14.0731ZM39.7138 12.7501C37.8058 11.2451 34.4288 7.04104 38.3168 6.00204C40.5218 5.41504 42.6478 6.97207 44.3338 8.57907C45.4018 11.1411 46.5308 13.765 47.8448 16.192C48.1938 16.836 48.5818 17.6291 49.0798 18.2941C45.7258 16.8161 42.6128 15.0351 39.7138 12.7501ZM44.9818 19.9231C44.3618 21.9201 43.3528 23.7421 42.3348 25.6091C40.8988 28.2391 39.8038 31.0311 38.3208 33.6371C31.2508 30.2081 24.0728 26.9981 17.0478 23.4711C19.2898 18.7521 22.1618 14.3251 22.7388 9.01907C30.1418 12.6841 37.6338 16.1561 44.9818 19.9231Z" fill="#E52E68"/>
<path d="M52.9518 28.4051C49.5728 29.7101 46.1589 30.9251 42.8189 32.3261C42.1479 32.6071 43.1928 35.4131 43.7658 35.1721C47.1078 33.7711 50.5218 32.5562 53.8998 31.2512C54.5618 30.9952 53.5528 28.1731 52.9518 28.4051Z" fill="#E52E68"/>
<path d="M25.9852 36.9391C25.9442 36.8631 25.8812 36.809 25.8352 36.739C25.8272 36.723 25.8262 36.7051 25.8172 36.6891C25.6802 36.4391 25.5102 36.2491 25.3232 36.0861C25.2952 36.0111 25.2592 35.9361 25.2082 35.8591C22.4292 31.7161 18.6572 28.4131 15.8842 24.2981C15.8782 24.2871 15.8682 24.2831 15.8622 24.2731C15.8412 24.1871 15.8352 24.1021 15.7912 24.0141C15.3492 23.1301 14.9392 22.237 14.5222 21.343C14.0872 20.413 14.0072 19.3641 13.6712 18.4001C13.6112 18.2271 13.5192 18.094 13.4092 17.989C13.1772 16.894 12.7362 15.9061 11.6172 15.3961C10.8372 15.0421 9.89519 14.9571 9.15019 15.3011C7.31119 13.1751 2.96219 13.596 3.20219 16.765C1.90319 17.152 0.649184 17.64 0.192184 19.067C-0.166816 20.186 -0.0238046 21.399 0.629195 22.33C0.628195 22.335 0.6242 22.3371 0.6212 22.3431C-0.1458 24.268 0.352178 25.8861 1.91118 27.2231C3.43218 28.5311 5.70819 29.1701 6.92119 30.8031C7.01619 30.9321 7.1322 31.029 7.2512 31.097C7.2762 31.151 7.28018 31.2011 7.31718 31.2551C9.31718 34.1761 11.3682 37.0641 13.1542 40.1131C13.3722 39.4291 13.9032 38.8651 14.5632 38.5761C12.8492 35.7141 10.9192 32.9841 9.03218 30.2251C8.93718 30.0841 8.82319 29.9861 8.70219 29.9131C8.67719 29.8661 8.67218 29.8201 8.63618 29.7721C7.67018 28.4741 6.27518 27.686 4.91518 26.864C3.66718 26.109 1.6792 25.0521 2.3762 23.3011C2.3882 23.2711 2.3822 23.2421 2.3932 23.2121C3.0342 22.9571 3.43419 22.1571 2.74419 21.6421C2.04319 21.1191 1.78519 20.3601 2.15419 19.5351C2.44119 18.8891 3.42418 18.7811 4.01918 18.6081C4.40518 18.4971 4.60119 18.2291 4.67519 17.9311C5.05219 17.7361 5.33121 17.3471 5.20821 16.8181C5.03621 16.0811 5.55718 15.8971 6.21818 15.8971C6.99718 15.8991 7.7162 16.3741 7.9142 17.1311C8.1572 18.0731 9.3072 17.9981 9.7252 17.3741C9.8182 17.3031 9.90418 17.2071 9.98018 17.0901C10.0932 17.0571 10.2142 17.0681 10.3302 17.0731C10.5412 17.0831 10.7522 17.1881 10.9342 17.2851C11.5072 17.5971 11.5162 18.5991 11.6022 19.1551C11.6352 19.3801 11.7842 19.5471 11.9652 19.6731C12.1492 20.3831 12.2832 21.1081 12.5472 21.7961C12.9562 22.8621 13.4972 23.8911 14.0122 24.9101C14.0302 25.0451 14.0782 25.1841 14.1722 25.3261C16.8642 29.3241 20.4642 32.5351 23.2202 36.5031C23.2152 36.5451 23.2072 36.5881 23.2092 36.6291C23.2152 37.0351 23.4452 37.3131 23.7602 37.4701C23.8972 37.6151 24.0472 37.7511 24.2072 37.8701C24.2262 37.8991 24.2442 37.9171 24.2642 37.9531C24.8862 39.0911 26.6032 38.0651 25.9852 36.9391Z" fill="#E52E68"/>
<path d="M4.32455 19.6132C3.07655 19.2792 2.59557 21.2202 3.83957 21.5552C5.08757 21.8882 5.57155 19.9482 4.32455 19.6132Z" fill="#E52E68"/>
<path d="M7.88469 18.097C7.86469 18.063 7.84469 18.029 7.82469 17.995C7.18069 16.877 5.4677 17.908 6.1107 19.024C6.1317 19.058 6.14969 19.092 6.16969 19.127C6.81369 20.244 8.52869 19.214 7.88469 18.097Z" fill="#E52E68"/>
<path d="M11.3451 19.6752C11.2631 19.3582 11.0911 19.1252 10.8021 18.9642C9.80713 18.4092 8.94512 19.7152 9.53812 20.4582C10.0491 21.3532 11.6441 20.8212 11.3451 19.6752Z" fill="#E52E68"/>
<path d="M4.86712 23.383L4.78512 23.361C3.53912 23.026 3.05514 24.967 4.30114 25.302L4.38314 25.323C5.63114 25.657 6.11412 23.717 4.86712 23.383Z" fill="#E52E68"/>
<path d="M11.0528 23.3712C10.8768 22.1932 9.21676 20.4792 7.92576 21.0542C7.60576 20.9782 7.27177 21.0282 6.95277 21.1672C6.38077 21.4172 6.28976 22.2232 6.30176 22.7532C6.32276 23.6452 6.57275 24.8422 7.18375 25.5172C7.61775 25.9952 8.46076 25.9672 8.99976 25.7502C9.06076 25.7262 9.11377 25.6932 9.17377 25.6652C9.45277 25.5862 9.72275 25.4802 9.95475 25.3712C10.7787 24.9872 11.1838 24.2512 11.0528 23.3712Z" fill="#E52E68"/>
</svg>
