<svg width="15" height="15" viewBox="0 0 15 15" fill="none" xmlns="http://www.w3.org/2000/svg">
<path d="M12.8027 0L2.19727 0C0.985794 0 0 0.985794 0 2.19727L0 12.8027C0 14.0142 0.985794 15 2.19727 15L6.62109 15L6.62109 9.69727L4.86328 9.69727L4.86328 7.06055H6.62109V5.27344C6.62109 3.81947 7.80384 2.63672 9.25781 2.63672L11.9238 2.63672V5.27344H9.25781L9.25781 7.06055H11.9238L11.4844 9.69727H9.25781V15H12.8027C14.0142 15 15 14.0142 15 12.8027L15 2.19727C15 0.985794 14.0142 0 12.8027 0Z" fill="black"/>
</svg>
