<svg width="57" height="57" viewBox="0 0 57 57" fill="none" xmlns="http://www.w3.org/2000/svg">
<path d="M28.9458 45.3726C30.7031 45.3726 32.1276 43.948 32.1276 42.1908C32.1276 40.4335 30.7031 39.009 28.9458 39.009C27.1885 39.009 25.764 40.4335 25.764 42.1908C25.764 43.948 27.1885 45.3726 28.9458 45.3726Z" fill="#02A950"/>
<path d="M31.4913 13.5544C31.4913 12.1486 30.3516 11.009 28.9458 11.009C27.54 11.009 26.4003 12.1486 26.4003 13.5544V33.9181C26.4003 35.3239 27.54 36.4635 28.9458 36.4635C30.3516 36.4635 31.4913 35.3239 31.4913 33.9181V13.5544Z" fill="#02A950"/>
<path fill-rule="evenodd" clip-rule="evenodd" d="M9.14682 9.02814C14.2111 3.96395 21.2146 0.827148 28.9458 0.827148C36.677 0.827148 43.6805 3.96395 48.7447 9.02815C53.809 14.0924 56.9458 21.0959 56.9458 28.8271C56.9458 36.5584 53.809 43.5619 48.7447 48.6261C43.6805 53.6903 36.677 56.8271 28.9458 56.8271C21.2146 56.8271 14.2111 53.6903 9.14682 48.6261C4.08262 43.5619 0.945801 36.5584 0.945801 28.8271C0.945801 21.0959 4.08263 14.0924 9.14682 9.02814ZM28.9458 5.91806C22.619 5.91806 16.8952 8.47946 12.7466 12.628C8.59808 16.7766 6.03671 22.5003 6.03671 28.8271C6.03671 35.154 8.59811 40.8777 12.7466 45.0263C16.8952 49.1748 22.619 51.7362 28.9458 51.7362C35.2726 51.7362 40.9964 49.1748 45.1449 45.0263C49.2935 40.8777 51.8549 35.1539 51.8549 28.8271C51.8549 22.5003 49.2935 16.7766 45.1449 12.628C40.9964 8.47946 35.2726 5.91806 28.9458 5.91806Z" fill="#02A950"/>
</svg>
