<svg width="87" height="79" viewBox="0 0 87 79" fill="none" xmlns="http://www.w3.org/2000/svg">
<path d="M63.5662 10.1926C58.2682 6.40255 51.0822 8.69954 48.8952 13.9965C47.4772 10.5725 44.6562 8.28355 41.1062 6.82155C35.4462 4.49055 30.0752 7.55755 26.9892 12.3165C23.5322 17.6485 26.0512 23.6086 30.8972 26.9856C35.7102 30.3396 40.9692 29.4005 45.2352 25.9405C45.5302 26.2445 45.8722 26.5195 46.2472 26.7555C46.7572 27.1545 47.4062 27.5355 47.7322 27.5445C50.1592 27.6075 52.4342 27.9985 54.7502 28.6785C55.8712 29.0075 58.0142 29.7446 59.0742 28.8516C60.2892 27.8286 59.6982 26.5975 58.6082 25.4965C62.7532 25.1165 66.0882 22.7735 66.9772 18.4435C67.6072 15.3745 66.0732 11.9856 63.5662 10.1926ZM45.2862 21.0515C44.4792 21.8665 44.1452 22.7136 44.1492 23.5196C43.9202 23.4756 43.7212 23.4915 43.5952 23.6095C40.1562 26.8225 34.9392 29.5435 30.6862 25.4185C27.2072 22.0445 27.4852 17.7525 29.5862 13.8165C33.5592 6.37855 44.7722 5.30755 46.9122 14.7435C47.0062 15.1555 47.7112 15.5835 48.3682 15.8455C48.1892 16.9015 48.1862 18.0365 48.4122 19.2435C48.4512 19.4465 48.6432 19.6565 48.9082 19.8495C47.6362 19.6655 46.3882 19.9365 45.2862 21.0515ZM56.2312 27.4296C55.2172 27.8876 53.5312 27.1395 52.5712 26.8225C50.7772 26.2285 48.8502 25.9965 46.9482 25.8975C46.9132 25.8195 46.8802 25.7466 46.8242 25.6366C46.6882 25.1296 46.8452 24.5815 46.9852 24.0955C47.2532 23.1695 47.9362 22.3446 48.7532 21.8566C50.7882 20.6406 54.4992 23.4466 56.1852 24.8086C57.1142 25.5596 57.5452 26.8376 56.2312 27.4296ZM56.4862 23.7975C55.8642 23.3785 55.2982 23.0385 54.9572 22.8245C53.8152 22.1105 52.4502 21.1645 51.0352 20.5215C51.0382 20.5075 51.0462 20.4956 51.0422 20.4776C50.5342 17.7626 51.0702 15.3885 52.7352 13.1945C54.7202 10.5795 60.5532 8.06855 63.1142 11.3895C67.2532 16.7545 62.1572 23.1725 56.4862 23.7975Z" fill="#E52E68"/>
<path d="M41.4719 17.0803C41.2569 16.2573 40.2879 15.5323 39.4839 15.1913C39.2949 15.1103 39.1009 15.0373 38.9099 14.9833C37.9429 14.5963 36.9069 14.5093 36.1189 15.0293C35.8889 15.1823 35.7299 15.3813 35.6049 15.5953C34.7179 16.2383 34.5779 17.6253 35.1549 18.6573C36.0209 20.2063 38.5729 21.4683 40.2729 20.7163C40.3259 20.6933 40.3669 20.6583 40.4159 20.6323C40.4659 20.6163 40.5169 20.6073 40.5639 20.5873C40.8799 20.4583 41.0849 20.2363 41.2189 19.9753C41.8559 19.1683 41.9749 18.0123 41.4719 17.0803ZM39.3049 17.8903C39.0459 17.7423 38.8569 17.5243 38.7829 17.2303C38.5029 16.1083 40.0129 15.5773 40.5579 16.3763C41.2269 17.1133 40.3209 18.4703 39.3049 17.8903Z" fill="#E52E68"/>
<path d="M59.7105 17.8646C59.4575 16.3916 57.4815 15.3265 56.1455 15.1865C55.0445 15.0715 54.0205 15.6605 53.8245 16.7905C53.5775 18.2105 54.8265 19.2615 55.9955 19.7965C56.7525 20.1425 57.5835 20.3036 58.2815 20.0546C59.2885 19.8186 59.8895 18.9036 59.7105 17.8646ZM57.3735 18.0275C56.0835 18.0275 56.0835 16.0275 57.3735 16.0275C58.6635 16.0275 58.6635 18.0275 57.3735 18.0275Z" fill="#E52E68"/>
<path d="M81.9089 41.8223C82.0249 41.7813 82.0099 41.6533 81.7679 41.3973C79.7029 39.1943 77.6119 37.0453 75.3939 35.0433C75.4229 34.1513 75.4289 33.1903 74.9239 32.4703C74.8489 32.3633 74.7539 32.2663 74.6589 32.1713C73.0799 28.2763 70.9229 24.4743 69.7079 21.4763C69.3849 20.6813 66.9559 19.9403 67.0789 20.2443C68.7089 24.2653 70.7039 28.2543 72.2219 32.3603C71.0849 31.4803 69.9059 30.6463 68.6669 29.8753C67.1769 28.9453 66.7279 29.7623 68.2019 30.6813C69.8239 31.6923 71.3289 32.8483 72.7609 34.0923C72.7529 34.2483 72.7459 34.3993 72.7449 34.5373C72.7419 35.0493 73.9639 35.7333 74.7429 35.9133C76.4179 37.5203 78.0139 39.2153 79.6009 40.9073C79.7039 41.0163 79.9479 41.1673 80.2419 41.3133C80.1339 41.3793 80.0149 41.4323 79.8889 41.4613C81.5439 43.4633 82.5939 45.9343 83.3429 48.3853C83.7049 49.5743 84.3909 54.3363 81.5809 52.4163C80.2949 51.5373 79.0599 50.6723 77.4919 51.1973C76.8029 51.4273 76.7439 52.7543 76.6679 53.2943C76.2539 56.2323 74.3919 54.6413 73.5479 52.7213C73.3849 52.3503 71.2519 50.8973 71.0099 51.5283C70.7569 52.2163 70.4839 52.8953 70.1899 53.5673C69.4229 55.3913 66.1529 49.7783 66.0179 49.5693C64.3909 47.0483 62.6209 44.6313 60.7669 42.2733C60.3809 41.7823 57.6959 40.6293 58.6009 41.7823C61.4009 45.3463 63.4659 50.0323 66.6179 53.3803C57.9139 63.8703 44.6629 65.5053 31.9039 62.8083C26.8409 61.7373 22.8169 59.0333 19.8069 55.4033C19.8689 55.3793 19.8769 55.3243 19.7979 55.2223C19.6929 55.0873 19.5979 54.9513 19.4949 54.8163C19.5749 54.7183 19.6549 54.6213 19.7319 54.5293C19.9469 54.2733 19.1129 53.5433 18.3179 53.1523C14.3989 47.1913 13.2909 40.8153 13.0429 33.7143C13.0639 33.6943 13.0859 33.6743 13.1069 33.6533C13.1609 33.6023 13.1389 33.5103 13.0719 33.3993C13.1599 31.5663 13.3849 29.7643 13.7579 28.0353C15.9979 17.6643 23.6339 10.3583 32.2809 4.9513C34.6969 3.8473 37.0819 2.80729 39.6549 2.09529C45.0679 0.597286 50.5759 3.1853 55.3449 5.4503C57.2139 6.3373 56.1589 4.7763 55.1029 4.2743C51.1489 2.3963 47.2829 0.770278 42.9269 0.137278C39.1759 -0.407722 35.6689 0.749276 32.2929 2.21028C32.0509 2.13528 31.8369 2.11828 31.6999 2.19828C31.1139 2.54228 30.5389 2.89729 29.9669 3.25529C29.7669 3.34729 29.5669 3.44029 29.3659 3.53129C29.3019 3.56129 29.2789 3.61428 29.2909 3.68428C19.4149 10.0323 11.9079 18.5583 10.4539 30.7713C10.4009 30.8013 10.3669 30.8443 10.3679 30.9113C10.3719 31.1013 10.3789 31.2893 10.3839 31.4783C10.3579 31.7593 10.3459 32.0433 10.3239 32.3253C7.75793 34.7093 -3.49908 43.6783 1.08592 46.7793C1.82692 47.2813 2.64894 47.7833 3.56194 47.8783C4.63394 47.9883 5.56793 47.9063 6.62493 47.7563C7.87093 47.5773 6.50692 49.7623 6.42592 50.5653C6.13792 53.4003 8.24194 53.6803 10.2349 53.5553C10.7259 55.5513 9.88494 57.5683 12.4929 58.7913C15.0289 59.9803 17.0509 57.8273 18.6349 55.8813C20.9849 58.4593 23.7629 60.6123 26.9349 62.0983C29.8169 63.4463 32.9919 64.4503 36.2889 65.0773C35.1929 67.2813 35.5569 70.4083 35.5769 72.7833C35.2999 72.6723 35.0459 72.6253 34.8689 72.6963C31.4479 74.0763 27.6629 73.4613 24.2029 74.6963C23.7319 74.8643 25.8139 76.6313 26.5849 76.3563C27.7949 75.9243 29.0449 75.7243 30.3049 75.5803C29.7589 75.8773 29.2169 76.1823 28.7029 76.5293C28.1369 76.9143 30.4879 78.5933 31.0849 78.1893C31.9099 77.6303 32.7919 77.1713 33.6629 76.6953C34.2889 77.3503 35.8649 78.0123 36.0259 77.6093C36.3739 76.7383 36.6929 75.8693 36.8589 74.9433C36.8829 74.8063 36.8309 74.6673 36.7339 74.5273C36.9069 74.4723 37.0809 74.4253 37.2519 74.3563C37.3149 74.3313 37.3339 74.2793 37.3189 74.2103C37.8069 74.3693 38.2089 74.3913 38.2089 74.1433C38.1999 71.7093 37.7559 68.4613 39.0259 66.2773C39.1459 66.0703 38.8949 65.7493 38.5099 65.4463C39.6799 65.6063 40.8609 65.7143 42.0439 65.7763C42.7389 67.8073 41.5729 70.2683 42.0709 72.3643C41.8949 72.3433 41.7749 72.3643 41.7599 72.4443C41.5799 73.3933 41.1229 74.2263 40.7599 75.1103C40.4689 75.8153 43.1369 77.1463 43.3579 76.6103C43.5899 76.0473 43.8529 75.5033 44.0639 74.9383C44.9129 75.3523 45.6859 75.9583 46.4929 76.4303C46.7119 76.5573 47.7959 77.1743 48.0249 76.7773C48.2539 76.3783 47.1769 75.7533 46.9579 75.6243C46.0669 75.1043 45.2179 74.5523 44.3289 74.0583C44.3369 74.0203 44.3499 73.9843 44.3579 73.9453C44.3639 73.9183 44.3519 73.8893 44.3509 73.8623C47.8929 75.7403 51.7119 75.1643 55.5629 75.7133C56.2469 75.8113 55.5679 75.0223 55.4159 74.8933C54.8899 74.4463 54.2409 74.1103 53.5559 74.0113C50.7879 73.6173 47.1349 74.3583 44.6259 72.9593C44.6119 72.9513 44.6029 72.9493 44.5889 72.9413C44.3449 70.6663 45.4469 68.2673 44.2989 66.1393C44.2469 66.0443 44.138 65.9393 43.999 65.8303C51.202 65.8723 58.3829 64.0523 63.9249 59.9453C65.6679 58.6543 67.3509 57.1003 68.9089 55.3873C70.7409 56.6023 71.9129 56.1003 72.7959 54.7093C74.2919 56.6553 76.4189 58.3033 78.5749 56.9713C79.8229 56.2003 78.5199 51.6173 81.2719 53.4483C82.0329 53.9543 83.6009 55.1523 84.6259 54.8583C89.4489 53.4703 84.0879 44.6893 81.9089 41.8223ZM13.0719 57.1563C12.8899 57.9033 12.8279 57.7463 12.8839 56.6843C12.9149 56.0493 12.9229 55.4143 12.9049 54.7803C12.8949 53.5383 11.7369 52.4593 10.6879 51.9673C10.1339 51.7073 9.79195 51.7053 9.17995 51.7703C9.12995 51.7753 9.08692 51.7893 9.04292 51.8013C9.11392 51.5973 9.18895 51.3573 9.26995 51.0503C9.72195 49.3253 9.86294 47.8653 8.29494 46.7743C7.37894 46.1353 6.24292 45.8233 5.13292 45.9743C3.66492 46.1743 2.37692 47.2013 2.68492 45.6633C2.85992 44.7893 3.48894 43.9603 3.96794 43.2373C5.77794 40.5093 8.21092 38.2223 10.6289 35.9803C11.1879 42.3173 12.7699 48.1283 16.7229 53.5213C15.6119 54.8553 14.5499 56.1483 13.0719 57.1563Z" fill="#E52E68"/>
</svg>
